{"glyphs":{"0":{"ha":799,"x_min":76,"x_max":726,"o":"m 529 978 q 522 994 525 986 q 511 1008 519 1001 q 503 1008 507 1008 q 496 1009 499 1009 q 467 993 479 1009 l 467 987 q 467 983 467 985 q 468 978 468 981 l 465 971 q 479 959 472 964 q 495 954 486 954 q 515 962 507 954 q 529 978 522 971 m 614 873 q 608 895 612 884 q 595 913 604 905 q 579 915 587 914 q 563 916 571 916 l 563 909 q 555 893 556 898 q 552 875 555 888 q 568 862 563 864 q 590 859 574 860 q 602 866 595 863 q 614 873 608 869 m 693 745 q 687 766 693 758 q 670 781 681 774 q 665 779 667 779 q 658 779 662 779 q 651 779 654 780 q 637 758 640 774 q 633 731 633 742 q 644 724 640 728 q 655 720 648 720 q 693 736 674 720 l 693 745 m 407 1006 q 397 1023 401 1015 q 387 1038 393 1031 l 357 1038 q 354 1024 357 1027 q 345 1015 351 1021 q 353 993 346 1000 q 372 978 359 986 q 395 985 387 979 q 407 1006 404 991 m 716 600 q 705 614 716 605 q 688 623 693 623 q 675 621 681 623 q 663 618 670 618 q 657 606 661 612 q 654 593 654 600 q 662 576 654 581 q 677 566 670 572 l 686 566 q 709 576 701 566 q 716 600 716 586 m 274 944 q 258 955 270 948 q 240 962 245 962 q 220 950 229 962 q 208 930 212 939 q 220 914 214 924 q 239 905 227 905 q 251 909 243 905 q 263 916 259 913 q 274 944 274 929 m 726 453 l 705 476 q 700 477 703 476 q 694 478 697 477 q 688 479 690 479 q 673 474 681 479 q 658 464 665 469 q 657 458 658 461 q 656 453 656 456 q 662 433 656 446 q 675 425 673 430 q 685 414 678 420 q 692 419 688 416 q 699 422 696 422 q 702 421 700 422 q 707 420 704 420 l 711 420 l 726 453 m 707 302 q 701 317 701 308 q 692 326 697 321 q 680 330 686 330 q 670 327 675 330 q 652 318 661 327 q 644 300 644 309 q 650 282 644 292 q 658 266 655 273 q 680 271 670 267 q 701 279 690 274 q 704 291 701 286 q 707 302 707 296 m 174 807 q 171 817 174 812 q 165 825 168 821 q 153 830 159 827 q 141 833 148 833 q 122 825 132 833 q 113 806 113 817 q 121 785 113 788 q 142 774 130 781 q 156 780 148 780 l 167 780 q 164 783 165 783 q 164 785 163 783 q 170 795 167 791 q 174 807 174 800 m 148 670 q 136 684 145 678 q 117 689 126 689 q 98 680 106 689 q 84 662 91 670 q 90 642 87 655 q 104 635 96 637 q 121 629 113 632 l 129 629 q 133 637 130 635 q 138 642 136 639 q 144 650 141 644 q 148 670 146 656 m 659 140 q 644 167 659 155 q 633 171 637 170 q 621 172 628 172 q 607 164 612 172 q 597 151 602 156 q 595 127 600 138 q 610 120 602 122 q 624 114 617 118 q 645 121 637 114 q 659 140 652 129 m 137 487 q 133 501 137 496 q 123 513 129 506 q 115 513 119 513 q 109 514 111 514 q 94 510 100 514 q 80 500 87 506 q 77 488 77 494 q 76 473 77 481 q 87 464 81 468 q 100 453 94 460 q 125 465 113 457 q 137 487 137 472 m 556 18 q 554 27 555 22 q 552 38 553 33 q 551 52 551 43 q 546 58 551 56 q 534 60 541 60 q 519 60 526 61 q 506 57 511 60 q 503 54 503 56 q 500 52 502 53 q 497 42 498 45 q 496 37 496 39 q 496 31 496 34 q 496 19 496 27 q 505 9 502 14 q 515 3 509 5 q 522 5 518 5 q 530 5 526 5 q 537 5 534 4 q 545 13 544 11 q 556 18 547 15 m 157 297 q 147 306 152 302 q 140 316 142 309 q 132 319 136 317 q 126 320 129 320 q 111 316 119 320 q 95 309 102 312 q 93 302 94 305 q 92 294 92 298 q 99 274 92 283 q 118 264 106 264 q 133 269 126 264 q 146 275 140 273 q 149 288 146 285 q 157 297 151 290 m 435 4 q 427 11 429 11 q 426 22 426 11 q 413 23 416 22 q 401 27 410 24 q 391 19 396 23 q 380 11 387 15 q 377 1 377 5 q 379 -9 377 -5 q 381 -20 381 -14 q 395 -26 388 -24 q 408 -31 401 -27 q 435 4 435 -20 m 220 119 q 216 132 220 125 q 209 142 212 138 q 194 145 202 145 q 179 148 186 145 q 165 136 174 141 q 157 121 157 132 q 159 115 157 118 q 160 110 160 113 l 160 103 q 174 95 167 99 q 191 91 182 91 q 203 94 195 91 q 215 104 210 98 q 220 119 220 111 m 309 7 q 309 15 309 11 q 308 23 308 19 q 286 30 297 30 q 260 26 273 30 l 251 1 q 258 -7 255 -3 q 264 -15 262 -11 l 283 -20 q 302 -12 296 -16 q 309 7 309 -8 "},"1":{"ha":429,"x_min":34,"x_max":313,"o":"m 311 994 l 294 1012 q 282 1015 286 1015 q 264 1008 271 1015 q 251 996 258 1002 q 250 986 250 993 q 277 958 250 958 q 297 965 286 958 q 308 982 308 972 q 305 987 305 985 q 311 994 307 990 m 309 826 l 300 845 q 287 852 293 850 q 274 854 281 853 q 263 844 267 848 q 251 836 259 841 q 248 821 247 827 q 247 806 250 815 q 262 799 255 803 q 278 795 270 795 q 309 826 307 795 m 205 933 q 191 947 197 940 q 174 954 186 954 q 166 953 170 954 q 160 952 163 952 q 149 940 153 941 q 145 922 145 939 q 147 911 145 917 q 151 899 149 905 q 165 898 157 899 q 179 897 172 897 q 189 903 183 901 q 201 909 194 906 q 205 933 201 921 m 309 650 q 306 671 305 659 q 297 689 307 682 q 287 690 292 689 q 277 690 282 690 q 263 688 271 690 q 256 672 260 680 q 250 656 252 665 l 263 635 q 271 634 267 635 q 279 633 275 633 q 296 638 289 633 q 309 650 302 643 m 100 865 q 99 873 100 869 q 95 883 98 878 q 82 886 88 884 q 69 887 76 887 q 58 887 64 887 q 47 884 53 887 q 41 874 45 879 q 34 865 38 869 q 43 844 41 853 q 62 836 45 836 q 82 843 73 836 q 100 856 91 850 l 100 865 m 311 505 l 300 528 q 292 527 293 526 q 285 528 290 528 q 263 522 270 528 q 247 502 256 515 q 257 483 247 491 q 275 469 267 475 q 291 473 283 471 q 308 477 298 476 q 309 491 307 484 q 311 505 311 498 m 313 328 l 309 336 q 304 352 309 350 q 300 362 300 354 q 279 365 286 365 q 251 357 264 365 q 247 339 247 349 q 252 319 247 332 q 262 313 256 315 q 274 308 269 311 q 295 315 286 308 q 313 328 304 321 m 311 184 q 304 201 311 191 l 297 198 q 283 203 292 203 q 272 202 277 203 q 260 201 267 201 q 247 175 247 190 q 252 163 250 168 q 258 153 255 159 q 279 153 269 153 q 301 152 290 153 q 305 171 302 157 q 311 184 311 179 m 311 15 q 302 28 307 22 q 293 42 298 35 l 285 42 q 277 41 281 42 q 270 39 274 39 l 263 39 q 252 26 256 33 q 248 9 248 20 l 248 1 q 262 -11 255 -5 q 278 -16 269 -16 q 299 -6 293 -16 q 311 15 305 4 "},"2":{"ha":705,"x_min":54,"x_max":656,"o":"m 581 917 q 569 936 581 930 q 547 941 557 941 q 530 937 537 941 q 522 921 522 932 q 523 909 522 914 q 525 897 524 903 q 538 895 537 899 q 551 890 538 890 q 561 891 556 890 q 572 898 566 892 q 575 905 572 901 q 581 911 578 909 l 581 917 m 477 1000 q 473 1013 477 1006 q 465 1027 469 1020 q 456 1027 461 1027 q 448 1028 452 1028 q 422 1004 422 1028 l 422 985 q 436 981 430 985 q 449 978 442 978 q 471 982 460 978 q 475 990 473 986 q 477 1000 477 994 m 639 774 q 634 786 637 781 q 631 798 631 791 q 618 800 624 799 q 606 802 613 802 q 601 801 604 802 q 595 800 598 800 q 589 799 591 799 l 583 791 l 581 785 q 578 781 579 783 q 576 777 576 779 q 579 763 576 769 q 586 750 582 757 q 595 748 591 750 q 604 746 598 746 q 627 753 624 746 q 639 774 631 760 m 343 993 q 342 1004 343 1000 q 331 1009 335 1006 q 324 1013 327 1012 q 317 1015 321 1015 q 302 1016 312 1016 q 294 1008 298 1013 q 288 1000 290 1004 l 288 993 l 288 978 q 303 970 294 971 q 321 966 312 968 q 330 970 328 968 q 340 972 332 972 q 343 993 343 986 m 621 612 l 621 624 q 608 637 618 631 q 591 644 598 644 q 578 640 585 644 q 566 633 572 636 q 563 623 564 628 q 562 612 562 618 l 562 601 q 574 590 568 594 q 589 586 581 586 q 601 589 593 586 q 616 597 610 590 q 621 612 621 604 m 217 937 q 212 951 217 945 q 202 964 208 958 q 193 966 199 966 q 171 960 182 966 q 160 941 160 955 q 161 937 160 939 q 161 932 161 935 l 161 925 q 178 916 170 917 q 198 909 187 914 q 211 921 205 916 q 217 937 217 926 m 552 471 q 547 483 552 477 q 536 494 541 488 q 530 494 533 494 q 524 495 526 495 l 511 495 q 500 489 505 495 q 492 479 496 483 q 490 472 490 473 q 494 458 490 464 q 502 445 498 452 q 521 439 513 439 l 533 439 q 546 453 540 446 q 552 471 552 460 m 114 833 l 114 853 l 102 865 q 88 868 91 868 q 73 864 79 868 q 64 857 68 861 q 54 850 60 853 q 59 844 57 848 q 61 837 61 841 q 60 825 61 829 q 71 823 69 825 q 79 815 72 822 q 83 814 81 815 q 88 814 85 814 q 104 819 95 814 q 114 833 114 823 m 461 353 q 455 363 461 355 q 446 374 449 372 q 431 378 438 378 q 416 375 423 378 q 401 369 408 372 q 401 359 401 363 q 400 350 400 355 q 403 338 400 342 q 412 328 408 332 q 425 323 416 323 q 431 323 427 323 q 437 324 434 324 l 446 324 q 456 338 450 331 q 461 353 461 345 m 656 4 q 653 23 656 16 q 642 38 650 30 q 629 41 633 41 q 607 31 614 41 q 600 7 600 20 l 600 -3 q 611 -6 608 -3 q 620 -15 614 -9 l 625 -12 q 640 -11 633 -15 q 648 -3 644 -7 q 656 4 652 0 m 351 236 q 344 254 347 247 q 334 269 340 260 q 326 264 328 264 q 316 264 323 264 q 306 260 311 262 q 296 255 301 258 q 292 245 292 251 q 326 212 292 212 q 342 219 336 212 q 351 236 349 227 m 528 12 q 526 20 528 16 q 525 27 525 23 l 525 37 q 514 39 519 38 q 503 41 509 41 q 480 35 491 41 q 469 14 469 28 q 481 -6 469 -1 q 503 -16 492 -11 q 517 -4 513 -8 q 528 12 521 0 m 395 20 q 372 38 380 22 l 346 42 q 337 27 343 34 q 331 12 331 20 q 343 -4 331 3 q 350 -11 343 -11 q 365 -7 358 -11 q 385 -1 380 -12 q 395 20 391 9 m 237 130 l 237 142 q 228 153 233 148 q 216 159 222 159 q 209 157 213 159 q 202 156 205 156 l 194 160 q 184 142 190 153 q 179 122 179 130 q 186 113 182 117 q 195 106 190 110 l 206 106 q 228 113 217 106 q 237 130 239 119 m 252 9 q 246 27 252 22 q 232 41 240 33 q 220 39 225 41 q 208 38 214 38 q 197 22 201 28 q 194 4 194 16 q 209 -7 206 -3 q 228 -15 212 -11 q 241 -4 235 -12 q 252 9 247 4 m 115 24 q 107 31 111 28 q 100 39 103 34 q 90 40 95 39 q 80 41 85 41 q 62 31 69 41 q 56 11 56 20 q 58 -4 56 4 q 70 -11 65 -7 q 81 -15 75 -15 q 106 -8 92 -15 q 113 7 111 -1 q 115 24 114 15 "},"3":{"ha":730,"x_min":62,"x_max":688,"o":"m 623 903 q 617 919 623 913 q 606 932 612 925 q 593 935 598 935 q 572 928 582 935 q 563 911 563 922 q 564 901 563 906 q 566 890 566 897 q 581 883 574 887 q 594 876 587 879 q 613 886 604 883 q 623 903 623 890 m 511 979 q 507 994 511 987 q 498 1005 503 1000 q 478 1004 487 1004 q 458 1002 469 1005 q 453 985 453 996 l 453 968 q 470 957 467 962 q 492 952 473 952 q 498 961 494 962 q 510 967 503 960 q 511 973 510 970 q 511 979 511 977 m 659 783 q 656 795 659 789 q 652 807 654 800 q 637 808 642 806 q 624 817 632 810 l 623 810 q 605 800 612 806 q 598 783 598 795 q 599 772 598 777 q 600 762 600 768 q 624 755 613 755 q 655 762 639 755 q 657 772 655 768 q 659 783 659 777 m 372 1006 q 362 1013 362 1009 q 355 1021 362 1016 q 339 1024 345 1024 q 329 1023 334 1024 q 319 1020 324 1021 q 314 1010 316 1015 q 312 1000 312 1005 q 320 980 312 989 q 339 971 328 971 q 362 978 349 971 q 368 991 368 983 q 372 1006 369 1000 m 623 651 q 622 663 623 658 q 621 675 621 669 q 612 676 614 675 q 605 680 610 677 q 594 684 601 684 q 576 677 583 684 q 568 671 570 673 q 568 659 567 669 q 567 651 568 655 q 566 643 566 647 q 595 631 578 631 q 623 642 613 631 l 623 651 m 236 959 q 233 966 235 963 q 229 971 232 968 q 235 983 232 979 q 220 985 227 983 q 206 987 213 987 q 198 986 202 987 q 191 983 194 985 q 186 981 187 982 q 184 972 184 977 q 183 962 183 968 q 183 951 180 959 q 186 944 184 947 q 193 940 189 941 q 208 936 198 936 q 214 937 210 936 q 221 937 218 937 q 231 947 228 943 q 236 959 235 951 m 530 586 q 520 604 530 595 q 500 612 510 612 q 487 608 494 612 q 473 604 480 605 q 471 587 473 595 q 469 570 469 578 q 486 562 477 566 q 503 557 494 557 l 513 557 q 525 570 519 564 q 530 586 530 576 m 648 403 q 637 422 648 418 q 616 431 627 427 q 603 423 609 426 q 590 415 597 420 q 587 401 587 411 q 600 378 587 385 q 625 372 612 372 q 641 384 633 372 q 648 403 648 396 m 560 476 q 556 493 560 486 q 545 507 552 500 q 535 508 540 507 q 524 509 530 509 q 502 487 502 509 q 505 475 502 480 q 510 464 507 469 q 522 458 517 458 q 534 453 528 457 q 549 463 541 460 q 560 476 556 467 m 127 892 q 81 910 109 907 q 69 900 76 907 q 62 886 62 892 q 73 863 62 871 q 98 854 83 854 q 119 868 110 854 q 127 892 127 882 m 431 530 q 427 547 431 541 q 418 559 422 552 q 411 562 415 560 q 404 563 407 563 q 392 561 397 563 q 380 559 387 559 q 376 547 380 548 q 366 538 373 545 q 369 529 365 534 q 374 518 373 524 l 397 505 q 420 511 410 506 q 431 530 431 515 m 688 262 q 659 293 688 290 q 651 296 654 296 q 633 287 637 296 q 624 267 629 278 q 640 247 631 255 q 665 239 650 239 q 688 262 677 250 m 307 530 q 302 541 304 536 q 298 552 301 547 q 287 557 293 555 q 274 560 281 560 q 248 534 248 560 l 248 525 l 264 506 q 275 503 273 503 q 296 511 286 503 q 307 530 305 519 m 643 132 q 640 144 643 138 q 635 155 637 149 q 625 158 629 156 q 613 160 620 160 q 600 158 606 160 q 587 155 594 156 q 584 146 586 152 q 582 137 582 140 q 583 125 582 130 q 583 115 583 121 q 598 106 591 111 q 614 102 605 102 q 629 108 624 102 q 642 119 635 114 q 642 125 642 122 q 643 132 643 129 m 547 8 q 545 12 545 11 q 543 16 544 14 q 545 28 545 24 q 536 45 538 42 q 519 54 534 47 q 496 47 506 52 q 487 26 487 43 l 487 12 q 496 5 492 9 q 505 -3 499 0 q 515 -5 510 -5 q 532 -1 524 -5 q 547 8 540 4 m 391 -8 q 388 6 391 -1 q 382 20 385 14 q 369 26 374 26 q 354 24 361 26 q 340 19 347 22 q 334 4 335 12 q 332 -14 332 -4 q 345 -25 338 -19 q 359 -31 351 -31 q 374 -28 368 -31 q 388 -22 381 -24 q 391 -8 391 -14 m 252 43 l 239 65 l 224 65 q 207 62 214 65 q 193 53 199 58 q 190 33 194 43 q 199 24 194 28 q 206 15 203 20 l 225 14 q 241 16 231 16 q 252 43 250 26 m 132 109 q 126 126 132 115 q 106 133 117 133 q 85 136 96 133 q 80 126 83 127 q 72 119 77 125 q 71 113 72 117 q 69 107 69 110 q 79 87 69 91 q 98 73 88 83 q 110 79 104 76 q 122 85 115 83 q 132 109 132 98 "},"4":{"ha":738,"x_min":20,"x_max":739,"o":"m 593 989 q 578 1027 590 1012 q 559 1031 570 1031 q 541 1027 549 1031 q 526 1019 533 1024 q 529 1009 529 1010 q 528 1004 529 1006 q 528 998 528 1001 q 538 979 528 985 q 560 974 549 974 l 568 974 q 581 982 575 978 q 593 989 586 986 m 600 856 l 600 876 q 586 881 593 878 q 572 884 579 884 q 566 884 570 884 q 560 883 563 883 q 548 884 552 883 l 551 878 q 542 868 547 875 q 537 854 537 861 q 546 838 537 844 q 563 829 555 833 q 582 833 574 829 q 600 842 590 837 l 600 856 m 479 897 q 471 915 479 906 q 453 924 464 924 q 445 922 449 924 q 437 921 441 921 l 427 921 l 425 910 q 416 897 416 906 q 422 880 416 888 q 435 867 429 872 l 444 867 q 479 886 467 867 l 479 897 m 604 724 q 597 732 598 728 q 593 739 595 736 q 587 744 591 742 q 574 746 583 746 q 564 745 568 746 q 555 745 560 745 q 549 736 549 738 q 538 728 548 734 q 543 719 543 722 q 537 711 541 715 q 550 694 544 704 q 566 685 556 685 q 573 687 570 685 q 579 689 576 689 l 586 685 q 599 703 595 696 q 604 724 602 709 m 601 575 q 591 593 601 585 q 572 602 582 602 q 557 599 564 602 q 543 593 549 595 q 541 586 541 590 q 542 583 541 585 q 543 579 543 581 q 540 568 540 571 q 547 557 540 563 q 557 548 553 551 l 567 548 q 576 548 574 548 q 585 545 578 548 q 595 558 590 552 q 601 575 601 564 m 381 743 q 371 766 381 757 q 349 774 361 774 q 340 773 345 774 q 334 770 336 772 l 328 772 q 321 759 324 765 q 317 746 317 753 q 322 732 317 735 q 330 719 327 728 q 338 719 335 720 q 347 718 342 718 q 368 726 354 718 q 381 743 381 735 m 739 285 l 735 293 q 736 300 735 297 q 739 307 738 304 q 724 322 732 315 q 705 330 716 330 q 685 320 694 330 q 675 300 675 311 q 676 290 675 294 q 677 279 677 285 q 703 270 690 270 q 722 275 713 270 q 739 285 730 279 m 602 430 q 600 442 602 437 q 594 454 597 448 q 581 460 587 457 q 568 463 575 463 l 557 463 q 545 451 551 453 q 540 435 540 449 l 540 420 q 551 410 545 414 q 563 403 556 407 q 600 418 585 403 q 602 430 602 426 m 290 617 q 278 621 279 617 q 274 633 277 625 q 260 636 266 636 q 248 635 254 636 q 235 633 241 633 q 230 611 232 623 q 228 589 228 600 l 233 589 q 241 581 236 585 q 254 576 247 576 q 269 582 260 576 q 285 591 278 587 q 288 604 288 598 q 290 617 289 610 m 597 292 q 593 312 597 301 q 559 320 576 319 l 532 302 q 534 298 533 300 q 537 294 536 297 q 535 290 536 292 q 533 285 534 288 q 543 277 537 279 q 553 267 549 274 q 560 266 556 267 q 567 264 564 264 q 578 266 574 264 q 589 269 583 267 q 594 279 591 277 q 597 292 597 282 m 477 305 q 439 328 467 328 q 425 326 433 328 q 414 288 415 308 q 428 275 419 278 q 446 271 437 271 q 471 277 457 271 q 475 291 473 283 q 477 305 476 298 m 601 145 l 601 165 q 588 174 594 171 q 574 178 582 178 q 560 174 567 178 q 548 167 553 170 q 541 151 541 157 l 541 136 q 552 129 548 133 q 563 121 556 125 q 583 124 574 122 q 601 134 593 126 l 601 145 m 189 461 q 187 473 189 468 q 183 484 186 477 q 169 492 176 491 q 152 494 161 494 l 138 494 q 130 481 136 483 q 125 465 125 479 q 127 454 125 458 q 132 444 129 449 q 151 435 142 435 q 176 441 163 435 q 189 461 189 448 m 346 311 q 331 321 336 315 q 315 328 326 328 q 298 322 308 328 q 288 309 288 316 q 288 300 288 305 q 286 292 288 296 q 296 277 289 283 q 312 270 302 270 q 338 281 332 270 q 346 311 345 293 m 600 -4 q 593 26 598 14 q 567 38 589 38 q 548 28 555 38 q 534 9 541 18 q 549 -12 540 -3 q 571 -20 557 -20 q 587 -15 579 -20 q 600 -4 594 -9 m 218 301 q 216 312 218 304 q 207 321 210 316 q 199 331 203 326 q 195 326 198 330 q 190 323 193 323 q 182 323 186 323 q 174 324 178 324 l 159 309 q 159 295 159 302 q 160 281 160 288 q 172 275 167 279 q 184 271 178 271 q 208 279 197 271 q 218 301 218 288 m 84 293 q 82 300 84 296 q 80 307 80 305 l 80 315 q 66 324 73 321 q 49 330 58 327 q 29 317 38 330 q 20 296 20 304 q 31 277 20 285 q 52 270 41 270 q 70 277 62 270 q 84 293 77 285 "},"5":{"ha":692,"x_min":56,"x_max":636,"o":"m 578 974 q 571 993 578 985 q 557 1008 564 1001 q 548 1005 552 1005 l 530 1005 q 522 991 525 996 q 518 975 518 986 l 518 967 q 519 963 518 964 q 524 960 521 962 q 530 958 530 958 q 541 951 534 952 q 556 954 548 954 q 571 958 564 955 q 576 966 574 962 q 578 974 578 970 m 441 974 q 437 990 441 982 q 434 1006 434 998 q 418 1005 429 1005 q 400 1008 411 1005 q 391 999 396 1002 q 382 991 387 996 q 382 985 382 989 q 381 978 381 981 q 389 962 381 967 q 404 951 397 956 l 410 951 q 424 956 415 951 q 438 963 433 960 q 441 974 441 971 m 309 986 l 302 987 q 293 1004 297 998 q 286 1004 290 1004 q 278 1005 282 1005 q 255 993 263 1005 q 241 967 247 981 l 262 952 q 267 951 264 952 q 273 951 270 951 q 287 954 281 951 q 300 962 293 958 l 309 986 m 170 972 q 168 977 168 975 q 165 982 167 979 l 165 994 q 148 1002 156 1001 q 129 1008 140 1004 q 116 996 122 1001 q 110 979 110 990 q 116 962 110 970 q 130 949 122 954 q 151 958 142 951 q 170 972 160 966 m 578 486 q 572 496 572 492 q 570 507 571 500 q 543 514 559 514 q 535 513 538 514 q 529 510 532 511 q 522 506 525 507 q 521 502 521 505 q 519 495 519 499 q 519 481 519 487 q 522 468 519 476 q 532 462 525 465 q 544 458 540 458 q 555 460 551 458 q 567 465 560 463 q 578 486 572 473 m 456 564 q 448 583 456 578 q 429 591 439 589 l 420 591 q 414 593 416 591 l 410 589 q 404 583 407 586 q 397 576 401 579 q 397 566 397 571 q 396 556 396 562 q 401 543 396 551 q 413 540 408 544 q 425 536 418 536 q 436 537 431 536 q 448 540 441 538 q 453 552 450 547 q 456 564 456 557 m 170 842 q 166 854 170 850 q 163 867 163 857 q 147 870 155 867 q 132 873 140 873 l 109 873 q 117 864 114 868 q 112 859 114 861 q 109 853 110 856 q 113 835 109 842 q 125 818 118 827 q 134 815 130 815 q 151 817 142 815 q 167 818 159 818 q 163 827 165 822 q 168 835 165 830 q 170 842 170 840 m 636 336 l 636 345 q 633 357 636 351 q 629 370 631 363 q 614 372 621 370 q 598 374 606 373 q 583 361 590 368 q 570 347 576 354 q 582 332 575 336 q 601 323 589 328 q 607 322 604 323 q 613 321 610 321 q 626 326 620 321 q 636 336 632 331 m 313 579 q 308 600 308 589 q 294 604 301 602 q 279 606 288 606 q 273 606 277 606 q 264 605 269 605 q 259 594 260 600 q 251 587 252 589 q 255 578 250 586 q 255 570 252 574 q 256 564 255 567 q 260 563 258 564 q 265 561 263 562 q 270 557 267 560 q 285 555 281 555 q 292 555 289 555 q 300 557 296 556 q 307 568 304 563 q 313 579 311 574 m 168 709 q 160 723 168 715 q 155 734 160 730 q 144 743 151 739 q 138 741 141 742 q 133 739 136 739 q 121 739 125 739 q 109 735 117 738 q 110 723 110 731 q 109 713 110 718 q 109 703 109 708 q 121 690 115 696 q 137 685 127 685 q 156 693 144 685 q 168 709 168 701 m 629 206 q 629 214 629 210 q 628 221 628 218 l 610 233 q 602 234 606 233 q 593 235 598 235 q 581 232 585 235 q 573 223 576 228 q 563 216 570 218 l 568 210 q 568 202 568 206 q 567 195 567 198 q 576 186 572 191 q 586 178 581 180 q 599 178 593 179 q 612 178 605 178 q 623 191 617 184 q 629 206 629 198 m 171 582 q 165 597 171 587 q 157 612 160 606 l 151 608 q 141 609 148 609 q 138 610 138 609 q 134 610 137 610 q 122 605 126 610 q 107 597 118 600 q 109 581 110 589 q 107 563 107 572 q 125 555 118 563 q 130 554 127 555 q 136 553 133 553 q 159 562 146 553 q 171 582 171 571 m 548 80 q 547 87 548 84 q 543 95 545 91 q 548 103 545 100 q 532 110 540 106 q 517 114 525 114 q 505 112 510 114 q 495 107 500 110 q 489 97 488 100 q 481 88 490 94 q 493 66 486 76 q 515 56 500 56 q 534 64 528 56 q 548 80 541 73 m 410 18 q 406 28 406 24 q 404 39 406 31 q 389 48 397 45 q 372 52 381 52 q 354 42 361 52 l 347 23 q 358 1 349 8 q 382 -5 368 -5 l 395 -5 q 410 18 397 5 m 256 47 q 252 61 256 54 q 245 73 248 68 q 231 75 236 73 q 217 81 225 77 l 210 68 q 201 62 205 65 q 197 52 198 58 l 199 34 q 213 22 205 27 q 229 18 221 18 q 248 28 239 18 q 256 47 256 38 m 121 90 q 117 114 117 109 q 102 134 117 119 q 85 136 94 134 q 71 138 77 137 q 65 125 68 126 q 56 114 62 123 q 90 75 58 80 q 105 81 98 77 q 121 90 113 85 "},"6":{"ha":818,"x_min":75,"x_max":743,"o":"m 678 949 q 673 966 678 958 q 662 981 667 974 q 655 980 658 979 q 648 981 652 981 q 628 970 639 981 q 614 949 617 959 q 620 941 618 944 q 624 932 621 939 q 646 920 631 924 q 668 928 658 920 q 678 949 678 936 m 547 1005 q 545 1019 547 1012 q 537 1032 544 1027 l 525 1032 q 507 1030 515 1032 q 488 1025 498 1028 q 486 1010 486 1017 q 487 998 486 1004 q 490 985 488 991 q 498 985 495 985 q 502 978 502 985 l 533 978 q 541 988 536 986 q 547 1005 547 990 m 433 1000 q 431 1012 433 1006 q 427 1024 430 1017 q 407 1032 419 1032 q 393 1031 400 1032 q 380 1027 387 1029 q 378 1015 380 1020 q 377 1004 377 1010 q 377 995 377 1000 q 378 986 377 990 q 389 978 384 981 q 400 971 395 975 q 416 979 407 977 q 433 987 425 982 l 433 1000 m 293 933 q 284 945 289 940 q 275 956 279 949 q 267 954 270 954 q 261 954 264 954 q 255 955 258 955 q 236 945 243 955 q 229 925 229 936 q 234 913 229 921 q 241 902 239 906 q 250 901 245 902 q 256 901 254 901 q 293 933 289 901 m 692 476 l 680 500 q 667 503 673 500 q 655 506 662 506 q 647 499 650 502 q 637 494 644 496 q 635 476 635 483 q 642 453 635 463 q 663 444 648 444 q 675 448 670 444 q 686 454 681 452 q 690 465 689 460 q 692 476 692 469 m 581 570 q 570 588 578 581 q 549 595 562 595 q 545 595 547 595 q 540 594 543 594 l 533 598 l 521 583 q 520 576 521 581 q 519 570 519 572 q 528 549 519 559 q 548 538 537 538 q 561 543 555 538 q 576 549 567 547 l 579 555 q 578 562 579 560 q 581 570 578 564 m 743 320 q 734 340 741 334 q 728 352 732 347 q 718 361 723 357 q 699 354 704 355 q 690 353 693 353 l 682 338 q 678 324 678 331 q 693 309 685 317 q 712 300 701 300 q 728 309 718 300 q 743 320 738 317 m 216 799 q 213 810 213 807 q 213 821 213 817 q 210 831 213 825 q 195 838 203 834 q 180 841 187 841 q 172 838 175 841 q 156 823 157 830 q 152 800 155 815 q 163 788 159 795 q 179 781 168 781 q 199 787 190 781 q 216 799 208 793 m 414 582 q 408 600 410 591 q 400 616 407 608 q 390 617 395 616 q 378 618 385 618 q 354 612 368 618 q 351 601 351 606 l 351 594 q 354 579 351 585 q 359 568 357 572 q 368 564 361 564 q 374 564 370 564 q 380 563 377 563 q 399 568 391 563 q 414 582 407 574 m 734 157 l 734 174 q 726 186 734 180 q 715 195 719 191 q 697 191 705 191 q 677 184 689 191 q 675 175 677 179 q 673 165 673 171 q 681 152 673 159 q 692 141 689 145 q 704 138 700 138 q 722 144 715 138 q 734 157 728 151 m 160 655 l 160 666 q 148 675 153 671 q 132 678 142 678 q 113 675 126 678 q 104 663 109 669 q 95 651 99 658 l 110 629 l 137 621 q 146 631 140 628 q 159 637 152 633 q 159 646 159 642 q 160 655 160 650 m 260 529 q 256 544 260 536 q 248 549 252 548 q 237 552 243 551 q 225 557 233 557 q 213 554 218 557 q 201 548 208 551 q 199 538 201 543 q 198 528 198 533 q 208 507 198 513 q 232 500 217 500 q 242 507 236 506 q 254 509 248 507 q 260 529 260 519 m 612 52 q 602 61 606 57 q 591 71 597 65 q 587 71 589 71 q 582 72 585 72 q 566 66 572 72 q 552 56 559 61 q 553 42 552 49 q 553 28 553 35 q 581 18 564 18 l 600 18 q 607 34 604 26 q 612 52 610 42 m 138 476 q 132 492 138 483 q 121 507 125 500 q 108 508 114 509 q 95 509 102 507 q 84 496 88 503 q 75 483 80 490 q 83 467 79 475 q 90 453 87 460 q 102 450 96 450 q 115 450 109 450 q 130 460 122 453 q 138 476 138 467 m 172 327 q 155 345 172 339 q 129 354 138 351 q 121 344 126 347 q 113 336 117 340 q 112 323 113 330 q 111 309 111 316 l 134 292 q 145 295 140 292 q 156 298 151 298 l 164 298 q 170 313 167 305 q 172 327 172 320 m 469 -1 l 469 12 q 458 18 463 15 q 445 20 453 20 q 426 16 431 20 q 411 3 420 12 l 411 -4 q 414 -18 411 -11 q 420 -33 418 -26 q 431 -37 426 -35 q 442 -38 435 -38 q 462 -25 454 -38 q 469 -1 469 -12 m 228 148 q 222 155 225 152 q 216 160 218 157 q 214 163 216 161 q 212 168 213 165 q 208 174 209 171 l 203 174 q 197 174 201 174 q 191 175 194 175 q 182 173 186 175 q 174 171 179 171 q 163 153 165 163 q 156 133 161 144 q 190 117 172 117 q 203 120 198 117 q 216 126 208 123 q 220 138 217 136 q 228 148 222 141 m 334 26 q 332 35 334 31 q 330 43 331 39 q 317 50 323 46 q 304 53 311 53 q 288 49 296 53 q 274 41 281 45 q 273 28 274 34 q 271 16 273 23 l 290 -3 l 298 -3 q 321 6 309 -3 q 334 26 334 15 "},"7":{"ha":700,"x_min":37,"x_max":663,"o":"m 663 979 q 653 1000 663 991 q 632 1015 643 1008 l 609 1006 q 606 994 609 1000 q 604 981 604 987 q 610 965 604 970 q 623 954 616 960 l 636 954 q 655 961 647 954 q 663 979 663 968 m 524 977 q 523 983 524 979 q 522 990 522 987 l 510 1010 q 499 1009 502 1010 q 484 1012 492 1009 q 473 1006 479 1009 q 465 998 468 1004 q 455 982 457 987 q 455 973 453 977 q 462 966 457 970 q 473 958 467 963 q 488 955 479 955 q 510 960 496 955 q 524 977 524 966 m 590 868 q 577 873 579 871 q 564 878 575 875 q 555 879 562 879 q 547 878 549 879 q 541 870 547 873 q 532 863 534 867 q 531 857 532 860 q 530 852 530 854 q 533 842 530 848 q 543 827 534 833 q 559 822 551 822 q 570 823 566 822 q 582 825 575 825 q 585 837 582 834 q 589 845 589 840 q 589 857 589 852 q 590 868 589 861 m 378 978 q 374 1001 378 990 q 356 1007 363 1004 q 338 1012 349 1010 q 329 1002 334 1006 q 319 994 324 998 q 321 981 320 987 q 321 968 321 975 l 339 954 q 365 957 351 955 q 378 978 378 959 m 510 707 q 509 718 510 712 q 509 728 509 723 q 498 736 500 736 q 494 749 496 736 q 488 745 491 747 q 483 743 486 743 q 467 743 472 743 q 453 735 461 742 q 450 722 450 728 q 446 708 449 715 q 456 700 453 704 q 460 688 460 696 l 475 688 q 494 693 486 688 q 510 707 502 699 m 240 983 q 233 1000 240 993 q 218 1010 225 1006 l 210 1010 q 192 1003 202 1010 q 176 989 182 996 l 176 982 q 181 970 176 975 q 190 958 186 964 q 197 956 194 956 q 205 955 201 955 q 229 962 218 955 q 240 983 240 968 m 98 978 q 94 991 98 985 q 88 1004 91 997 q 75 1008 81 1006 q 62 1010 69 1010 q 50 1006 53 1010 q 41 997 47 1002 q 37 982 37 990 q 42 962 37 975 q 60 955 52 955 q 83 962 68 955 q 98 978 98 968 m 453 570 q 450 583 453 578 q 446 595 446 589 q 439 600 444 598 q 433 602 435 601 q 425 604 429 604 l 407 598 q 399 590 403 595 q 392 574 392 581 l 392 563 q 400 554 396 559 q 410 547 404 549 q 422 548 416 547 q 435 552 429 549 q 445 559 441 555 q 453 570 449 564 m 396 444 q 393 456 396 448 l 393 461 q 365 473 378 473 q 349 472 354 473 q 346 464 351 465 q 336 460 340 463 q 334 449 334 452 q 336 437 334 445 q 338 425 335 427 q 347 416 340 423 q 361 416 354 416 q 376 415 369 416 q 389 427 382 420 q 396 444 396 434 m 362 307 q 353 330 354 316 q 339 333 343 330 q 328 336 335 336 q 305 316 309 336 q 297 302 297 312 q 302 282 297 296 q 324 278 315 278 q 346 282 335 278 q 354 294 349 289 q 362 307 359 300 m 346 151 q 341 165 340 159 q 339 179 342 172 q 332 186 336 182 q 324 193 327 190 q 307 188 316 189 q 288 183 297 187 q 284 173 288 176 q 281 163 281 170 q 285 144 281 152 q 315 134 296 134 l 326 134 q 336 143 331 140 q 346 151 340 146 m 340 20 q 336 38 340 30 q 320 47 328 43 q 301 52 312 52 q 289 49 297 52 q 277 11 277 33 q 290 0 283 4 q 302 -8 296 -4 q 326 -4 313 -8 l 339 11 q 340 16 339 14 q 340 20 340 18 "},"8":{"ha":765,"x_min":61,"x_max":703,"o":"m 578 951 q 576 967 578 959 q 571 982 574 975 q 551 984 560 982 q 532 986 543 986 q 518 971 528 974 q 519 959 519 963 q 520 952 519 955 q 524 946 521 949 q 533 936 526 943 q 546 932 543 933 q 560 930 549 930 l 563 936 l 575 939 q 578 951 578 947 m 655 845 q 650 851 652 848 q 644 857 647 854 q 632 861 637 859 q 620 863 627 863 q 600 857 609 863 q 591 837 591 850 q 593 826 591 831 q 597 814 595 821 q 610 808 604 811 q 623 804 616 804 l 632 804 q 640 814 639 811 q 654 821 642 818 q 654 833 652 827 q 655 845 655 838 m 458 996 q 454 1010 458 1004 q 448 1024 450 1017 q 431 1025 439 1024 q 415 1027 423 1027 q 405 1016 408 1021 q 395 1004 401 1010 q 403 981 399 993 q 423 968 407 968 q 440 974 433 968 q 456 985 448 979 q 458 996 458 990 m 666 716 q 656 728 661 723 q 647 739 651 732 q 628 734 636 735 q 615 730 620 732 q 608 721 610 727 q 605 699 605 715 q 616 685 612 692 q 633 678 621 678 q 643 680 639 678 q 652 682 647 682 q 664 697 662 689 q 666 716 666 705 m 339 994 q 336 1010 339 1000 q 322 1021 330 1016 q 305 1028 315 1025 q 296 1021 301 1021 q 283 1016 290 1020 q 280 1004 282 1009 q 278 993 278 1000 q 283 980 278 985 q 293 968 289 975 q 298 968 296 968 q 304 967 301 967 q 323 972 315 967 q 339 982 331 978 l 339 994 m 604 616 q 593 635 604 632 q 571 642 582 637 q 559 640 564 642 q 548 637 555 637 q 545 625 547 631 q 540 612 543 618 q 546 602 544 606 q 552 593 548 597 q 562 588 557 590 q 572 583 567 586 l 597 586 q 597 597 595 594 q 600 603 598 601 q 602 607 601 605 q 604 616 604 609 m 220 902 q 211 912 216 907 q 201 924 206 917 l 190 924 q 174 921 184 924 q 160 906 168 917 q 161 890 160 898 q 163 873 161 882 q 186 868 172 868 q 201 871 197 868 q 214 876 206 873 l 220 902 m 597 490 q 593 500 597 495 q 586 509 589 505 l 571 515 q 562 515 567 515 q 553 517 557 515 q 538 503 541 513 q 534 483 534 494 q 542 473 538 476 q 548 464 545 471 q 557 463 551 463 q 569 463 564 463 q 581 464 574 464 q 593 474 589 469 q 597 490 597 479 m 697 387 q 688 397 690 392 q 684 405 686 401 q 677 410 682 408 q 661 412 673 412 q 635 387 635 412 q 640 367 635 378 q 655 355 644 355 q 668 357 662 355 q 681 361 674 359 q 690 374 688 368 q 697 387 693 380 m 461 570 q 445 581 450 574 q 425 587 439 587 q 415 584 419 587 q 404 581 411 581 q 401 570 403 575 q 400 560 400 566 l 400 544 l 419 526 q 439 532 434 532 q 460 543 445 532 q 461 570 457 553 m 703 248 q 700 258 701 254 q 697 269 699 263 q 674 275 686 275 q 643 260 655 275 q 642 256 643 258 q 642 251 642 254 q 648 233 642 240 q 661 220 654 227 q 677 224 669 224 q 696 229 686 224 l 703 248 m 191 734 q 189 746 191 738 q 184 758 186 754 q 170 761 176 758 q 156 764 163 764 l 148 764 q 137 753 142 757 q 127 742 132 749 l 130 736 q 130 724 130 730 q 133 711 130 718 q 146 709 140 711 q 160 707 153 707 q 180 715 168 707 q 191 734 191 724 m 349 525 l 349 532 q 345 543 349 538 q 338 553 340 548 q 326 556 331 553 q 315 559 321 559 q 304 556 309 559 q 295 542 300 549 q 290 526 290 534 q 291 520 290 524 q 292 514 292 517 q 304 506 298 509 q 320 503 311 503 q 337 511 331 503 q 349 525 343 518 m 251 589 q 241 610 251 598 q 225 614 233 614 q 198 605 212 614 q 199 602 198 604 q 199 598 199 601 q 194 583 194 590 q 196 575 194 579 q 199 567 198 571 q 221 557 209 557 q 233 560 228 557 q 245 563 239 563 q 248 576 245 570 q 251 589 251 582 m 644 114 q 640 127 644 123 q 636 141 636 132 l 616 141 q 600 140 609 141 q 586 132 591 138 q 579 109 586 117 q 589 100 585 104 q 600 96 593 96 q 621 87 608 87 q 636 98 628 94 q 644 114 644 103 m 216 463 q 211 476 216 471 q 201 487 206 481 q 185 488 193 487 q 170 491 178 490 q 162 477 167 487 q 157 463 157 467 q 170 448 157 457 q 187 438 182 438 q 197 439 193 438 q 208 439 202 439 q 212 453 208 450 q 216 463 216 456 m 548 12 q 537 27 548 19 q 519 35 526 35 q 509 33 514 35 q 499 30 505 31 q 493 15 496 22 q 488 0 490 8 q 500 -11 494 -9 q 515 -18 507 -12 q 544 -8 528 -18 q 546 2 544 -3 q 548 12 548 7 m 134 347 q 122 362 134 357 l 113 372 q 103 369 110 372 q 90 363 96 366 q 77 355 83 359 q 72 347 72 351 q 73 342 72 345 q 76 336 75 339 q 88 321 77 324 q 107 313 99 317 l 132 327 q 133 337 132 332 q 134 347 134 342 m 412 0 q 406 18 408 9 q 396 34 403 27 q 388 33 392 34 q 380 33 384 33 l 369 33 l 361 24 q 353 15 355 22 q 347 3 350 8 q 355 -8 353 -3 q 361 -18 357 -14 q 371 -19 366 -18 q 381 -20 376 -20 q 399 -14 392 -20 q 412 0 406 -7 m 126 214 q 121 229 125 222 q 111 240 117 235 q 98 241 104 240 q 85 241 92 241 l 73 241 q 66 224 69 233 q 61 208 64 216 q 70 197 66 202 q 75 184 73 193 q 85 184 81 186 q 96 183 90 183 q 115 195 109 183 q 126 214 122 206 m 270 23 q 260 37 263 30 q 252 52 256 45 q 245 52 250 52 q 239 53 241 53 q 225 50 232 53 q 212 43 218 46 q 214 24 212 33 q 220 5 216 16 q 232 -1 225 0 q 245 -4 239 -3 q 258 7 252 5 q 270 23 263 9 m 164 81 q 161 96 164 88 q 155 110 157 103 q 142 111 148 110 q 130 113 137 113 q 113 107 123 113 q 110 98 113 102 q 107 88 107 94 q 109 79 107 83 q 110 69 110 75 q 138 58 121 61 q 149 64 144 64 q 160 68 153 65 q 164 81 164 73 "},"9":{"ha":815,"x_min":76,"x_max":741,"o":"m 555 955 q 548 963 549 960 q 549 970 548 967 q 549 978 549 974 l 530 997 l 524 997 q 500 988 513 997 q 488 968 488 979 q 490 960 488 964 q 492 952 491 956 q 507 944 500 949 q 524 939 514 939 q 529 939 526 939 q 534 940 532 940 q 540 947 538 945 q 542 951 541 949 q 545 953 543 952 q 555 955 547 954 m 663 857 q 652 868 659 865 q 636 871 644 871 q 605 867 621 871 q 603 858 605 861 q 598 852 601 854 q 591 846 594 848 q 593 841 591 844 q 595 836 594 838 q 597 831 595 833 q 602 823 595 830 q 609 819 605 821 q 614 818 610 818 l 628 818 q 637 820 633 818 q 646 822 640 822 q 656 839 654 830 q 663 857 658 848 m 412 1001 q 408 1015 412 1008 q 401 1029 404 1023 q 389 1033 395 1031 q 378 1035 384 1035 q 368 1029 372 1032 q 358 1021 363 1025 q 352 1003 353 1013 q 351 982 351 993 q 363 979 358 982 q 376 977 369 977 q 399 982 387 977 q 412 1001 412 987 m 705 666 q 704 680 705 673 q 700 694 703 688 q 684 701 689 694 q 669 696 675 700 q 654 693 662 693 q 648 681 651 685 q 644 666 646 677 q 660 646 650 650 q 686 640 670 642 q 694 647 690 643 q 703 654 699 651 q 705 666 705 662 m 741 510 l 727 538 q 714 541 720 541 q 701 541 708 541 q 690 536 697 541 q 681 528 684 530 q 677 515 677 521 q 683 500 677 509 q 694 488 689 492 q 707 484 700 484 q 720 483 713 484 q 732 495 728 488 q 741 510 735 502 m 270 954 q 269 962 270 958 q 269 971 269 967 q 244 981 259 981 q 234 980 239 981 q 224 979 229 979 q 214 964 217 972 q 208 948 210 956 q 218 937 213 941 q 231 929 224 933 q 239 926 236 926 q 255 932 248 926 q 270 941 262 937 l 270 954 m 617 468 q 614 481 617 473 q 582 492 604 492 q 572 487 578 487 q 562 487 567 487 q 555 465 555 476 q 559 449 555 457 q 568 444 563 445 q 578 442 572 444 q 590 437 582 437 q 602 440 597 437 q 613 446 608 444 q 615 457 613 453 q 617 468 617 461 m 718 340 l 703 362 q 689 366 696 365 q 675 369 682 368 q 666 361 673 363 q 655 355 659 358 q 652 336 652 345 l 652 326 q 665 317 661 321 q 678 313 670 313 q 690 315 685 313 q 700 319 694 316 q 718 340 709 328 m 146 833 q 139 848 146 841 q 126 861 132 854 l 117 861 q 88 837 98 861 q 87 833 88 834 q 87 829 87 831 q 93 815 87 821 q 104 804 99 810 q 122 808 113 808 q 142 814 132 807 q 144 823 142 819 q 146 833 146 827 m 469 401 q 456 433 463 418 q 445 432 449 431 q 435 433 441 433 q 416 427 425 433 q 401 415 408 422 q 405 396 403 404 q 414 381 407 388 q 425 380 419 381 q 435 380 430 380 q 460 384 448 380 q 463 393 463 392 q 462 397 463 396 q 461 400 461 399 q 465 401 464 400 q 469 401 467 401 m 659 193 q 648 205 652 198 q 632 213 643 213 q 612 206 621 213 q 595 194 604 199 q 598 183 598 186 q 598 173 598 176 q 601 163 598 170 q 615 156 608 160 q 631 152 623 152 q 653 165 650 152 q 659 193 656 179 m 123 648 q 130 655 127 651 q 136 663 136 661 q 138 677 138 669 q 123 692 130 688 q 100 697 115 697 l 85 697 q 82 688 85 690 q 76 680 79 686 q 79 669 76 675 q 84 656 81 663 q 92 643 88 650 l 123 648 m 294 426 q 288 449 294 438 q 267 460 281 460 q 255 456 260 460 q 247 453 250 453 l 240 453 q 235 444 235 448 q 235 437 235 438 q 233 429 236 435 q 244 409 237 416 q 266 401 251 401 q 271 402 269 401 q 275 403 273 403 q 281 399 278 400 q 290 411 286 406 q 294 426 294 416 m 180 524 q 174 545 180 534 q 155 556 167 556 q 141 552 148 556 q 127 545 134 548 q 125 534 127 538 q 123 524 123 530 l 136 499 q 148 497 142 499 q 160 495 153 495 q 168 501 165 499 q 178 503 171 503 q 180 524 180 517 m 581 68 q 575 80 581 72 q 567 91 570 88 q 551 94 556 94 q 517 61 521 94 l 534 35 q 537 37 536 35 q 541 39 540 39 q 547 39 544 39 q 555 38 551 38 q 573 47 566 38 q 581 68 581 57 m 431 -8 q 430 9 431 4 q 419 18 425 15 q 408 24 414 20 l 397 18 q 376 7 385 16 q 375 1 376 4 q 374 -4 374 -1 q 376 -16 374 -11 q 381 -27 378 -20 q 403 -37 391 -37 q 415 -34 410 -37 q 426 -28 420 -31 q 431 -8 431 -15 m 323 -14 q 321 -1 323 -7 q 319 12 320 5 q 311 12 315 12 q 307 18 307 11 q 291 20 298 20 q 275 20 283 20 q 267 9 273 11 q 262 -7 262 7 q 273 -34 262 -24 q 296 -31 283 -33 q 320 -27 308 -30 q 323 -14 323 -19 m 194 49 l 186 69 q 174 75 179 72 q 164 80 170 77 q 142 71 153 80 q 130 50 130 62 q 136 34 130 43 q 148 19 142 24 q 151 20 149 19 q 152 21 152 20 q 153 22 152 22 q 157 21 156 22 q 161 20 159 20 q 181 31 171 20 q 194 49 191 42 "},"Ð":{"ha":1080,"x_min":-104,"x_max":1002,"o":"m 848 916 q 831 924 837 920 q 812 929 825 929 q 794 919 800 929 q 788 898 788 909 q 789 890 788 894 q 789 883 789 887 q 801 877 796 880 q 812 873 806 873 q 828 881 819 873 q 844 891 837 888 q 844 904 844 899 q 848 916 844 909 m 939 800 q 931 818 939 811 q 917 831 924 825 q 893 819 899 831 q 880 793 887 807 q 892 781 886 787 q 907 776 899 776 q 926 785 917 776 q 939 800 935 793 m 720 956 q 710 976 720 970 q 689 985 700 982 q 679 979 680 982 q 669 974 678 975 q 667 966 667 970 q 666 959 666 963 q 673 939 666 948 q 692 930 680 930 q 719 944 705 930 q 720 950 719 947 q 720 956 720 954 m 972 684 l 972 699 q 962 707 968 704 q 954 716 956 709 q 939 713 943 716 q 925 705 935 711 q 922 696 924 700 q 921 685 921 692 q 922 675 921 680 q 924 666 922 671 l 951 659 q 961 661 956 659 q 970 663 966 662 q 972 684 972 677 m 594 978 q 593 984 594 981 q 590 990 591 987 l 590 998 q 578 1002 583 1000 q 566 1004 572 1004 l 555 1004 l 537 987 q 546 962 538 968 q 572 952 553 955 q 581 960 576 956 q 591 968 586 964 q 594 978 594 974 m 1002 563 q 1000 572 1002 564 q 987 577 993 575 q 975 579 982 579 q 962 576 970 579 q 952 553 952 567 q 958 533 952 543 q 975 524 963 524 q 988 528 982 524 q 1000 536 994 532 q 998 545 998 540 q 1000 553 998 549 q 1002 563 1002 557 m 461 990 q 454 1004 458 998 q 439 1010 450 1010 q 425 1008 433 1010 q 411 1002 418 1005 q 408 990 408 994 q 415 970 408 975 q 434 959 422 964 q 453 969 450 960 q 461 990 456 978 m 1001 418 l 996 434 q 985 441 989 437 q 978 449 982 445 l 945 435 l 945 427 q 941 415 945 419 q 954 401 944 410 q 970 392 964 392 q 985 396 977 392 q 1001 418 1000 406 m 340 971 q 339 984 339 978 q 334 996 339 990 q 321 1002 327 998 q 308 1005 316 1005 q 288 998 297 1005 q 279 981 279 991 q 286 962 279 972 q 302 952 293 952 q 311 953 307 952 q 319 954 315 954 q 330 963 326 958 q 340 971 334 968 m 981 301 q 977 316 981 309 l 954 335 q 941 321 951 326 q 924 311 930 317 q 921 292 924 298 q 930 284 926 286 q 935 275 933 282 q 951 270 945 270 q 972 279 963 270 q 981 301 981 289 m 194 974 q 168 1000 194 1000 q 149 992 159 1000 q 138 974 138 985 q 155 954 138 963 q 182 944 172 945 q 188 959 182 955 q 194 974 194 963 m 930 174 q 921 186 926 180 q 909 199 916 193 l 903 199 q 892 197 897 199 q 884 194 887 194 l 875 194 q 874 180 875 186 q 868 167 873 174 q 882 149 875 157 q 899 141 888 141 q 920 152 914 141 q 930 174 925 163 m 198 852 q 174 867 189 867 q 160 863 165 867 q 148 857 155 860 q 142 841 142 850 q 149 821 142 830 q 167 812 156 812 q 182 817 175 812 q 198 823 190 822 q 197 838 197 830 q 198 852 198 845 m 419 522 q 407 539 414 533 q 388 545 400 545 l 381 545 l 366 533 q 363 524 363 528 q 368 505 363 514 q 379 496 373 499 q 392 491 385 494 q 410 503 407 495 q 419 522 412 510 m 190 699 q 189 704 190 701 q 190 709 189 707 q 180 722 187 716 q 167 731 172 727 q 153 728 157 731 q 140 722 148 724 l 129 700 q 141 682 133 689 q 161 674 149 674 q 178 684 167 677 q 190 699 190 692 m 817 84 q 804 98 808 92 q 787 103 799 103 q 770 92 776 103 q 760 75 764 81 l 765 54 q 774 49 769 50 q 785 45 779 47 q 792 46 789 45 q 799 49 795 47 l 807 49 q 817 84 817 68 m 296 517 q 286 532 296 525 q 269 538 275 538 q 246 532 258 538 q 235 514 235 526 q 241 494 235 505 q 259 483 248 483 q 267 484 263 483 q 277 484 271 484 q 285 494 282 488 q 294 503 288 500 q 295 510 294 506 q 296 517 296 514 m 202 581 l 202 593 q 186 598 191 593 q 172 604 182 604 q 153 595 159 604 q 146 575 146 586 q 161 548 146 560 l 167 548 q 180 549 174 548 q 194 553 187 551 q 199 566 195 563 q 202 581 202 570 m 673 31 q 662 43 663 34 q 640 53 654 53 q 613 39 624 53 q 612 32 613 35 q 612 26 612 28 q 615 13 612 19 q 621 0 618 7 q 629 -1 625 0 q 639 -1 633 -1 q 658 3 650 -1 l 673 31 m 186 446 q 182 459 193 456 q 161 465 172 463 q 149 460 155 463 q 137 454 144 458 q 133 433 133 444 q 140 412 133 419 q 160 407 153 407 q 180 416 171 407 q 189 435 189 426 q 186 446 189 438 m 98 517 q 87 532 98 525 q 69 538 76 538 q 48 532 58 538 q 38 513 38 525 q 45 494 38 505 q 61 483 52 483 q 69 484 65 483 q 79 484 73 484 q 87 494 84 488 q 96 503 90 500 q 97 509 96 506 q 98 517 98 513 m 490 23 q 483 35 486 28 q 476 46 480 41 q 465 47 471 46 q 454 45 460 47 q 441 33 448 39 q 434 19 434 27 q 441 0 434 11 q 457 -11 449 -11 q 471 -7 463 -11 q 484 -1 479 -3 q 487 12 484 9 q 490 23 490 14 m 203 289 q 193 304 195 296 q 176 312 190 312 q 161 308 168 312 q 148 298 155 304 q 148 279 149 288 q 157 264 146 271 q 164 260 160 262 q 171 256 168 259 q 203 289 195 262 m -47 506 q -73 532 -47 532 q -94 524 -83 532 q -104 506 -104 517 q -89 488 -104 495 q -65 479 -73 480 q -53 490 -58 486 q -47 506 -47 495 m 357 24 q 340 41 347 37 q 317 49 332 45 q 305 35 313 41 q 297 19 297 28 q 305 -3 297 7 q 326 -12 313 -12 q 332 -11 328 -12 q 338 -8 335 -9 l 346 -8 q 351 9 347 1 q 357 24 355 16 m 198 157 l 198 171 q 171 182 187 182 q 162 182 167 182 q 153 180 157 182 q 146 169 149 174 q 140 157 142 164 q 145 144 144 151 q 152 132 146 138 q 161 129 157 129 q 174 133 168 129 q 186 142 180 137 q 198 157 198 142 m 179 24 q 170 40 179 31 q 153 49 160 49 q 146 47 149 49 q 138 45 142 46 q 127 38 132 43 q 119 27 123 33 q 123 14 123 22 q 131 2 125 7 q 140 -9 137 -3 l 148 -9 q 158 -7 153 -9 q 170 -5 163 -5 q 176 9 172 4 q 179 24 179 15 "},"ð":{"ha":1080,"x_min":-104,"x_max":1002,"o":"m 848 916 q 831 924 837 920 q 812 929 825 929 q 794 919 800 929 q 788 898 788 909 q 789 890 788 894 q 789 883 789 887 q 801 877 796 880 q 812 873 806 873 q 828 881 819 873 q 844 891 837 888 q 844 904 844 899 q 848 916 844 909 m 939 800 q 931 818 939 811 q 917 831 924 825 q 893 819 899 831 q 880 793 887 807 q 892 781 886 787 q 907 776 899 776 q 926 785 917 776 q 939 800 935 793 m 720 956 q 710 976 720 970 q 689 985 700 982 q 679 979 680 982 q 669 974 678 975 q 667 966 667 970 q 666 959 666 963 q 673 939 666 948 q 692 930 680 930 q 719 944 705 930 q 720 950 719 947 q 720 956 720 954 m 972 684 l 972 699 q 962 707 968 704 q 954 716 956 709 q 939 713 943 716 q 925 705 935 711 q 922 696 924 700 q 921 685 921 692 q 922 675 921 680 q 924 666 922 671 l 951 659 q 961 661 956 659 q 970 663 966 662 q 972 684 972 677 m 594 978 q 593 984 594 981 q 590 990 591 987 l 590 998 q 578 1002 583 1000 q 566 1004 572 1004 l 555 1004 l 537 987 q 546 962 538 968 q 572 952 553 955 q 581 960 576 956 q 591 968 586 964 q 594 978 594 974 m 1002 563 q 1000 572 1002 564 q 987 577 993 575 q 975 579 982 579 q 962 576 970 579 q 952 553 952 567 q 958 533 952 543 q 975 524 963 524 q 988 528 982 524 q 1000 536 994 532 q 998 545 998 540 q 1000 553 998 549 q 1002 563 1002 557 m 461 990 q 454 1004 458 998 q 439 1010 450 1010 q 425 1008 433 1010 q 411 1002 418 1005 q 408 990 408 994 q 415 970 408 975 q 434 959 422 964 q 453 969 450 960 q 461 990 456 978 m 1001 418 l 996 434 q 985 441 989 437 q 978 449 982 445 l 945 435 l 945 427 q 941 415 945 419 q 954 401 944 410 q 970 392 964 392 q 985 396 977 392 q 1001 418 1000 406 m 340 971 q 339 984 339 978 q 334 996 339 990 q 321 1002 327 998 q 308 1005 316 1005 q 288 998 297 1005 q 279 981 279 991 q 286 962 279 972 q 302 952 293 952 q 311 953 307 952 q 319 954 315 954 q 330 963 326 958 q 340 971 334 968 m 981 301 q 977 316 981 309 l 954 335 q 941 321 951 326 q 924 311 930 317 q 921 292 924 298 q 930 284 926 286 q 935 275 933 282 q 951 270 945 270 q 972 279 963 270 q 981 301 981 289 m 194 974 q 168 1000 194 1000 q 149 992 159 1000 q 138 974 138 985 q 155 954 138 963 q 182 944 172 945 q 188 959 182 955 q 194 974 194 963 m 930 174 q 921 186 926 180 q 909 199 916 193 l 903 199 q 892 197 897 199 q 884 194 887 194 l 875 194 q 874 180 875 186 q 868 167 873 174 q 882 149 875 157 q 899 141 888 141 q 920 152 914 141 q 930 174 925 163 m 198 852 q 174 867 189 867 q 160 863 165 867 q 148 857 155 860 q 142 841 142 850 q 149 821 142 830 q 167 812 156 812 q 182 817 175 812 q 198 823 190 822 q 197 838 197 830 q 198 852 198 845 m 419 522 q 407 539 414 533 q 388 545 400 545 l 381 545 l 366 533 q 363 524 363 528 q 368 505 363 514 q 379 496 373 499 q 392 491 385 494 q 410 503 407 495 q 419 522 412 510 m 190 699 q 189 704 190 701 q 190 709 189 707 q 180 722 187 716 q 167 731 172 727 q 153 728 157 731 q 140 722 148 724 l 129 700 q 141 682 133 689 q 161 674 149 674 q 178 684 167 677 q 190 699 190 692 m 817 84 q 804 98 808 92 q 787 103 799 103 q 770 92 776 103 q 760 75 764 81 l 765 54 q 774 49 769 50 q 785 45 779 47 q 792 46 789 45 q 799 49 795 47 l 807 49 q 817 84 817 68 m 296 517 q 286 532 296 525 q 269 538 275 538 q 246 532 258 538 q 235 514 235 526 q 241 494 235 505 q 259 483 248 483 q 267 484 263 483 q 277 484 271 484 q 285 494 282 488 q 294 503 288 500 q 295 510 294 506 q 296 517 296 514 m 202 581 l 202 593 q 186 598 191 593 q 172 604 182 604 q 153 595 159 604 q 146 575 146 586 q 161 548 146 560 l 167 548 q 180 549 174 548 q 194 553 187 551 q 199 566 195 563 q 202 581 202 570 m 673 31 q 662 43 663 34 q 640 53 654 53 q 613 39 624 53 q 612 32 613 35 q 612 26 612 28 q 615 13 612 19 q 621 0 618 7 q 629 -1 625 0 q 639 -1 633 -1 q 658 3 650 -1 l 673 31 m 186 446 q 182 459 193 456 q 161 465 172 463 q 149 460 155 463 q 137 454 144 458 q 133 433 133 444 q 140 412 133 419 q 160 407 153 407 q 180 416 171 407 q 189 435 189 426 q 186 446 189 438 m 98 517 q 87 532 98 525 q 69 538 76 538 q 48 532 58 538 q 38 513 38 525 q 45 494 38 505 q 61 483 52 483 q 69 484 65 483 q 79 484 73 484 q 87 494 84 488 q 96 503 90 500 q 97 509 96 506 q 98 517 98 513 m 490 23 q 483 35 486 28 q 476 46 480 41 q 465 47 471 46 q 454 45 460 47 q 441 33 448 39 q 434 19 434 27 q 441 0 434 11 q 457 -11 449 -11 q 471 -7 463 -11 q 484 -1 479 -3 q 487 12 484 9 q 490 23 490 14 m 203 289 q 193 304 195 296 q 176 312 190 312 q 161 308 168 312 q 148 298 155 304 q 148 279 149 288 q 157 264 146 271 q 164 260 160 262 q 171 256 168 259 q 203 289 195 262 m -47 506 q -73 532 -47 532 q -94 524 -83 532 q -104 506 -104 517 q -89 488 -104 495 q -65 479 -73 480 q -53 490 -58 486 q -47 506 -47 495 m 357 24 q 340 41 347 37 q 317 49 332 45 q 305 35 313 41 q 297 19 297 28 q 305 -3 297 7 q 326 -12 313 -12 q 332 -11 328 -12 q 338 -8 335 -9 l 346 -8 q 351 9 347 1 q 357 24 355 16 m 198 157 l 198 171 q 171 182 187 182 q 162 182 167 182 q 153 180 157 182 q 146 169 149 174 q 140 157 142 164 q 145 144 144 151 q 152 132 146 138 q 161 129 157 129 q 174 133 168 129 q 186 142 180 137 q 198 157 198 142 m 179 24 q 170 40 179 31 q 153 49 160 49 q 146 47 149 49 q 138 45 142 46 q 127 38 132 43 q 119 27 123 33 q 123 14 123 22 q 131 2 125 7 q 140 -9 137 -3 l 148 -9 q 158 -7 153 -9 q 170 -5 163 -5 q 176 9 172 4 q 179 24 179 15 "},"Ł":{"ha":825,"x_min":-104,"x_max":799,"o":"m 180 989 q 180 997 180 993 q 178 1006 179 1001 q 172 1014 175 1008 q 165 1024 168 1020 q 139 1015 155 1021 q 123 993 123 1008 q 125 983 123 987 q 129 974 126 979 q 142 966 136 970 q 155 963 148 963 q 172 970 164 963 q 180 989 180 978 m 400 635 q 390 660 399 651 q 366 675 381 669 q 349 663 355 670 q 342 644 342 656 q 348 623 342 633 q 368 612 354 612 q 386 619 382 612 q 400 635 389 627 m 178 842 q 176 850 178 845 q 175 857 175 854 l 175 864 q 163 877 168 871 q 146 883 159 883 q 126 871 132 883 q 122 844 121 860 q 130 830 122 838 q 142 822 138 822 q 162 828 157 822 q 178 842 167 834 m 292 598 q 289 611 292 605 q 283 623 286 617 q 273 633 277 629 q 258 637 269 636 q 246 631 251 635 q 236 624 241 627 q 232 602 236 612 q 273 571 240 571 q 290 581 281 579 q 291 589 290 585 q 292 598 292 594 m 187 715 q 169 728 176 720 q 148 735 161 735 q 135 732 138 735 q 127 722 132 728 q 120 705 117 715 q 129 681 123 696 q 145 679 137 680 q 161 678 153 678 q 176 695 171 685 q 187 715 180 705 m 799 11 q 788 33 789 22 q 777 35 781 33 q 765 38 772 38 q 758 37 761 38 q 751 37 754 37 q 742 26 747 33 q 736 12 736 19 q 741 -2 736 5 q 749 -16 745 -9 q 759 -18 754 -16 q 769 -20 764 -20 q 787 -9 779 -20 q 799 11 796 3 m 175 576 q 168 583 170 578 q 165 591 167 587 q 152 594 157 594 q 135 589 142 594 q 121 578 127 585 l 121 568 q 123 558 121 563 q 127 548 125 553 q 163 538 146 538 q 173 557 171 552 q 175 576 175 562 m 688 -5 q 685 5 685 3 l 685 20 q 676 35 681 27 q 662 42 671 42 q 636 30 648 42 q 629 4 631 15 q 665 -16 640 -14 q 675 -9 673 -11 q 688 -5 677 -8 m 182 425 q 174 446 182 435 l 148 460 q 138 449 145 452 q 125 441 132 446 q 124 435 125 438 q 123 429 123 431 q 129 409 123 418 q 141 393 134 400 q 159 396 151 395 q 175 400 167 397 q 178 412 175 407 q 182 425 182 418 m 72 528 q 60 551 71 545 q 35 563 49 556 q 24 553 30 557 q 14 541 19 548 q 20 510 14 526 q 33 505 27 507 q 45 502 38 502 q 62 510 57 502 q 72 528 68 518 m 574 12 q 568 28 574 20 q 557 43 562 37 q 550 40 555 42 q 543 38 545 38 q 530 41 538 38 q 524 23 528 30 q 521 7 521 16 q 530 -11 521 -5 q 549 -16 538 -16 q 561 -13 556 -16 q 571 -7 566 -9 q 572 3 571 -1 q 574 12 574 7 m 453 16 q 452 28 453 23 q 448 39 450 33 q 431 42 437 42 q 412 37 420 42 q 396 24 403 31 l 396 15 q 398 2 395 8 q 406 -11 401 -4 l 434 -18 q 439 -9 434 -11 q 449 -3 445 -7 q 452 7 450 3 q 453 16 453 11 m 182 298 q 168 304 175 298 q 155 313 161 311 q 142 307 149 308 q 129 305 136 307 q 124 293 127 298 q 121 281 121 288 l 121 273 q 134 260 129 270 q 153 251 138 251 q 168 256 161 251 q 179 266 174 260 q 181 282 180 274 q 182 298 182 290 m -46 487 q -56 508 -46 502 q -76 522 -66 514 q -96 508 -87 515 q -104 486 -104 500 q -96 475 -99 481 q -88 464 -94 469 l -71 464 q -46 471 -60 464 l -46 487 m 323 12 q 318 28 323 22 q 309 41 313 34 l 297 41 q 287 39 292 41 q 278 38 282 38 q 267 16 267 30 q 275 -5 267 5 q 294 -15 283 -15 q 309 -9 304 -15 q 321 1 315 -4 q 322 7 321 4 q 323 12 323 9 m 182 129 q 175 150 178 140 q 160 167 172 160 q 145 163 151 167 q 133 155 140 160 q 124 142 125 152 q 123 126 123 133 q 134 113 126 118 q 151 107 142 107 q 168 115 161 107 q 182 129 175 122 m 175 -14 q 174 3 175 -5 q 174 20 174 12 q 158 29 165 27 q 140 34 151 31 q 127 20 134 27 q 121 4 121 14 q 128 -16 121 -7 q 146 -26 136 -26 q 161 -21 155 -26 q 175 -14 168 -16 "},"ł":{"ha":825,"x_min":-104,"x_max":799,"o":"m 180 989 q 180 997 180 993 q 178 1006 179 1001 q 172 1014 175 1008 q 165 1024 168 1020 q 139 1015 155 1021 q 123 993 123 1008 q 125 983 123 987 q 129 974 126 979 q 142 966 136 970 q 155 963 148 963 q 172 970 164 963 q 180 989 180 978 m 400 635 q 390 660 399 651 q 366 675 381 669 q 349 663 355 670 q 342 644 342 656 q 348 623 342 633 q 368 612 354 612 q 386 619 382 612 q 400 635 389 627 m 178 842 q 176 850 178 845 q 175 857 175 854 l 175 864 q 163 877 168 871 q 146 883 159 883 q 126 871 132 883 q 122 844 121 860 q 130 830 122 838 q 142 822 138 822 q 162 828 157 822 q 178 842 167 834 m 292 598 q 289 611 292 605 q 283 623 286 617 q 273 633 277 629 q 258 637 269 636 q 246 631 251 635 q 236 624 241 627 q 232 602 236 612 q 273 571 240 571 q 290 581 281 579 q 291 589 290 585 q 292 598 292 594 m 187 715 q 169 728 176 720 q 148 735 161 735 q 135 732 138 735 q 127 722 132 728 q 120 705 117 715 q 129 681 123 696 q 145 679 137 680 q 161 678 153 678 q 176 695 171 685 q 187 715 180 705 m 799 11 q 788 33 789 22 q 777 35 781 33 q 765 38 772 38 q 758 37 761 38 q 751 37 754 37 q 742 26 747 33 q 736 12 736 19 q 741 -2 736 5 q 749 -16 745 -9 q 759 -18 754 -16 q 769 -20 764 -20 q 787 -9 779 -20 q 799 11 796 3 m 175 576 q 168 583 170 578 q 165 591 167 587 q 152 594 157 594 q 135 589 142 594 q 121 578 127 585 l 121 568 q 123 558 121 563 q 127 548 125 553 q 163 538 146 538 q 173 557 171 552 q 175 576 175 562 m 688 -5 q 685 5 685 3 l 685 20 q 676 35 681 27 q 662 42 671 42 q 636 30 648 42 q 629 4 631 15 q 665 -16 640 -14 q 675 -9 673 -11 q 688 -5 677 -8 m 182 425 q 174 446 182 435 l 148 460 q 138 449 145 452 q 125 441 132 446 q 124 435 125 438 q 123 429 123 431 q 129 409 123 418 q 141 393 134 400 q 159 396 151 395 q 175 400 167 397 q 178 412 175 407 q 182 425 182 418 m 72 528 q 60 551 71 545 q 35 563 49 556 q 24 553 30 557 q 14 541 19 548 q 20 510 14 526 q 33 505 27 507 q 45 502 38 502 q 62 510 57 502 q 72 528 68 518 m 574 12 q 568 28 574 20 q 557 43 562 37 q 550 40 555 42 q 543 38 545 38 q 530 41 538 38 q 524 23 528 30 q 521 7 521 16 q 530 -11 521 -5 q 549 -16 538 -16 q 561 -13 556 -16 q 571 -7 566 -9 q 572 3 571 -1 q 574 12 574 7 m 453 16 q 452 28 453 23 q 448 39 450 33 q 431 42 437 42 q 412 37 420 42 q 396 24 403 31 l 396 15 q 398 2 395 8 q 406 -11 401 -4 l 434 -18 q 439 -9 434 -11 q 449 -3 445 -7 q 452 7 450 3 q 453 16 453 11 m 182 298 q 168 304 175 298 q 155 313 161 311 q 142 307 149 308 q 129 305 136 307 q 124 293 127 298 q 121 281 121 288 l 121 273 q 134 260 129 270 q 153 251 138 251 q 168 256 161 251 q 179 266 174 260 q 181 282 180 274 q 182 298 182 290 m -46 487 q -56 508 -46 502 q -76 522 -66 514 q -96 508 -87 515 q -104 486 -104 500 q -96 475 -99 481 q -88 464 -94 469 l -71 464 q -46 471 -60 464 l -46 487 m 323 12 q 318 28 323 22 q 309 41 313 34 l 297 41 q 287 39 292 41 q 278 38 282 38 q 267 16 267 30 q 275 -5 267 5 q 294 -15 283 -15 q 309 -9 304 -15 q 321 1 315 -4 q 322 7 321 4 q 323 12 323 9 m 182 129 q 175 150 178 140 q 160 167 172 160 q 145 163 151 167 q 133 155 140 160 q 124 142 125 152 q 123 126 123 133 q 134 113 126 118 q 151 107 142 107 q 168 115 161 107 q 182 129 175 122 m 175 -14 q 174 3 175 -5 q 174 20 174 12 q 158 29 165 27 q 140 34 151 31 q 127 20 134 27 q 121 4 121 14 q 128 -16 121 -7 q 146 -26 136 -26 q 161 -21 155 -26 q 175 -14 168 -16 "},"Š":{"ha":785,"x_min":61,"x_max":722,"o":"m 631 909 q 628 921 631 913 l 604 936 l 583 935 q 576 922 581 928 q 571 909 571 917 q 601 879 571 879 q 624 884 610 879 q 628 897 625 891 q 631 909 631 902 m 712 825 l 712 829 q 699 845 707 838 q 681 852 692 852 q 665 846 669 852 q 650 841 661 841 l 650 807 q 661 803 656 807 q 669 793 665 799 q 672 795 671 795 q 675 798 673 796 q 689 800 685 798 q 700 802 697 802 q 709 810 703 803 q 709 817 707 817 q 712 825 712 818 m 534 979 l 534 990 q 521 998 528 993 q 506 1004 514 1004 q 486 995 498 1004 q 475 977 475 986 q 476 967 475 971 q 477 958 477 963 q 492 951 484 955 q 507 948 499 948 q 521 951 510 948 q 530 964 526 956 q 534 979 534 971 m 412 993 q 401 1008 404 1000 q 391 1024 397 1017 q 378 1027 382 1027 q 359 1022 368 1027 q 343 1010 351 1017 l 351 977 l 384 971 q 398 983 391 978 q 412 993 406 987 m 273 971 q 268 987 273 981 q 258 1000 263 994 q 248 1001 255 1001 q 227 992 235 1001 q 212 972 218 983 q 219 961 217 964 q 221 947 221 958 l 229 947 q 237 949 233 947 q 243 951 240 951 q 257 954 254 952 q 270 962 260 955 q 273 971 273 967 m 640 433 l 640 442 q 632 456 635 445 l 616 468 l 598 465 l 581 452 q 578 437 578 444 l 578 425 q 595 411 585 414 q 616 404 605 408 q 631 416 623 411 q 640 433 640 422 m 161 879 q 157 892 157 884 q 157 909 157 899 q 144 918 156 918 q 136 917 138 918 l 125 928 q 107 916 115 924 q 99 897 99 907 q 106 881 99 887 q 121 869 113 875 q 141 873 134 872 q 161 879 148 873 m 722 300 q 713 320 722 312 q 696 335 705 328 q 683 330 689 331 q 670 327 677 330 q 665 315 670 320 q 661 302 661 311 q 665 292 661 300 q 673 283 665 286 q 684 278 681 279 q 694 275 689 275 q 701 276 697 275 q 707 277 704 277 q 714 283 711 279 q 720 290 718 288 q 722 300 722 293 m 492 505 q 488 516 492 514 q 480 525 483 518 q 464 530 472 530 q 437 521 450 530 q 434 511 435 515 q 433 500 433 506 q 435 493 433 496 q 439 487 437 490 l 435 480 q 449 474 442 477 q 463 471 456 471 q 476 475 469 471 q 490 483 483 480 q 491 494 490 488 q 492 505 492 499 m 345 540 q 332 555 336 555 q 316 564 328 556 l 309 564 q 301 563 305 564 q 293 560 297 562 q 286 536 286 552 q 292 515 286 525 q 313 510 305 510 q 334 514 323 510 q 345 540 342 525 m 129 755 q 110 767 118 762 q 90 773 102 772 q 77 762 83 765 q 71 747 71 760 q 79 726 71 735 q 100 718 88 718 q 119 724 110 718 q 127 741 127 730 q 129 755 127 750 m 694 144 q 688 155 692 151 q 680 167 685 160 q 671 165 674 167 q 662 174 667 168 q 656 168 659 171 q 651 165 654 165 q 643 168 648 165 l 628 140 q 644 114 639 133 q 654 117 650 117 q 665 111 662 111 q 677 113 671 111 q 689 115 682 115 q 691 130 689 122 q 694 144 693 137 m 195 601 l 195 617 q 183 623 186 620 q 174 629 180 625 q 167 629 171 629 q 159 628 163 628 q 153 629 156 628 q 146 629 149 629 q 143 616 146 623 q 140 602 140 609 q 145 585 140 595 q 170 571 152 578 q 188 582 180 575 q 195 601 195 589 m 581 38 q 575 53 581 47 q 564 65 570 58 q 552 68 556 68 q 540 66 545 68 q 528 61 534 64 q 522 49 525 54 q 515 37 518 43 q 522 25 518 30 q 529 14 525 20 q 541 9 536 12 q 552 5 545 7 q 572 16 563 9 q 581 38 581 23 m 416 0 q 414 11 416 3 l 391 28 q 374 22 382 23 q 355 15 365 20 l 355 3 q 357 -11 355 -4 q 362 -24 359 -18 q 376 -26 369 -24 q 389 -28 382 -28 q 408 -20 400 -28 q 416 0 416 -11 m 263 26 l 248 49 q 235 50 241 49 q 222 52 229 52 q 203 42 213 52 q 199 20 203 33 q 209 7 206 14 q 220 -4 212 1 l 227 -4 q 263 26 252 -4 m 126 79 q 126 94 126 87 q 125 109 126 102 q 111 116 118 111 q 96 121 104 121 q 75 111 81 121 q 61 92 69 102 q 68 81 68 85 q 80 65 68 76 q 87 64 83 65 q 95 62 91 62 q 112 68 104 62 q 126 79 119 73 m 563 1265 q 555 1274 559 1270 q 547 1282 552 1278 l 541 1282 q 519 1279 526 1282 q 502 1264 511 1276 q 501 1251 502 1261 q 505 1240 500 1241 q 508 1234 507 1237 q 511 1229 509 1232 q 534 1225 521 1225 q 557 1237 549 1225 q 559 1251 557 1244 q 563 1265 562 1257 m 502 1214 q 494 1225 495 1221 q 481 1234 494 1230 l 454 1234 q 444 1218 450 1225 q 444 1188 437 1211 q 455 1179 450 1183 q 467 1175 460 1175 q 481 1178 473 1175 q 496 1184 490 1181 q 500 1199 499 1191 q 502 1214 500 1207 m 439 1146 q 441 1162 441 1158 q 427 1180 441 1165 q 411 1183 419 1183 q 395 1187 403 1184 q 385 1167 388 1177 q 378 1146 381 1157 q 392 1134 388 1139 q 408 1128 396 1128 q 439 1146 429 1128 m 380 1206 q 374 1222 376 1215 q 363 1236 372 1229 q 344 1234 353 1238 q 332 1229 335 1229 q 323 1224 326 1230 q 316 1214 320 1218 q 318 1199 317 1207 q 321 1184 319 1191 q 337 1178 328 1181 q 353 1175 346 1175 q 364 1179 359 1175 q 374 1188 369 1184 q 376 1197 374 1195 q 380 1206 377 1199 m 317 1245 q 319 1249 317 1246 q 319 1253 319 1252 q 320 1257 320 1255 q 319 1261 320 1259 q 319 1265 319 1263 q 317 1272 317 1268 q 312 1276 315 1274 q 307 1280 309 1279 q 300 1284 304 1282 q 294 1283 298 1283 q 288 1283 289 1283 q 271 1282 277 1283 q 262 1274 266 1278 q 255 1265 259 1270 q 258 1254 255 1260 q 260 1244 260 1248 l 260 1237 q 283 1225 269 1225 q 307 1229 296 1225 q 312 1240 312 1234 q 317 1242 317 1240 l 317 1245 "},"š":{"ha":785,"x_min":61,"x_max":722,"o":"m 631 909 q 628 921 631 913 l 604 936 l 583 935 q 576 922 581 928 q 571 909 571 917 q 601 879 571 879 q 624 884 610 879 q 628 897 625 891 q 631 909 631 902 m 712 825 l 712 829 q 699 845 707 838 q 681 852 692 852 q 665 846 669 852 q 650 841 661 841 l 650 807 q 661 803 656 807 q 669 793 665 799 q 672 795 671 795 q 675 798 673 796 q 689 800 685 798 q 700 802 697 802 q 709 810 703 803 q 709 817 707 817 q 712 825 712 818 m 534 979 l 534 990 q 521 998 528 993 q 506 1004 514 1004 q 486 995 498 1004 q 475 977 475 986 q 476 967 475 971 q 477 958 477 963 q 492 951 484 955 q 507 948 499 948 q 521 951 510 948 q 530 964 526 956 q 534 979 534 971 m 412 993 q 401 1008 404 1000 q 391 1024 397 1017 q 378 1027 382 1027 q 359 1022 368 1027 q 343 1010 351 1017 l 351 977 l 384 971 q 398 983 391 978 q 412 993 406 987 m 273 971 q 268 987 273 981 q 258 1000 263 994 q 248 1001 255 1001 q 227 992 235 1001 q 212 972 218 983 q 219 961 217 964 q 221 947 221 958 l 229 947 q 237 949 233 947 q 243 951 240 951 q 257 954 254 952 q 270 962 260 955 q 273 971 273 967 m 640 433 l 640 442 q 632 456 635 445 l 616 468 l 598 465 l 581 452 q 578 437 578 444 l 578 425 q 595 411 585 414 q 616 404 605 408 q 631 416 623 411 q 640 433 640 422 m 161 879 q 157 892 157 884 q 157 909 157 899 q 144 918 156 918 q 136 917 138 918 l 125 928 q 107 916 115 924 q 99 897 99 907 q 106 881 99 887 q 121 869 113 875 q 141 873 134 872 q 161 879 148 873 m 722 300 q 713 320 722 312 q 696 335 705 328 q 683 330 689 331 q 670 327 677 330 q 665 315 670 320 q 661 302 661 311 q 665 292 661 300 q 673 283 665 286 q 684 278 681 279 q 694 275 689 275 q 701 276 697 275 q 707 277 704 277 q 714 283 711 279 q 720 290 718 288 q 722 300 722 293 m 492 505 q 488 516 492 514 q 480 525 483 518 q 464 530 472 530 q 437 521 450 530 q 434 511 435 515 q 433 500 433 506 q 435 493 433 496 q 439 487 437 490 l 435 480 q 449 474 442 477 q 463 471 456 471 q 476 475 469 471 q 490 483 483 480 q 491 494 490 488 q 492 505 492 499 m 345 540 q 332 555 336 555 q 316 564 328 556 l 309 564 q 301 563 305 564 q 293 560 297 562 q 286 536 286 552 q 292 515 286 525 q 313 510 305 510 q 334 514 323 510 q 345 540 342 525 m 129 755 q 110 767 118 762 q 90 773 102 772 q 77 762 83 765 q 71 747 71 760 q 79 726 71 735 q 100 718 88 718 q 119 724 110 718 q 127 741 127 730 q 129 755 127 750 m 694 144 q 688 155 692 151 q 680 167 685 160 q 671 165 674 167 q 662 174 667 168 q 656 168 659 171 q 651 165 654 165 q 643 168 648 165 l 628 140 q 644 114 639 133 q 654 117 650 117 q 665 111 662 111 q 677 113 671 111 q 689 115 682 115 q 691 130 689 122 q 694 144 693 137 m 195 601 l 195 617 q 183 623 186 620 q 174 629 180 625 q 167 629 171 629 q 159 628 163 628 q 153 629 156 628 q 146 629 149 629 q 143 616 146 623 q 140 602 140 609 q 145 585 140 595 q 170 571 152 578 q 188 582 180 575 q 195 601 195 589 m 581 38 q 575 53 581 47 q 564 65 570 58 q 552 68 556 68 q 540 66 545 68 q 528 61 534 64 q 522 49 525 54 q 515 37 518 43 q 522 25 518 30 q 529 14 525 20 q 541 9 536 12 q 552 5 545 7 q 572 16 563 9 q 581 38 581 23 m 416 0 q 414 11 416 3 l 391 28 q 374 22 382 23 q 355 15 365 20 l 355 3 q 357 -11 355 -4 q 362 -24 359 -18 q 376 -26 369 -24 q 389 -28 382 -28 q 408 -20 400 -28 q 416 0 416 -11 m 263 26 l 248 49 q 235 50 241 49 q 222 52 229 52 q 203 42 213 52 q 199 20 203 33 q 209 7 206 14 q 220 -4 212 1 l 227 -4 q 263 26 252 -4 m 126 79 q 126 94 126 87 q 125 109 126 102 q 111 116 118 111 q 96 121 104 121 q 75 111 81 121 q 61 92 69 102 q 68 81 68 85 q 80 65 68 76 q 87 64 83 65 q 95 62 91 62 q 112 68 104 62 q 126 79 119 73 m 563 1265 q 555 1274 559 1270 q 547 1282 552 1278 l 541 1282 q 519 1279 526 1282 q 502 1264 511 1276 q 501 1251 502 1261 q 505 1240 500 1241 q 508 1234 507 1237 q 511 1229 509 1232 q 534 1225 521 1225 q 557 1237 549 1225 q 559 1251 557 1244 q 563 1265 562 1257 m 502 1214 q 494 1225 495 1221 q 481 1234 494 1230 l 454 1234 q 444 1218 450 1225 q 444 1188 437 1211 q 455 1179 450 1183 q 467 1175 460 1175 q 481 1178 473 1175 q 496 1184 490 1181 q 500 1199 499 1191 q 502 1214 500 1207 m 439 1146 q 441 1162 441 1158 q 427 1180 441 1165 q 411 1183 419 1183 q 395 1187 403 1184 q 385 1167 388 1177 q 378 1146 381 1157 q 392 1134 388 1139 q 408 1128 396 1128 q 439 1146 429 1128 m 380 1206 q 374 1222 376 1215 q 363 1236 372 1229 q 344 1234 353 1238 q 332 1229 335 1229 q 323 1224 326 1230 q 316 1214 320 1218 q 318 1199 317 1207 q 321 1184 319 1191 q 337 1178 328 1181 q 353 1175 346 1175 q 364 1179 359 1175 q 374 1188 369 1184 q 376 1197 374 1195 q 380 1206 377 1199 m 317 1245 q 319 1249 317 1246 q 319 1253 319 1252 q 320 1257 320 1255 q 319 1261 320 1259 q 319 1265 319 1263 q 317 1272 317 1268 q 312 1276 315 1274 q 307 1280 309 1279 q 300 1284 304 1282 q 294 1283 298 1283 q 288 1283 289 1283 q 271 1282 277 1283 q 262 1274 266 1278 q 255 1265 259 1270 q 258 1254 255 1260 q 260 1244 260 1248 l 260 1237 q 283 1225 269 1225 q 307 1229 296 1225 q 312 1240 312 1234 q 317 1242 317 1240 l 317 1245 "},"Ý":{"ha":762,"x_min":4,"x_max":757,"o":"m 757 989 l 749 1004 q 741 1011 742 1006 q 727 1016 739 1016 q 707 1008 719 1016 q 696 993 696 1001 q 697 983 696 987 q 699 972 699 978 q 711 966 707 970 q 727 962 716 962 q 733 962 730 962 q 741 963 736 963 q 750 975 747 968 q 757 989 753 982 m 681 864 q 666 894 677 878 q 654 894 659 892 q 644 895 650 895 l 633 895 q 623 884 628 891 q 618 869 618 876 q 623 857 618 863 q 632 844 628 850 q 655 836 646 841 q 670 848 663 842 q 681 864 677 853 m 595 739 q 590 751 593 747 q 591 755 591 754 q 593 760 591 757 q 585 769 587 764 q 578 779 582 774 q 553 774 566 777 q 532 761 541 770 q 531 750 532 755 q 530 739 530 745 q 567 719 544 719 q 581 722 572 719 q 587 731 585 727 q 595 739 589 735 m 506 623 l 506 628 q 496 637 499 636 q 488 650 492 639 q 460 642 473 644 q 446 620 446 640 l 446 612 q 461 601 454 608 q 477 594 468 594 q 484 595 480 594 q 490 598 487 597 q 500 597 496 598 q 503 610 500 604 q 506 623 506 616 m 72 972 q 71 985 72 979 q 71 997 71 990 q 53 1007 61 1001 q 35 1016 45 1013 q 20 1005 28 1009 q 4 994 11 1001 q 12 978 9 987 q 18 962 14 968 q 34 958 26 959 q 50 956 42 956 q 72 959 58 956 l 72 972 m 160 868 q 152 886 160 879 q 136 898 144 892 q 111 895 122 897 q 99 873 99 892 q 101 860 99 867 q 106 846 103 853 q 126 842 115 842 q 157 852 141 842 q 159 860 157 856 q 160 868 160 864 m 236 774 q 210 787 220 777 q 182 776 191 787 q 174 747 174 765 l 174 736 q 186 730 180 734 q 198 726 191 726 q 218 733 213 726 q 231 753 224 741 q 236 774 231 761 m 324 620 q 319 637 324 629 q 307 651 313 644 q 280 647 296 651 q 264 628 264 643 q 266 618 264 621 q 262 612 263 613 q 276 600 269 606 q 293 594 283 594 q 304 597 300 594 q 315 602 309 600 q 324 620 319 613 m 419 499 q 411 510 414 505 q 403 519 408 515 q 395 520 399 519 q 388 521 392 521 q 370 513 377 521 q 358 496 363 505 q 361 486 358 490 q 363 475 363 481 q 377 467 372 471 q 392 463 382 464 q 397 466 395 464 q 403 468 400 468 l 410 467 q 414 483 412 475 q 419 499 416 491 m 422 366 q 397 378 407 368 q 354 345 359 378 q 360 338 359 342 q 361 328 361 334 q 388 319 374 319 q 401 322 395 319 q 414 327 407 326 q 416 347 414 338 q 422 366 419 355 m 423 170 q 417 180 416 176 q 414 190 418 183 q 404 202 411 197 q 389 212 396 208 q 372 199 377 203 q 350 191 366 195 q 358 174 357 183 q 362 159 359 165 q 371 149 365 153 q 392 145 377 145 q 410 154 403 145 q 423 170 416 163 m 423 26 l 412 31 q 388 43 406 43 q 374 39 380 43 q 361 31 368 34 q 357 14 357 20 q 358 2 357 7 q 362 -8 359 -3 q 374 -16 368 -12 q 388 -19 381 -19 q 397 -16 393 -19 q 407 -14 401 -14 l 419 4 q 418 12 419 8 q 418 18 418 15 q 423 26 420 23 m 540 1263 q 526 1274 530 1270 q 510 1279 522 1279 q 491 1274 499 1279 q 475 1263 483 1270 q 479 1256 476 1261 q 491 1229 479 1240 q 507 1226 499 1226 q 524 1225 515 1226 q 534 1243 530 1234 q 540 1263 537 1252 m 481 1203 q 475 1210 476 1206 q 475 1219 475 1214 l 457 1236 q 439 1232 448 1234 q 422 1226 430 1229 q 418 1209 419 1218 q 415 1191 418 1200 q 425 1183 422 1190 q 441 1175 429 1177 q 453 1176 448 1176 q 465 1177 458 1176 q 473 1190 468 1184 q 481 1203 479 1195 m 426 1162 q 414 1172 415 1169 q 407 1181 414 1175 q 395 1183 400 1183 q 384 1184 391 1184 q 361 1172 369 1184 q 358 1158 361 1165 q 355 1142 355 1150 q 366 1131 361 1135 q 380 1126 370 1126 q 389 1126 388 1126 q 397 1120 391 1126 q 405 1134 400 1131 q 416 1143 410 1137 q 416 1154 414 1150 q 426 1162 419 1158 "},"ý":{"ha":762,"x_min":4,"x_max":757,"o":"m 757 989 l 749 1004 q 741 1011 742 1006 q 727 1016 739 1016 q 707 1008 719 1016 q 696 993 696 1001 q 697 983 696 987 q 699 972 699 978 q 711 966 707 970 q 727 962 716 962 q 733 962 730 962 q 741 963 736 963 q 750 975 747 968 q 757 989 753 982 m 681 864 q 666 894 677 878 q 654 894 659 892 q 644 895 650 895 l 633 895 q 623 884 628 891 q 618 869 618 876 q 623 857 618 863 q 632 844 628 850 q 655 836 646 841 q 670 848 663 842 q 681 864 677 853 m 595 739 q 590 751 593 747 q 591 755 591 754 q 593 760 591 757 q 585 769 587 764 q 578 779 582 774 q 553 774 566 777 q 532 761 541 770 q 531 750 532 755 q 530 739 530 745 q 567 719 544 719 q 581 722 572 719 q 587 731 585 727 q 595 739 589 735 m 506 623 l 506 628 q 496 637 499 636 q 488 650 492 639 q 460 642 473 644 q 446 620 446 640 l 446 612 q 461 601 454 608 q 477 594 468 594 q 484 595 480 594 q 490 598 487 597 q 500 597 496 598 q 503 610 500 604 q 506 623 506 616 m 72 972 q 71 985 72 979 q 71 997 71 990 q 53 1007 61 1001 q 35 1016 45 1013 q 20 1005 28 1009 q 4 994 11 1001 q 12 978 9 987 q 18 962 14 968 q 34 958 26 959 q 50 956 42 956 q 72 959 58 956 l 72 972 m 160 868 q 152 886 160 879 q 136 898 144 892 q 111 895 122 897 q 99 873 99 892 q 101 860 99 867 q 106 846 103 853 q 126 842 115 842 q 157 852 141 842 q 159 860 157 856 q 160 868 160 864 m 236 774 q 210 787 220 777 q 182 776 191 787 q 174 747 174 765 l 174 736 q 186 730 180 734 q 198 726 191 726 q 218 733 213 726 q 231 753 224 741 q 236 774 231 761 m 324 620 q 319 637 324 629 q 307 651 313 644 q 280 647 296 651 q 264 628 264 643 q 266 618 264 621 q 262 612 263 613 q 276 600 269 606 q 293 594 283 594 q 304 597 300 594 q 315 602 309 600 q 324 620 319 613 m 419 499 q 411 510 414 505 q 403 519 408 515 q 395 520 399 519 q 388 521 392 521 q 370 513 377 521 q 358 496 363 505 q 361 486 358 490 q 363 475 363 481 q 377 467 372 471 q 392 463 382 464 q 397 466 395 464 q 403 468 400 468 l 410 467 q 414 483 412 475 q 419 499 416 491 m 422 366 q 397 378 407 368 q 354 345 359 378 q 360 338 359 342 q 361 328 361 334 q 388 319 374 319 q 401 322 395 319 q 414 327 407 326 q 416 347 414 338 q 422 366 419 355 m 423 170 q 417 180 416 176 q 414 190 418 183 q 404 202 411 197 q 389 212 396 208 q 372 199 377 203 q 350 191 366 195 q 358 174 357 183 q 362 159 359 165 q 371 149 365 153 q 392 145 377 145 q 410 154 403 145 q 423 170 416 163 m 423 26 l 412 31 q 388 43 406 43 q 374 39 380 43 q 361 31 368 34 q 357 14 357 20 q 358 2 357 7 q 362 -8 359 -3 q 374 -16 368 -12 q 388 -19 381 -19 q 397 -16 393 -19 q 407 -14 401 -14 l 419 4 q 418 12 419 8 q 418 18 418 15 q 423 26 420 23 m 540 1263 q 526 1274 530 1270 q 510 1279 522 1279 q 491 1274 499 1279 q 475 1263 483 1270 q 479 1256 476 1261 q 491 1229 479 1240 q 507 1226 499 1226 q 524 1225 515 1226 q 534 1243 530 1234 q 540 1263 537 1252 m 481 1203 q 475 1210 476 1206 q 475 1219 475 1214 l 457 1236 q 439 1232 448 1234 q 422 1226 430 1229 q 418 1209 419 1218 q 415 1191 418 1200 q 425 1183 422 1190 q 441 1175 429 1177 q 453 1176 448 1176 q 465 1177 458 1176 q 473 1190 468 1184 q 481 1203 479 1195 m 426 1162 q 414 1172 415 1169 q 407 1181 414 1175 q 395 1183 400 1183 q 384 1184 391 1184 q 361 1172 369 1184 q 358 1158 361 1165 q 355 1142 355 1150 q 366 1131 361 1135 q 380 1126 370 1126 q 389 1126 388 1126 q 397 1120 391 1126 q 405 1134 400 1131 q 416 1143 410 1137 q 416 1154 414 1150 q 426 1162 419 1158 "},"Þ":{"ha":811,"x_min":114,"x_max":755,"o":"m 673 723 q 671 734 673 731 q 669 739 670 738 q 666 739 667 741 q 661 741 665 739 q 647 743 652 743 q 627 735 635 743 q 616 716 620 727 q 625 698 624 708 q 643 689 627 688 l 656 689 q 664 696 661 693 q 673 703 667 700 q 675 712 675 708 q 674 718 675 715 q 673 723 673 720 m 755 605 q 751 621 755 610 q 741 632 745 625 q 730 635 732 635 q 720 633 724 635 q 711 632 716 632 q 704 623 708 628 q 697 614 700 618 l 697 606 q 707 586 697 595 q 717 583 712 586 q 726 578 722 581 q 736 581 735 578 q 745 586 738 583 q 753 592 751 586 q 755 605 755 598 m 567 787 q 554 793 557 789 q 545 803 551 796 q 529 806 534 806 q 517 803 522 806 q 510 791 514 793 q 506 777 506 788 l 506 770 q 513 761 511 764 q 518 750 515 758 q 526 748 522 749 q 533 747 529 747 q 557 760 553 747 q 567 787 560 772 m 754 469 q 748 493 754 484 q 730 510 742 502 q 722 505 724 505 q 712 503 719 506 q 703 492 707 496 q 699 477 699 487 q 701 461 699 472 q 713 454 708 458 q 727 449 719 449 q 745 454 735 449 q 754 469 754 460 m 433 806 q 425 810 426 806 q 419 819 423 814 q 393 819 406 815 q 382 808 388 812 q 376 793 376 803 q 386 775 376 787 q 403 764 396 764 q 419 766 408 764 q 428 785 425 780 q 433 806 431 789 m 176 983 q 172 999 176 994 q 163 1012 168 1004 l 145 1012 q 137 1010 140 1012 l 118 996 q 127 977 121 985 q 141 960 133 968 l 151 960 q 167 963 156 960 q 173 972 170 967 q 176 983 176 977 m 296 792 q 293 808 296 798 l 267 817 q 251 813 256 815 q 243 807 245 811 q 239 797 240 803 q 236 781 237 791 q 244 777 241 779 q 250 772 247 774 q 260 766 254 769 q 278 761 266 764 q 286 769 282 765 q 294 777 289 773 q 295 785 294 781 q 296 792 296 788 m 671 351 q 670 359 671 355 q 666 366 669 362 q 667 370 667 369 q 669 373 667 372 q 659 382 665 378 q 647 387 654 387 q 635 383 640 387 q 623 377 629 380 q 617 359 617 366 q 629 336 617 342 q 655 330 640 331 q 665 340 661 335 q 671 351 669 345 m 178 842 q 170 860 176 852 q 159 873 164 868 q 148 876 151 876 q 134 871 140 876 q 122 863 129 867 q 119 852 119 857 q 127 830 119 831 q 146 819 134 829 q 164 827 157 819 q 178 842 171 836 m 175 709 q 172 722 175 716 q 167 732 170 727 q 159 735 163 734 q 149 736 155 736 q 132 727 141 736 q 121 720 125 726 q 118 707 118 713 q 132 686 118 692 q 157 680 145 680 q 170 693 164 685 q 175 709 175 701 m 564 256 q 557 283 563 269 q 536 297 552 297 q 530 296 533 297 q 524 296 526 296 q 517 288 517 289 q 506 286 517 286 q 507 273 507 282 q 505 264 507 267 q 518 248 510 252 q 537 236 526 243 q 551 246 544 243 q 564 256 557 250 m 178 566 q 165 593 178 578 q 153 595 163 595 q 140 593 146 595 q 126 587 133 590 q 122 575 126 581 q 114 564 118 570 q 128 555 127 557 q 137 541 129 552 l 164 541 q 173 552 168 548 q 178 566 178 556 m 433 258 q 424 269 427 266 q 417 273 420 273 q 410 275 414 274 q 400 279 407 275 q 385 267 393 277 q 376 251 376 256 q 376 247 376 248 q 377 243 377 245 q 373 235 374 236 q 373 232 372 233 q 381 228 374 231 q 401 217 388 225 q 413 223 407 221 q 425 229 419 225 q 427 243 425 236 q 433 258 430 251 m 176 423 q 153 461 176 449 q 136 457 145 457 q 125 445 130 450 q 119 431 119 439 q 126 411 119 420 q 144 401 133 401 q 160 405 152 401 q 175 411 168 408 q 176 417 175 414 q 176 423 176 420 m 301 252 q 298 264 301 259 q 292 275 294 270 q 279 278 283 278 q 262 275 273 278 q 251 264 256 269 q 245 251 245 260 q 246 241 245 245 q 247 232 247 237 q 264 222 259 227 q 283 218 269 218 l 297 232 q 301 252 301 241 m 175 298 q 169 309 175 302 q 160 317 163 315 q 151 318 155 317 q 142 319 146 319 q 128 311 130 319 q 119 296 126 302 q 131 273 121 282 q 155 264 141 264 q 168 266 164 264 q 172 281 168 274 q 175 298 175 289 m 179 151 q 172 165 176 159 q 164 180 167 172 q 148 178 156 178 q 132 175 140 178 q 124 165 127 171 q 117 153 121 159 l 133 126 q 142 125 138 126 q 151 125 146 125 q 162 127 157 125 q 172 132 167 129 q 174 142 172 141 q 179 151 176 144 m 178 14 l 178 23 q 163 36 171 30 q 145 42 155 42 q 128 35 133 42 q 118 16 123 27 q 129 -5 123 5 q 149 -15 134 -15 q 172 -9 159 -15 q 176 2 174 -3 q 178 14 178 7 "},"þ":{"ha":811,"x_min":114,"x_max":755,"o":"m 673 723 q 671 734 673 731 q 669 739 670 738 q 666 739 667 741 q 661 741 665 739 q 647 743 652 743 q 627 735 635 743 q 616 716 620 727 q 625 698 624 708 q 643 689 627 688 l 656 689 q 664 696 661 693 q 673 703 667 700 q 675 712 675 708 q 674 718 675 715 q 673 723 673 720 m 755 605 q 751 621 755 610 q 741 632 745 625 q 730 635 732 635 q 720 633 724 635 q 711 632 716 632 q 704 623 708 628 q 697 614 700 618 l 697 606 q 707 586 697 595 q 717 583 712 586 q 726 578 722 581 q 736 581 735 578 q 745 586 738 583 q 753 592 751 586 q 755 605 755 598 m 567 787 q 554 793 557 789 q 545 803 551 796 q 529 806 534 806 q 517 803 522 806 q 510 791 514 793 q 506 777 506 788 l 506 770 q 513 761 511 764 q 518 750 515 758 q 526 748 522 749 q 533 747 529 747 q 557 760 553 747 q 567 787 560 772 m 754 469 q 748 493 754 484 q 730 510 742 502 q 722 505 724 505 q 712 503 719 506 q 703 492 707 496 q 699 477 699 487 q 701 461 699 472 q 713 454 708 458 q 727 449 719 449 q 745 454 735 449 q 754 469 754 460 m 433 806 q 425 810 426 806 q 419 819 423 814 q 393 819 406 815 q 382 808 388 812 q 376 793 376 803 q 386 775 376 787 q 403 764 396 764 q 419 766 408 764 q 428 785 425 780 q 433 806 431 789 m 176 983 q 172 999 176 994 q 163 1012 168 1004 l 145 1012 q 137 1010 140 1012 l 118 996 q 127 977 121 985 q 141 960 133 968 l 151 960 q 167 963 156 960 q 173 972 170 967 q 176 983 176 977 m 296 792 q 293 808 296 798 l 267 817 q 251 813 256 815 q 243 807 245 811 q 239 797 240 803 q 236 781 237 791 q 244 777 241 779 q 250 772 247 774 q 260 766 254 769 q 278 761 266 764 q 286 769 282 765 q 294 777 289 773 q 295 785 294 781 q 296 792 296 788 m 671 351 q 670 359 671 355 q 666 366 669 362 q 667 370 667 369 q 669 373 667 372 q 659 382 665 378 q 647 387 654 387 q 635 383 640 387 q 623 377 629 380 q 617 359 617 366 q 629 336 617 342 q 655 330 640 331 q 665 340 661 335 q 671 351 669 345 m 178 842 q 170 860 176 852 q 159 873 164 868 q 148 876 151 876 q 134 871 140 876 q 122 863 129 867 q 119 852 119 857 q 127 830 119 831 q 146 819 134 829 q 164 827 157 819 q 178 842 171 836 m 175 709 q 172 722 175 716 q 167 732 170 727 q 159 735 163 734 q 149 736 155 736 q 132 727 141 736 q 121 720 125 726 q 118 707 118 713 q 132 686 118 692 q 157 680 145 680 q 170 693 164 685 q 175 709 175 701 m 564 256 q 557 283 563 269 q 536 297 552 297 q 530 296 533 297 q 524 296 526 296 q 517 288 517 289 q 506 286 517 286 q 507 273 507 282 q 505 264 507 267 q 518 248 510 252 q 537 236 526 243 q 551 246 544 243 q 564 256 557 250 m 178 566 q 165 593 178 578 q 153 595 163 595 q 140 593 146 595 q 126 587 133 590 q 122 575 126 581 q 114 564 118 570 q 128 555 127 557 q 137 541 129 552 l 164 541 q 173 552 168 548 q 178 566 178 556 m 433 258 q 424 269 427 266 q 417 273 420 273 q 410 275 414 274 q 400 279 407 275 q 385 267 393 277 q 376 251 376 256 q 376 247 376 248 q 377 243 377 245 q 373 235 374 236 q 373 232 372 233 q 381 228 374 231 q 401 217 388 225 q 413 223 407 221 q 425 229 419 225 q 427 243 425 236 q 433 258 430 251 m 176 423 q 153 461 176 449 q 136 457 145 457 q 125 445 130 450 q 119 431 119 439 q 126 411 119 420 q 144 401 133 401 q 160 405 152 401 q 175 411 168 408 q 176 417 175 414 q 176 423 176 420 m 301 252 q 298 264 301 259 q 292 275 294 270 q 279 278 283 278 q 262 275 273 278 q 251 264 256 269 q 245 251 245 260 q 246 241 245 245 q 247 232 247 237 q 264 222 259 227 q 283 218 269 218 l 297 232 q 301 252 301 241 m 175 298 q 169 309 175 302 q 160 317 163 315 q 151 318 155 317 q 142 319 146 319 q 128 311 130 319 q 119 296 126 302 q 131 273 121 282 q 155 264 141 264 q 168 266 164 264 q 172 281 168 274 q 175 298 175 289 m 179 151 q 172 165 176 159 q 164 180 167 172 q 148 178 156 178 q 132 175 140 178 q 124 165 127 171 q 117 153 121 159 l 133 126 q 142 125 138 126 q 151 125 146 125 q 162 127 157 125 q 172 132 167 129 q 174 142 172 141 q 179 151 176 144 m 178 14 l 178 23 q 163 36 171 30 q 145 42 155 42 q 128 35 133 42 q 118 16 123 27 q 129 -5 123 5 q 149 -15 134 -15 q 172 -9 159 -15 q 176 2 174 -3 q 178 14 178 7 "},"Ž":{"ha":787,"x_min":35,"x_max":751,"o":"m 749 978 l 746 982 q 743 998 749 991 q 730 1012 736 1005 l 723 1012 q 699 1004 709 1012 q 688 982 688 997 q 692 970 688 975 q 697 959 696 966 q 705 956 701 958 q 713 955 709 955 q 734 961 728 955 q 749 978 741 967 m 620 986 q 610 999 614 993 q 600 1012 606 1005 l 594 1012 q 581 1009 589 1012 q 568 1006 574 1009 q 559 1000 563 1002 q 557 987 557 996 q 564 965 557 974 q 585 956 571 956 q 606 966 600 956 q 620 986 612 977 m 655 827 l 655 841 q 648 846 648 844 q 646 856 647 849 q 633 859 637 859 q 612 851 621 859 q 594 836 602 844 l 594 830 q 610 806 594 815 q 619 806 617 806 q 628 802 621 806 q 642 806 635 802 q 652 815 648 811 q 655 827 655 823 m 487 979 l 483 986 q 473 1008 481 998 q 453 1013 463 1013 q 435 1004 442 1013 q 427 985 427 996 q 436 964 427 970 q 458 956 445 959 q 474 966 468 963 q 487 979 480 968 m 357 985 q 352 998 357 990 q 345 1012 347 1006 q 327 1013 335 1012 q 309 1013 319 1013 q 302 1000 309 1002 q 296 985 296 997 q 305 962 296 971 q 315 958 308 960 q 324 956 323 956 q 346 964 335 956 q 357 985 357 972 m 576 704 q 569 710 571 707 q 565 716 567 713 q 559 721 563 719 q 548 723 556 723 q 515 704 528 723 q 518 676 517 689 q 541 663 519 663 q 562 667 551 663 q 572 684 568 678 q 576 704 576 689 m 232 990 q 219 998 221 993 q 210 1012 217 1004 q 200 1012 205 1012 q 190 1015 195 1012 q 173 1001 182 1008 q 164 983 164 994 q 169 969 164 975 q 179 958 174 963 q 213 966 197 958 q 223 977 218 971 q 232 990 228 983 m 96 982 q 90 999 96 991 q 77 1013 84 1006 q 64 1010 72 1013 l 56 1015 q 41 1000 47 1008 q 35 981 35 993 q 41 963 35 970 q 58 956 47 956 q 81 962 68 956 q 89 968 85 964 q 96 975 92 972 l 96 982 m 488 563 q 481 574 484 568 q 475 586 477 579 l 446 589 l 423 578 q 425 557 425 566 q 433 537 426 548 q 444 534 444 538 q 452 529 444 529 q 467 533 460 529 q 480 543 473 537 l 488 563 m 395 431 q 385 435 388 434 q 380 444 381 437 q 372 449 376 446 q 363 452 369 452 q 353 450 358 452 q 342 448 347 449 q 334 437 338 442 q 328 425 331 431 q 332 412 328 418 q 339 401 335 407 q 345 397 343 399 q 353 396 347 396 q 370 400 362 396 q 377 405 374 404 q 387 407 380 406 q 389 420 387 415 q 395 431 391 425 m 747 24 q 740 38 751 31 q 724 45 728 45 q 709 41 716 45 q 696 35 703 38 q 686 8 692 20 q 694 -5 692 1 q 703 -18 697 -11 q 705 -16 704 -16 q 708 -14 707 -15 q 715 -14 712 -14 q 722 -15 719 -15 q 739 -7 732 -15 q 751 8 745 0 q 749 16 751 11 q 747 24 747 20 m 629 7 q 625 21 627 14 q 621 35 623 28 q 600 42 610 42 q 587 41 593 42 q 575 38 582 39 q 571 28 574 33 q 568 18 568 23 q 578 -7 568 -1 q 605 -12 589 -12 q 617 -3 612 -8 q 629 7 623 1 m 293 304 q 283 318 283 311 q 266 326 282 326 q 246 319 255 326 q 231 305 237 313 q 233 291 233 298 q 235 277 233 283 q 241 268 236 271 q 259 264 247 264 q 279 269 269 264 q 290 286 286 279 q 293 304 293 292 m 494 7 q 492 16 494 12 q 491 24 491 20 l 491 31 q 481 37 486 39 q 469 39 477 35 l 453 37 q 444 27 449 33 q 439 15 439 22 q 444 2 439 8 q 449 -11 448 -4 q 459 -12 456 -9 q 468 -14 463 -14 l 475 -14 q 484 -5 480 -8 q 494 1 487 -3 l 494 7 m 368 16 q 351 41 357 26 q 335 43 340 43 q 312 29 317 43 q 307 1 307 15 q 327 -11 312 -11 q 353 -5 345 -11 q 368 16 361 1 m 194 161 q 188 174 194 168 q 179 184 182 179 q 175 183 176 183 q 171 182 174 183 q 160 180 167 184 q 151 174 153 176 q 141 165 148 171 q 134 157 134 160 q 136 144 134 151 q 138 132 137 138 q 155 127 146 130 q 171 123 163 125 q 190 138 186 132 q 194 161 194 144 m 236 7 l 233 26 q 223 36 227 33 q 213 42 220 39 l 182 42 q 177 31 180 35 q 174 20 174 27 q 182 -11 174 3 l 214 -14 q 226 -4 220 -8 q 236 7 232 0 m 96 9 q 87 27 90 18 q 77 45 84 37 l 57 39 q 48 32 53 35 q 39 24 43 28 q 37 15 37 19 q 37 8 37 12 q 38 1 38 4 q 50 -11 43 -5 q 65 -16 56 -16 q 73 -15 69 -16 q 80 -14 76 -14 q 88 -2 84 -7 q 96 9 92 3 m 563 1265 q 555 1274 559 1270 q 547 1282 552 1278 l 541 1282 q 519 1279 526 1282 q 502 1264 511 1276 q 501 1251 502 1261 q 505 1240 500 1241 q 508 1234 507 1237 q 511 1229 509 1232 q 534 1225 521 1225 q 557 1237 549 1225 q 559 1251 557 1244 q 563 1265 562 1257 m 502 1214 q 494 1225 495 1221 q 481 1234 494 1230 l 454 1234 q 444 1218 450 1225 q 444 1188 437 1211 q 455 1179 450 1183 q 467 1175 460 1175 q 481 1178 473 1175 q 496 1184 490 1181 q 500 1199 499 1191 q 502 1214 500 1207 m 439 1146 q 441 1162 441 1158 q 427 1180 441 1165 q 411 1183 419 1183 q 395 1187 403 1184 q 385 1167 388 1177 q 378 1146 381 1157 q 392 1134 388 1139 q 408 1128 396 1128 q 439 1146 429 1128 m 380 1206 q 374 1222 376 1215 q 363 1236 372 1229 q 344 1234 353 1238 q 332 1229 335 1229 q 323 1224 326 1230 q 316 1214 320 1218 q 318 1199 317 1207 q 321 1184 319 1191 q 337 1178 328 1181 q 353 1175 346 1175 q 364 1179 359 1175 q 374 1188 369 1184 q 376 1197 374 1195 q 380 1206 377 1199 m 317 1245 q 319 1249 317 1246 q 319 1253 319 1252 q 320 1257 320 1255 q 319 1261 320 1259 q 319 1265 319 1263 q 317 1272 317 1268 q 312 1276 315 1274 q 307 1280 309 1279 q 300 1284 304 1282 q 294 1283 298 1283 q 288 1283 289 1283 q 271 1282 277 1283 q 262 1274 266 1278 q 255 1265 259 1270 q 258 1254 255 1260 q 260 1244 260 1248 l 260 1237 q 283 1225 269 1225 q 307 1229 296 1225 q 312 1240 312 1234 q 317 1242 317 1240 l 317 1245 "},"ž":{"ha":787,"x_min":35,"x_max":751,"o":"m 749 978 l 746 982 q 743 998 749 991 q 730 1012 736 1005 l 723 1012 q 699 1004 709 1012 q 688 982 688 997 q 692 970 688 975 q 697 959 696 966 q 705 956 701 958 q 713 955 709 955 q 734 961 728 955 q 749 978 741 967 m 620 986 q 610 999 614 993 q 600 1012 606 1005 l 594 1012 q 581 1009 589 1012 q 568 1006 574 1009 q 559 1000 563 1002 q 557 987 557 996 q 564 965 557 974 q 585 956 571 956 q 606 966 600 956 q 620 986 612 977 m 655 827 l 655 841 q 648 846 648 844 q 646 856 647 849 q 633 859 637 859 q 612 851 621 859 q 594 836 602 844 l 594 830 q 610 806 594 815 q 619 806 617 806 q 628 802 621 806 q 642 806 635 802 q 652 815 648 811 q 655 827 655 823 m 487 979 l 483 986 q 473 1008 481 998 q 453 1013 463 1013 q 435 1004 442 1013 q 427 985 427 996 q 436 964 427 970 q 458 956 445 959 q 474 966 468 963 q 487 979 480 968 m 357 985 q 352 998 357 990 q 345 1012 347 1006 q 327 1013 335 1012 q 309 1013 319 1013 q 302 1000 309 1002 q 296 985 296 997 q 305 962 296 971 q 315 958 308 960 q 324 956 323 956 q 346 964 335 956 q 357 985 357 972 m 576 704 q 569 710 571 707 q 565 716 567 713 q 559 721 563 719 q 548 723 556 723 q 515 704 528 723 q 518 676 517 689 q 541 663 519 663 q 562 667 551 663 q 572 684 568 678 q 576 704 576 689 m 232 990 q 219 998 221 993 q 210 1012 217 1004 q 200 1012 205 1012 q 190 1015 195 1012 q 173 1001 182 1008 q 164 983 164 994 q 169 969 164 975 q 179 958 174 963 q 213 966 197 958 q 223 977 218 971 q 232 990 228 983 m 96 982 q 90 999 96 991 q 77 1013 84 1006 q 64 1010 72 1013 l 56 1015 q 41 1000 47 1008 q 35 981 35 993 q 41 963 35 970 q 58 956 47 956 q 81 962 68 956 q 89 968 85 964 q 96 975 92 972 l 96 982 m 488 563 q 481 574 484 568 q 475 586 477 579 l 446 589 l 423 578 q 425 557 425 566 q 433 537 426 548 q 444 534 444 538 q 452 529 444 529 q 467 533 460 529 q 480 543 473 537 l 488 563 m 395 431 q 385 435 388 434 q 380 444 381 437 q 372 449 376 446 q 363 452 369 452 q 353 450 358 452 q 342 448 347 449 q 334 437 338 442 q 328 425 331 431 q 332 412 328 418 q 339 401 335 407 q 345 397 343 399 q 353 396 347 396 q 370 400 362 396 q 377 405 374 404 q 387 407 380 406 q 389 420 387 415 q 395 431 391 425 m 747 24 q 740 38 751 31 q 724 45 728 45 q 709 41 716 45 q 696 35 703 38 q 686 8 692 20 q 694 -5 692 1 q 703 -18 697 -11 q 705 -16 704 -16 q 708 -14 707 -15 q 715 -14 712 -14 q 722 -15 719 -15 q 739 -7 732 -15 q 751 8 745 0 q 749 16 751 11 q 747 24 747 20 m 629 7 q 625 21 627 14 q 621 35 623 28 q 600 42 610 42 q 587 41 593 42 q 575 38 582 39 q 571 28 574 33 q 568 18 568 23 q 578 -7 568 -1 q 605 -12 589 -12 q 617 -3 612 -8 q 629 7 623 1 m 293 304 q 283 318 283 311 q 266 326 282 326 q 246 319 255 326 q 231 305 237 313 q 233 291 233 298 q 235 277 233 283 q 241 268 236 271 q 259 264 247 264 q 279 269 269 264 q 290 286 286 279 q 293 304 293 292 m 494 7 q 492 16 494 12 q 491 24 491 20 l 491 31 q 481 37 486 39 q 469 39 477 35 l 453 37 q 444 27 449 33 q 439 15 439 22 q 444 2 439 8 q 449 -11 448 -4 q 459 -12 456 -9 q 468 -14 463 -14 l 475 -14 q 484 -5 480 -8 q 494 1 487 -3 l 494 7 m 368 16 q 351 41 357 26 q 335 43 340 43 q 312 29 317 43 q 307 1 307 15 q 327 -11 312 -11 q 353 -5 345 -11 q 368 16 361 1 m 194 161 q 188 174 194 168 q 179 184 182 179 q 175 183 176 183 q 171 182 174 183 q 160 180 167 184 q 151 174 153 176 q 141 165 148 171 q 134 157 134 160 q 136 144 134 151 q 138 132 137 138 q 155 127 146 130 q 171 123 163 125 q 190 138 186 132 q 194 161 194 144 m 236 7 l 233 26 q 223 36 227 33 q 213 42 220 39 l 182 42 q 177 31 180 35 q 174 20 174 27 q 182 -11 174 3 l 214 -14 q 226 -4 220 -8 q 236 7 232 0 m 96 9 q 87 27 90 18 q 77 45 84 37 l 57 39 q 48 32 53 35 q 39 24 43 28 q 37 15 37 19 q 37 8 37 12 q 38 1 38 4 q 50 -11 43 -5 q 65 -16 56 -16 q 73 -15 69 -16 q 80 -14 76 -14 q 88 -2 84 -7 q 96 9 92 3 m 563 1265 q 555 1274 559 1270 q 547 1282 552 1278 l 541 1282 q 519 1279 526 1282 q 502 1264 511 1276 q 501 1251 502 1261 q 505 1240 500 1241 q 508 1234 507 1237 q 511 1229 509 1232 q 534 1225 521 1225 q 557 1237 549 1225 q 559 1251 557 1244 q 563 1265 562 1257 m 502 1214 q 494 1225 495 1221 q 481 1234 494 1230 l 454 1234 q 444 1218 450 1225 q 444 1188 437 1211 q 455 1179 450 1183 q 467 1175 460 1175 q 481 1178 473 1175 q 496 1184 490 1181 q 500 1199 499 1191 q 502 1214 500 1207 m 439 1146 q 441 1162 441 1158 q 427 1180 441 1165 q 411 1183 419 1183 q 395 1187 403 1184 q 385 1167 388 1177 q 378 1146 381 1157 q 392 1134 388 1139 q 408 1128 396 1128 q 439 1146 429 1128 m 380 1206 q 374 1222 376 1215 q 363 1236 372 1229 q 344 1234 353 1238 q 332 1229 335 1229 q 323 1224 326 1230 q 316 1214 320 1218 q 318 1199 317 1207 q 321 1184 319 1191 q 337 1178 328 1181 q 353 1175 346 1175 q 364 1179 359 1175 q 374 1188 369 1184 q 376 1197 374 1195 q 380 1206 377 1199 m 317 1245 q 319 1249 317 1246 q 319 1253 319 1252 q 320 1257 320 1255 q 319 1261 320 1259 q 319 1265 319 1263 q 317 1272 317 1268 q 312 1276 315 1274 q 307 1280 309 1279 q 300 1284 304 1282 q 294 1283 298 1283 q 288 1283 289 1283 q 271 1282 277 1283 q 262 1274 266 1278 q 255 1265 259 1270 q 258 1254 255 1260 q 260 1244 260 1248 l 260 1237 q 283 1225 269 1225 q 307 1229 296 1225 q 312 1240 312 1234 q 317 1242 317 1240 l 317 1245 "},"½":{"ha":762,"x_min":76,"x_max":688,"o":"m 575 986 q 572 998 575 993 q 567 1010 570 1004 q 547 1009 556 1010 q 528 1002 537 1008 q 526 991 528 996 q 522 981 524 987 q 533 967 525 971 q 549 963 541 963 q 568 969 560 963 q 575 986 575 975 m 522 865 q 518 880 522 873 q 504 888 511 887 q 488 891 496 890 q 479 883 484 886 q 471 878 475 880 q 467 868 469 872 q 465 859 465 864 l 465 849 q 479 843 472 846 q 494 840 487 840 q 513 844 505 840 q 519 854 515 849 q 522 865 522 859 m 465 739 q 454 768 465 754 l 434 772 q 421 759 431 762 q 411 742 411 755 q 416 730 411 739 q 423 716 420 720 q 433 719 429 718 q 442 720 438 720 l 448 716 q 459 727 453 722 q 465 739 465 732 m 210 1000 q 195 1021 199 1009 q 182 1022 189 1021 q 170 1023 176 1023 q 157 1008 163 1012 q 152 989 152 1004 l 152 978 q 162 970 157 974 q 174 967 167 967 q 184 970 179 967 q 191 972 189 972 l 199 972 q 204 986 202 979 q 210 1000 206 993 m 616 472 q 609 491 616 481 q 598 497 604 494 q 586 500 593 500 l 578 500 q 566 486 571 494 q 555 469 560 477 q 569 458 560 461 q 587 454 578 454 q 597 455 593 454 q 606 456 601 456 q 616 472 616 463 m 688 396 q 677 414 684 407 q 658 420 670 420 q 640 416 648 420 q 625 406 632 411 l 628 399 q 633 370 628 372 q 647 373 637 369 q 653 370 650 372 q 659 366 656 368 q 667 373 663 369 q 674 380 670 377 q 681 388 677 384 q 688 396 685 392 m 205 886 q 175 892 189 892 l 160 892 q 155 875 157 883 q 152 856 152 867 q 168 843 160 845 q 190 841 176 841 q 195 852 193 849 q 200 858 198 854 q 203 867 202 861 q 205 886 205 872 m 412 613 q 407 629 408 623 q 404 638 406 635 q 396 645 401 642 q 381 652 391 648 q 370 644 374 646 q 363 642 366 643 q 357 636 359 640 q 351 621 354 632 q 357 608 358 614 q 368 594 357 601 l 373 594 q 394 600 385 594 q 412 613 403 606 m 681 288 q 671 301 674 294 q 665 317 669 308 q 650 315 656 315 q 636 309 643 315 l 624 302 q 621 293 621 297 q 635 269 621 274 q 665 264 650 264 q 671 277 667 273 q 681 288 675 281 m 515 423 q 512 428 514 425 q 510 434 510 431 q 510 450 510 445 q 506 467 510 456 q 492 465 499 465 q 477 465 484 465 q 469 456 473 460 q 460 448 464 453 q 465 423 460 434 q 484 412 469 412 q 500 417 492 412 q 515 423 507 422 m 198 738 q 192 758 198 749 q 175 766 186 766 q 161 764 170 766 q 149 747 159 757 l 149 724 q 174 712 157 712 q 191 716 183 712 q 198 738 198 724 m 358 495 l 354 514 q 340 523 347 519 q 323 526 332 526 q 307 524 317 526 q 301 508 304 515 q 297 492 298 500 q 321 475 307 475 q 341 481 334 475 q 358 495 349 488 m 476 350 q 467 372 472 362 q 448 381 463 381 q 425 377 431 381 q 417 366 418 373 q 420 351 416 359 q 426 335 423 343 q 434 332 430 334 q 444 331 438 331 q 461 338 453 331 q 476 350 469 345 m 198 613 q 193 624 195 618 q 189 636 191 629 q 178 637 183 636 q 168 639 174 639 l 157 639 q 151 632 153 636 q 141 625 148 628 q 134 606 136 612 q 134 597 132 601 q 142 592 136 594 q 156 583 148 590 l 167 583 q 198 613 195 583 m 600 202 q 593 218 600 213 q 576 224 586 224 q 557 218 568 224 q 552 205 555 212 q 545 193 549 199 l 562 175 q 575 172 570 172 l 583 172 q 600 202 600 184 m 669 12 q 661 28 669 20 q 648 41 654 35 q 633 31 640 35 q 617 24 627 27 q 616 19 617 22 q 616 14 616 16 q 617 4 616 8 q 620 -5 618 0 q 632 -12 627 -8 q 646 -15 637 -15 q 661 -5 654 -15 q 669 12 669 4 m 297 385 q 288 406 297 396 l 275 404 q 252 401 266 407 q 244 385 239 396 q 243 381 244 382 q 243 377 243 380 q 246 366 243 369 q 250 351 250 362 q 272 356 264 354 q 292 368 279 358 q 297 385 297 378 m 526 114 q 524 125 526 121 q 518 133 521 129 q 503 137 510 137 q 487 133 495 137 q 479 126 481 127 q 471 122 477 125 l 481 87 q 494 87 488 87 q 506 84 499 87 q 517 95 513 90 q 526 107 521 100 l 526 114 m 574 1 q 572 9 574 5 q 570 18 571 14 l 570 23 q 557 34 563 30 q 540 38 551 38 q 524 35 534 38 q 517 24 521 27 q 510 14 514 20 q 518 -1 514 3 q 525 -18 522 -5 q 539 -16 532 -16 q 552 -12 547 -16 q 565 -7 560 -11 q 574 1 570 -4 m 243 260 q 239 273 243 267 q 233 285 235 278 q 228 282 231 283 q 222 281 225 281 q 215 283 218 281 q 208 285 212 285 l 202 285 q 193 273 195 278 q 190 256 190 267 q 199 240 190 250 q 214 231 208 231 q 222 231 218 231 q 229 232 225 232 q 237 246 232 236 q 243 260 243 256 m 473 30 q 466 37 469 34 q 456 41 463 41 q 429 33 433 41 q 418 5 425 24 q 434 -9 425 -4 q 454 -18 444 -14 q 463 -9 460 -14 q 472 0 467 -4 q 473 14 472 7 q 473 30 473 22 m 186 140 l 186 152 l 172 161 l 164 161 q 140 156 149 161 q 132 134 132 151 q 138 117 132 123 q 156 111 145 111 q 180 119 170 111 q 186 140 186 133 m 129 11 q 125 30 125 20 q 115 37 118 34 q 103 39 111 39 q 83 37 96 39 q 82 28 83 33 q 79 20 81 23 q 76 11 76 15 q 83 -3 76 4 q 98 -11 91 -11 q 117 -4 107 -11 q 129 11 126 3 "},"¼":{"ha":758,"x_min":94,"x_max":723,"o":"m 556 991 q 547 1007 552 1000 q 540 1024 543 1015 q 528 1017 536 1021 q 517 1013 521 1013 q 509 1015 514 1013 q 502 1017 505 1016 q 500 1005 502 1010 q 499 994 499 1000 q 502 974 499 987 q 521 968 513 968 q 540 977 532 968 q 556 991 548 985 m 496 857 q 484 874 496 868 q 463 883 471 880 q 454 876 458 876 q 444 873 450 876 q 441 861 444 867 q 438 849 438 856 q 445 833 438 840 q 460 826 452 826 q 468 827 464 826 q 476 827 472 827 q 490 844 481 841 q 496 857 496 848 m 187 1005 q 172 1017 175 1015 q 153 1019 168 1019 q 137 1009 148 1015 q 131 1000 134 1004 q 125 991 127 996 q 153 970 133 970 q 187 1005 187 970 m 618 536 q 610 553 618 545 q 591 560 602 560 q 576 553 583 560 q 564 540 570 547 l 564 532 q 571 511 564 521 q 586 509 579 510 q 601 507 593 507 q 613 520 608 514 q 618 536 618 526 m 439 728 q 422 734 430 728 q 407 743 415 741 l 384 736 q 383 723 385 726 q 378 711 381 720 q 385 699 384 705 q 393 686 387 693 q 399 686 396 686 q 404 685 401 685 q 420 690 415 685 q 433 701 426 694 l 439 728 m 187 868 q 183 887 187 879 q 172 892 178 890 q 161 895 165 895 q 140 888 149 895 q 127 869 132 880 q 137 851 132 859 q 153 840 142 844 q 176 848 165 845 q 187 868 187 850 m 620 411 q 618 434 620 422 q 608 454 617 446 l 590 458 q 574 447 581 452 q 563 431 567 442 l 566 412 q 578 405 572 408 q 593 401 585 401 q 606 405 600 401 q 620 411 613 408 m 382 567 q 380 570 381 570 q 378 574 380 571 q 380 589 380 579 q 370 596 372 591 q 368 608 369 601 q 337 596 353 602 q 321 571 321 590 q 324 560 321 564 q 330 551 327 556 q 340 549 338 552 q 350 545 343 545 q 359 547 355 545 q 368 549 363 548 q 370 553 369 552 q 372 557 372 555 q 382 567 374 562 m 618 320 l 618 338 q 606 347 610 343 q 591 351 602 351 q 576 349 585 351 q 568 336 574 339 q 563 321 563 334 q 571 298 563 308 q 586 296 579 296 q 602 299 594 296 q 616 308 609 302 q 618 320 618 313 m 537 396 q 536 405 537 400 q 536 414 536 410 q 515 425 529 425 q 496 420 505 425 q 488 408 492 414 q 479 396 483 403 q 490 378 481 387 q 510 370 499 370 q 520 372 515 370 q 530 377 525 374 q 537 396 537 387 m 186 742 q 177 760 186 753 q 159 770 168 766 q 140 762 151 766 q 129 747 129 758 q 132 736 129 742 q 130 732 130 734 q 127 728 129 731 q 145 715 140 722 q 165 707 151 709 q 172 715 167 713 q 180 719 176 716 q 183 732 180 728 q 186 742 186 735 m 723 160 q 722 170 723 165 q 722 180 722 175 q 709 186 713 183 q 696 189 704 189 q 688 188 692 189 q 681 187 684 187 q 670 174 675 179 q 665 157 665 168 q 674 138 665 145 q 696 132 684 132 q 711 140 705 132 q 723 155 718 148 l 723 160 m 625 214 q 618 222 621 218 q 619 231 618 227 q 620 239 620 235 q 607 244 614 241 q 593 247 600 247 q 571 241 585 247 q 562 225 566 231 q 562 215 562 220 q 560 206 563 210 q 589 191 571 191 q 608 200 598 191 q 625 214 617 209 m 186 610 q 180 630 186 621 q 163 642 174 639 q 149 637 156 639 q 136 636 142 636 q 129 614 130 625 q 127 591 127 602 q 141 585 134 589 q 155 581 148 581 q 176 589 165 581 q 182 597 179 595 q 186 610 186 600 m 327 445 q 312 453 315 449 q 302 468 309 457 q 294 461 297 463 q 288 460 292 460 q 282 460 285 460 q 274 457 279 460 q 267 447 270 450 q 263 435 263 444 q 266 421 263 429 q 271 407 269 414 q 281 408 279 410 q 292 404 283 407 q 313 416 302 412 q 319 431 316 425 q 327 445 321 437 m 477 267 l 473 275 q 476 283 476 281 q 468 297 476 290 q 457 311 460 304 q 432 299 446 307 q 418 277 418 292 l 418 270 q 426 255 418 260 q 442 250 434 250 q 459 257 448 250 q 477 267 471 264 m 621 118 q 612 132 618 126 q 604 146 606 138 q 590 145 597 146 q 576 142 583 144 q 570 134 571 137 q 562 132 570 132 l 562 117 q 567 94 562 107 l 587 84 q 600 94 597 94 q 617 96 604 95 q 620 108 618 103 q 621 118 621 113 m 533 163 q 529 176 533 172 q 519 187 525 180 l 498 187 q 492 179 491 180 q 481 178 492 178 q 477 167 481 171 q 471 156 473 163 q 490 136 480 149 l 500 136 q 511 136 506 136 q 522 137 515 137 q 529 150 525 144 q 533 163 533 156 m 618 11 q 608 28 618 22 q 590 41 597 35 l 583 33 q 570 21 576 27 q 563 5 563 15 q 585 -16 563 -16 q 606 -8 594 -16 q 618 11 618 0 m 433 144 l 426 152 q 430 157 429 155 q 431 164 431 160 q 419 180 423 178 q 412 185 416 183 q 401 191 408 187 q 389 181 395 184 q 377 171 382 178 q 372 161 372 170 q 399 133 372 133 l 410 133 q 420 140 414 140 q 433 144 426 141 m 262 305 q 254 316 258 312 q 241 320 250 320 q 226 317 233 320 q 212 312 218 315 l 206 290 q 214 283 212 286 q 217 279 216 281 q 222 275 218 277 q 232 269 225 273 q 246 271 241 269 q 258 279 251 274 q 260 292 260 286 q 262 305 260 298 m 205 170 l 195 179 q 187 180 191 179 q 179 182 183 182 q 160 174 165 182 q 149 155 155 165 q 151 142 149 148 q 152 130 152 137 q 162 129 157 130 q 172 127 167 127 q 183 130 179 127 q 194 136 187 133 q 200 152 197 144 q 205 170 203 160 m 148 7 q 141 27 144 18 q 134 46 138 37 l 118 46 q 111 39 115 41 q 103 34 107 37 q 96 26 99 31 q 94 11 94 22 q 94 2 94 7 q 95 -8 94 -3 q 108 -10 102 -8 q 121 -12 114 -12 l 133 -12 q 140 -1 136 -5 q 148 7 144 3 "},"¹":{"ha":298,"x_min":118,"x_max":179,"o":"m 179 1000 q 164 1010 168 1008 q 146 1013 160 1013 q 136 1010 140 1013 q 127 1002 132 1006 q 123 994 125 998 q 118 986 121 990 q 142 966 122 966 q 170 973 161 966 q 179 1000 179 981 m 179 863 q 175 882 179 873 q 164 887 170 884 q 153 890 159 890 q 119 864 123 890 q 128 846 123 853 q 144 834 133 838 q 168 842 156 840 q 179 863 179 845 m 178 736 q 170 754 178 749 q 151 764 161 760 q 132 757 142 761 q 121 742 121 753 q 123 730 121 738 q 119 723 122 728 q 136 710 132 716 q 157 701 141 704 q 163 709 160 708 q 172 711 165 709 q 175 724 172 718 q 178 736 178 730 m 178 602 q 171 625 178 614 q 153 637 164 635 q 140 631 146 632 q 126 629 133 631 q 119 585 119 612 q 135 581 129 585 q 151 576 141 576 q 171 583 160 576 q 175 591 172 590 q 178 602 178 593 "},"¾":{"ha":826,"x_min":76,"x_max":792,"o":"m 637 987 q 629 1002 633 996 q 621 1017 624 1009 q 608 1013 616 1016 q 595 1009 601 1009 l 582 1009 q 581 997 582 998 q 576 987 579 996 l 581 975 l 581 968 q 601 963 594 963 q 622 971 614 963 q 637 987 629 979 m 576 853 q 567 871 576 865 q 547 878 557 878 q 534 876 540 878 q 522 871 529 873 q 522 857 525 863 q 519 845 519 852 q 526 832 519 838 q 536 822 532 826 q 543 823 538 822 q 549 823 547 823 l 556 823 q 564 832 560 827 q 572 840 567 837 q 576 853 576 845 m 305 1006 q 279 1032 298 1025 q 268 1025 274 1027 q 255 1024 262 1024 q 245 991 248 1009 q 270 974 255 974 q 286 977 278 974 q 302 985 294 981 q 302 996 302 990 q 305 1006 302 1001 m 321 892 q 326 898 324 895 q 326 907 328 905 q 325 916 327 914 q 321 924 323 918 q 304 930 312 930 q 287 926 294 930 q 273 916 279 922 q 272 907 273 911 q 271 898 271 903 q 278 882 271 891 q 292 873 285 873 q 302 877 297 873 q 315 883 308 880 q 321 888 321 883 l 321 892 m 214 1002 q 214 1015 214 1009 q 213 1028 213 1021 q 197 1038 205 1035 q 180 1044 190 1042 q 168 1035 174 1038 q 156 1024 161 1032 q 155 1016 156 1020 q 155 1008 155 1012 q 157 997 155 1002 q 175 991 164 991 q 197 997 187 991 q 206 996 203 996 q 214 1002 209 997 m 522 722 q 513 728 519 724 q 505 734 507 731 q 483 741 495 735 q 474 734 480 735 q 464 730 468 734 q 463 718 464 722 q 458 707 461 713 q 466 696 464 701 q 472 685 468 690 q 486 682 480 682 q 501 687 495 682 q 514 697 507 692 l 522 722 m 686 534 q 684 544 686 538 q 675 554 677 551 q 662 557 673 557 q 646 553 654 557 q 631 540 640 549 q 631 526 631 533 q 639 511 632 518 q 652 509 646 510 q 667 507 659 507 q 680 519 674 513 q 686 534 686 525 m 686 425 q 685 441 686 434 q 678 456 684 449 q 667 457 671 456 q 655 458 662 458 q 640 446 646 449 q 628 430 633 444 q 633 422 633 425 q 633 414 632 419 q 659 401 646 401 q 686 411 671 401 l 686 425 m 278 846 q 265 857 273 849 q 251 867 258 864 q 240 862 245 861 q 228 860 235 863 q 224 852 227 856 q 220 845 222 848 q 213 840 216 841 q 218 823 214 830 q 237 808 225 808 q 251 811 243 808 l 256 814 q 266 823 260 818 q 273 833 270 827 q 278 846 275 840 m 146 945 q 142 952 145 947 q 143 961 142 956 q 144 970 144 966 q 131 977 137 972 q 117 981 125 981 q 95 972 103 981 q 87 949 87 963 q 94 928 87 939 q 108 926 102 928 q 121 924 114 925 q 134 934 127 928 q 146 945 140 940 m 289 780 q 280 786 282 784 q 276 790 278 788 q 270 793 274 792 q 256 798 266 795 q 245 787 251 792 q 235 777 240 783 q 232 747 236 764 q 259 741 248 741 l 270 741 l 285 754 q 289 780 289 766 m 467 566 q 464 568 465 567 q 460 571 463 568 q 462 578 461 575 q 463 586 463 582 q 452 593 454 589 q 449 605 450 598 q 433 600 441 602 q 416 594 425 597 q 410 587 412 590 q 406 576 407 583 q 405 574 406 575 q 404 571 404 572 q 406 559 404 564 q 408 548 407 555 q 419 546 416 551 q 430 541 422 541 q 440 543 435 541 q 449 547 445 545 l 453 555 q 460 560 456 557 q 467 566 464 563 m 336 681 q 334 694 336 688 q 328 707 331 700 q 314 713 321 712 q 300 718 307 715 q 281 703 290 715 q 273 681 273 690 q 276 670 273 674 q 282 661 279 666 q 292 662 285 662 q 300 661 296 662 q 309 659 304 659 q 321 662 313 659 q 329 671 326 666 q 336 681 332 675 m 688 336 q 675 347 680 343 q 659 351 670 351 q 644 349 652 351 q 636 336 642 339 q 631 323 631 334 q 637 298 631 307 q 651 296 646 296 q 669 300 661 296 q 684 308 677 304 q 686 317 686 313 q 686 327 686 326 q 688 336 685 328 m 189 827 q 179 833 184 830 q 163 838 168 838 q 146 833 152 838 q 133 823 141 827 l 133 817 q 134 809 133 812 q 138 802 136 806 l 134 793 q 149 789 141 791 q 163 787 156 787 q 178 791 171 787 q 185 798 180 796 q 190 811 190 800 l 189 827 m 604 396 l 604 414 q 581 425 593 425 q 572 423 576 425 q 564 420 568 422 q 555 408 560 414 q 547 396 551 403 q 559 379 549 388 q 578 370 568 370 q 588 372 583 370 q 598 377 593 374 q 604 396 604 384 m 792 155 q 788 182 792 167 q 775 186 781 183 q 762 189 769 189 q 754 188 758 189 q 747 187 750 187 q 737 174 743 179 q 731 160 731 170 q 737 142 731 149 q 754 134 743 134 q 774 140 765 134 q 792 155 784 146 m 689 214 q 686 226 686 221 q 686 237 686 231 q 673 244 680 241 q 659 247 667 247 q 640 243 648 247 l 629 225 q 630 215 629 220 q 628 206 631 210 q 656 191 639 191 q 675 199 669 191 q 689 214 682 208 m 300 620 l 285 633 q 272 637 278 636 q 259 640 266 637 q 256 631 259 633 q 250 625 254 628 q 243 620 245 623 q 240 610 240 617 q 242 599 240 604 q 247 587 244 594 q 260 581 254 585 q 274 575 267 578 q 283 587 279 583 q 291 593 288 590 q 297 601 294 595 q 300 620 300 606 m 408 444 q 393 450 396 446 q 384 464 391 454 q 369 458 377 458 q 354 454 361 457 q 347 444 350 448 q 345 433 345 439 q 351 407 345 420 q 362 406 358 407 q 373 401 366 404 l 397 420 l 408 444 m 544 267 l 540 275 q 543 283 543 281 q 536 298 543 292 q 526 311 529 304 q 517 306 524 309 q 503 298 510 302 q 492 290 496 294 q 487 282 487 286 q 491 260 487 271 q 509 250 495 250 q 526 257 515 250 q 544 267 537 264 m 208 613 q 205 628 208 620 q 192 631 195 631 q 180 639 189 631 q 161 625 174 629 q 156 612 159 618 q 153 600 153 606 q 163 582 153 587 q 183 572 174 576 q 194 579 189 576 q 205 587 199 582 q 207 600 206 594 q 208 613 208 606 m 688 125 q 681 132 684 127 q 673 146 674 138 q 659 145 666 146 q 644 142 651 144 q 637 133 640 140 q 632 132 635 132 q 627 132 629 132 q 627 117 628 125 q 629 103 627 110 q 640 94 632 100 q 651 87 648 87 q 663 91 658 87 q 671 98 667 95 q 680 100 678 95 q 685 110 682 104 q 688 125 686 115 m 132 623 q 127 644 129 636 q 119 663 126 651 q 110 666 114 666 q 98 663 103 666 q 85 661 92 661 q 76 633 76 646 q 79 618 76 627 q 93 614 85 616 q 107 612 100 613 q 132 623 121 621 m 601 165 q 595 177 601 172 q 586 187 590 182 l 566 187 q 559 179 560 182 q 549 178 556 178 q 548 171 549 174 q 542 165 544 167 q 540 156 540 163 q 556 136 549 148 l 566 136 q 577 136 572 136 q 587 137 582 137 q 595 151 590 144 q 601 165 601 157 m 688 12 q 675 29 688 23 q 655 41 663 35 l 651 33 q 636 21 643 27 q 629 5 629 15 q 637 -11 629 -4 q 654 -18 644 -18 q 675 -7 662 -18 q 688 12 688 3 m 503 164 l 490 175 q 481 184 487 180 q 471 191 475 189 q 452 179 464 186 q 441 161 441 172 q 467 133 441 133 l 479 133 q 486 140 480 140 q 498 144 491 141 q 492 152 495 146 q 503 164 500 160 m 345 301 q 335 312 342 309 q 321 315 328 315 q 292 311 305 315 l 286 289 q 294 281 292 285 q 298 276 296 278 q 303 272 300 274 q 313 267 307 270 q 338 276 336 267 q 345 301 340 285 m 286 168 l 278 179 q 270 180 274 179 q 260 180 266 180 q 241 176 251 180 q 235 167 237 172 q 229 155 232 161 q 231 142 229 148 q 232 129 232 136 q 243 127 239 129 q 255 126 248 126 q 265 130 258 126 q 275 134 273 133 q 281 151 278 144 q 286 168 285 159 m 229 7 q 223 27 225 18 q 217 46 221 37 l 201 46 q 191 38 197 41 q 182 33 186 35 q 175 25 178 30 q 172 11 172 20 q 173 1 172 5 q 175 -8 174 -3 q 189 -10 182 -8 q 202 -12 195 -12 l 217 -12 q 221 -2 217 -5 q 229 7 225 1 "},"³":{"ha":406,"x_min":76,"x_max":336,"o":"m 307 993 q 294 1006 301 1000 q 279 1013 286 1013 q 267 1009 273 1010 q 255 1005 262 1008 q 245 975 248 991 q 269 959 255 959 q 302 968 283 959 q 303 981 302 975 q 307 993 304 986 m 321 876 q 326 882 324 879 q 326 891 328 888 q 319 909 327 902 q 300 916 311 916 q 285 910 290 916 q 273 898 279 905 q 272 890 273 894 q 271 882 271 886 q 278 866 271 873 q 293 859 285 859 q 303 863 298 859 q 313 867 308 867 q 321 871 319 867 l 321 876 m 214 987 q 214 998 214 993 q 213 1009 213 1004 q 198 1022 203 1019 q 179 1027 193 1025 q 167 1019 172 1020 q 156 1005 161 1017 q 155 999 156 1002 q 155 991 155 996 q 161 979 155 983 q 174 975 167 975 q 195 980 179 975 q 214 987 210 985 m 278 826 q 264 840 271 833 q 251 853 258 846 q 239 846 244 845 q 228 841 235 848 q 218 830 227 836 q 212 826 214 827 q 216 810 213 817 q 222 798 218 803 q 235 793 227 793 q 251 796 243 793 l 259 799 q 266 807 262 802 q 272 816 269 811 q 278 826 275 821 m 146 929 l 142 936 q 143 944 142 940 q 144 952 144 948 q 131 960 137 956 q 117 964 125 964 q 96 956 104 964 q 87 935 87 947 q 94 913 87 924 q 107 911 100 913 q 121 909 114 909 q 134 918 127 913 q 146 929 140 924 m 289 764 q 280 770 282 768 q 276 774 278 772 q 270 778 274 776 q 256 783 266 780 q 245 771 251 776 q 235 761 240 766 q 235 745 236 753 q 233 731 235 738 q 270 724 251 724 q 285 741 283 735 q 289 764 286 747 m 336 665 q 334 676 336 671 q 330 688 332 681 l 315 704 l 290 697 q 279 682 285 693 q 273 663 273 670 q 276 654 273 658 q 282 646 279 650 q 295 644 289 646 q 308 643 301 643 q 320 646 312 643 q 329 654 326 650 q 336 665 332 659 m 194 811 q 180 819 190 815 q 163 823 170 823 q 147 817 152 823 q 133 807 142 811 l 133 800 q 134 793 133 796 q 138 785 136 789 q 136 776 136 777 q 149 771 142 773 q 163 769 156 769 q 178 773 171 769 q 182 779 179 777 q 187 784 184 781 q 192 793 190 787 q 194 811 194 799 m 300 604 l 286 617 q 273 621 279 620 q 259 624 266 621 q 260 617 259 618 q 247 608 254 613 q 240 595 240 604 q 242 584 240 589 q 247 574 244 579 q 259 564 254 567 q 275 559 264 562 q 283 570 279 567 q 291 576 288 572 q 297 585 294 579 q 300 604 300 590 m 209 600 q 206 614 209 606 q 193 617 197 617 q 182 625 190 617 q 172 616 175 616 q 163 609 170 616 q 157 599 160 604 q 155 587 155 594 q 164 568 155 574 q 184 559 174 563 q 195 566 190 563 q 206 575 201 570 q 208 587 208 582 q 209 600 209 593 m 132 606 q 128 627 129 621 q 119 647 127 633 q 110 650 114 650 q 98 648 103 650 q 85 644 92 646 q 76 617 76 629 q 79 601 76 612 q 93 597 85 598 q 109 595 100 595 q 132 606 119 605 "},"²":{"ha":416,"x_min":73,"x_max":349,"o":"m 349 933 q 337 950 343 944 q 317 956 331 956 q 309 956 313 956 q 301 955 305 955 q 292 941 294 948 q 288 928 290 935 q 296 915 289 924 q 308 906 304 906 q 331 916 319 906 q 349 933 343 925 m 270 997 q 263 1017 270 1006 q 250 1022 256 1019 q 237 1025 244 1025 l 232 1025 q 221 1010 225 1019 q 210 996 217 1002 q 235 978 218 978 q 248 979 241 978 q 260 981 254 979 q 270 997 270 987 m 336 826 l 326 857 q 310 857 319 857 q 296 852 301 857 q 286 845 292 850 q 279 834 279 840 q 294 809 279 815 q 324 803 308 803 q 328 816 324 812 q 336 826 331 819 m 172 945 q 170 970 170 960 q 165 994 170 979 q 155 989 160 990 q 146 989 151 989 q 137 990 141 990 l 121 972 q 126 948 121 959 q 146 937 132 937 q 157 941 155 937 q 172 945 159 945 m 260 762 q 239 783 260 783 q 229 782 233 783 q 217 780 224 781 q 212 765 216 772 q 208 750 209 758 q 220 739 210 743 q 236 734 229 734 q 254 743 247 734 q 260 762 260 751 m 137 875 q 127 897 133 887 q 107 906 122 906 q 88 900 96 906 q 73 886 80 894 q 82 873 80 880 q 88 860 84 867 q 104 856 96 856 q 122 863 114 856 q 137 875 130 869 m 331 594 q 323 611 331 604 q 308 625 315 618 q 289 613 302 623 q 275 598 275 604 q 279 578 275 587 q 292 572 286 575 q 305 570 298 570 q 322 578 313 570 q 331 594 331 586 m 186 681 q 184 691 186 686 q 179 700 182 696 q 167 703 171 703 q 159 702 163 703 q 151 701 155 701 q 134 682 137 688 q 134 678 133 680 q 133 669 133 673 q 134 663 133 666 q 137 661 134 659 q 142 656 140 659 q 152 652 144 652 q 165 650 160 652 q 186 673 176 659 l 186 681 m 233 586 q 231 596 233 591 q 229 608 229 601 q 209 620 221 618 q 186 621 197 621 q 178 609 183 614 q 170 597 172 604 q 178 583 174 586 q 186 567 183 581 q 212 572 201 570 q 233 586 222 574 m 134 614 q 124 623 129 621 q 110 625 119 625 q 87 614 92 625 q 77 590 83 604 q 114 568 91 572 l 133 583 q 134 598 133 590 q 134 614 134 606 "},"¦":{"ha":308,"x_min":118,"x_max":187,"o":"m 184 1008 q 170 1021 178 1015 q 151 1028 161 1028 q 143 1027 146 1028 q 136 1025 140 1027 q 128 1012 133 1019 q 123 997 123 1005 q 130 980 123 986 q 146 970 137 974 q 164 972 156 970 q 180 977 172 974 q 184 1008 184 993 m 187 876 q 172 890 180 887 q 152 898 163 894 q 137 894 144 898 q 123 888 130 890 l 123 872 q 132 849 123 859 q 156 840 141 840 q 172 845 167 840 q 183 857 176 850 q 187 876 184 863 m 182 753 q 167 762 174 757 q 151 768 160 768 q 132 759 140 768 q 123 739 123 750 q 129 724 123 730 q 141 711 134 718 q 172 716 160 711 q 180 734 179 726 q 182 753 182 742 m 180 617 l 180 629 q 165 634 170 629 q 151 639 160 639 q 138 636 144 639 q 126 631 133 633 q 123 618 123 623 q 127 603 123 610 q 133 587 130 595 q 146 585 140 585 q 159 581 153 585 q 180 617 180 590 m 184 377 q 180 387 184 384 q 175 397 175 391 q 157 405 161 404 q 138 406 153 406 q 130 394 136 397 q 123 382 123 391 q 125 373 123 377 q 126 363 126 369 q 138 353 130 357 q 155 349 146 349 q 163 349 159 349 q 172 351 167 350 q 180 363 175 358 q 184 377 184 369 m 183 250 q 180 263 183 255 q 168 269 172 266 q 157 278 164 273 l 153 274 q 149 275 151 274 q 144 275 146 275 q 138 273 141 275 q 126 255 126 266 q 130 239 126 247 q 136 224 133 231 q 153 220 144 220 q 175 224 164 220 q 180 237 178 231 q 183 250 183 243 m 152 90 q 162 93 156 90 q 174 101 168 96 q 182 111 179 106 q 183 118 186 115 q 182 133 182 123 q 164 145 170 136 l 156 145 q 152 144 153 145 q 148 144 151 144 q 141 148 142 146 q 127 133 136 141 q 118 115 118 125 q 131 98 118 106 q 152 90 144 90 m 183 -18 l 182 -12 q 179 0 182 -5 q 174 12 176 5 q 162 15 167 12 q 151 18 157 18 q 138 14 145 18 q 126 7 132 9 q 126 -5 126 0 q 122 -16 126 -11 q 138 -33 129 -26 q 159 -41 146 -41 q 174 -38 163 -41 q 177 -27 174 -27 q 183 -18 180 -27 "},"−":{"ha":495,"x_min":62,"x_max":431,"o":"m 431 487 q 427 499 431 495 q 418 510 423 503 q 404 513 410 513 q 377 506 391 513 q 371 492 373 499 q 366 477 369 484 q 380 465 374 469 q 397 456 387 461 q 421 464 411 456 q 431 487 431 472 m 334 486 q 317 500 324 492 q 300 515 311 509 q 286 509 297 511 q 269 503 275 507 q 267 493 267 498 q 266 483 267 488 l 275 461 q 288 458 282 461 q 300 454 293 454 q 311 457 305 454 q 316 463 313 461 q 321 466 319 464 q 327 472 324 468 q 334 486 330 476 m 231 487 q 228 498 231 494 q 222 509 225 503 q 209 511 216 509 q 195 514 202 514 q 183 511 186 514 q 174 502 180 509 q 168 490 171 495 q 165 477 165 484 q 176 461 165 468 q 194 454 186 454 q 205 456 201 454 q 217 460 210 457 q 227 472 222 465 q 231 487 231 479 m 129 491 q 125 503 126 498 q 123 513 125 507 q 114 512 118 513 q 104 511 110 511 q 95 513 102 513 q 66 498 77 513 q 64 488 66 491 q 62 479 62 486 q 76 462 62 468 q 99 454 90 456 q 109 458 106 456 q 119 464 113 461 q 125 477 122 471 q 129 491 129 483 "},"×":{"ha":515,"x_min":62,"x_max":454,"o":"m 454 637 q 452 647 452 643 q 452 657 452 652 q 453 667 453 662 q 445 671 446 669 q 441 675 444 673 q 433 678 438 677 q 416 681 429 680 q 400 673 410 675 q 393 670 396 671 q 392 662 392 666 q 391 656 392 659 q 392 651 391 652 q 392 641 392 643 q 397 632 392 639 q 404 629 403 632 q 410 623 406 627 q 420 623 416 623 q 430 618 423 623 q 443 627 437 624 q 454 637 449 631 m 370 568 q 359 591 370 585 q 335 600 349 597 q 317 585 326 593 q 309 566 309 578 q 320 548 309 553 q 342 543 331 543 q 361 550 353 543 q 370 568 370 557 m 122 648 q 112 671 122 661 q 91 689 102 682 q 86 679 90 681 q 79 674 83 677 q 71 666 75 671 q 65 647 66 661 l 73 631 q 94 624 80 624 l 106 624 q 122 648 122 631 m 453 336 l 422 354 q 408 345 415 349 q 393 336 400 342 q 395 328 395 334 q 392 316 395 324 q 407 302 403 305 q 423 292 411 298 q 440 301 430 300 q 450 317 450 302 q 450 327 450 324 q 453 336 450 330 m 370 412 q 363 424 368 419 q 357 435 359 429 l 340 435 l 332 435 q 308 418 321 425 q 311 413 309 415 q 312 408 312 411 q 313 396 312 400 q 317 385 313 392 q 327 382 324 385 q 334 376 330 380 q 352 380 345 376 q 369 392 359 385 q 368 402 366 399 q 370 412 370 406 m 292 483 q 280 505 292 494 q 256 515 269 515 l 244 515 q 235 506 239 510 q 225 498 231 502 q 227 489 225 492 q 231 481 228 486 l 231 475 q 241 463 237 468 q 256 458 245 458 q 279 465 267 458 q 292 483 292 471 m 206 572 q 202 586 206 579 q 189 593 195 591 q 175 597 182 594 q 166 592 170 591 q 157 589 163 593 q 149 576 148 582 q 146 562 149 570 q 165 544 151 553 q 180 534 172 538 q 193 541 187 536 q 202 553 198 545 q 206 572 206 560 m 206 400 q 203 412 203 407 q 195 422 202 416 q 186 430 193 429 q 174 433 179 431 l 167 429 q 154 422 160 429 q 148 410 148 416 q 148 404 148 406 q 145 400 148 403 q 153 387 148 392 q 164 376 157 382 q 171 375 167 376 q 178 374 175 374 q 195 383 187 374 q 206 400 203 392 m 122 320 q 116 338 122 331 q 102 351 110 346 q 83 347 91 349 q 72 342 76 346 q 66 332 68 339 q 62 312 64 326 q 99 293 79 293 q 109 299 103 297 q 119 304 114 301 q 122 320 122 315 "}," ":{"ha":541,"x_min":0,"x_max":0,"o":""},"!":{"ha":305,"x_min":118,"x_max":184,"o":"m 182 989 q 173 1008 182 1000 q 157 1023 164 1016 q 142 1020 149 1023 q 129 1015 136 1017 q 127 996 129 1005 q 126 978 126 987 q 135 973 133 977 q 141 966 137 970 q 178 974 159 966 q 180 982 179 978 q 182 989 182 986 m 176 829 q 178 839 179 837 q 178 856 178 841 l 178 863 l 167 872 q 157 873 161 872 q 146 875 152 875 q 135 873 140 875 q 123 869 130 871 q 123 854 123 863 q 121 840 123 846 q 130 827 125 833 q 138 814 134 821 q 160 819 146 819 q 176 829 174 818 m 182 696 q 178 705 180 700 q 171 723 172 716 q 159 724 164 723 q 148 726 155 726 q 140 725 144 726 q 134 724 137 724 l 119 709 l 118 689 q 151 667 127 667 q 165 671 160 667 q 175 681 171 675 q 182 696 179 686 m 182 545 q 181 557 182 552 q 180 570 180 563 q 166 578 174 574 q 151 582 159 582 q 140 581 145 582 q 132 578 136 579 q 126 566 129 572 q 123 553 123 560 q 127 532 123 541 q 141 524 134 528 q 156 519 148 519 q 174 528 165 519 q 182 545 182 536 m 183 384 l 183 397 q 180 415 183 407 q 171 430 176 423 q 163 431 167 430 q 155 431 159 431 q 126 422 142 431 q 125 409 125 414 q 119 397 126 404 q 131 385 126 391 q 142 374 136 378 l 165 374 q 183 384 176 382 m 183 256 q 172 276 179 266 q 152 286 164 286 q 137 280 145 286 q 122 270 129 274 q 123 258 123 266 l 123 241 q 152 227 136 227 l 163 227 q 183 256 182 237 m 184 96 q 172 108 178 103 q 160 117 167 113 q 141 115 151 117 q 123 109 132 114 q 118 88 118 95 q 119 78 118 83 q 122 68 121 73 q 129 67 123 68 q 140 65 134 66 q 150 62 145 64 q 156 61 155 61 q 168 65 164 61 q 174 75 172 69 q 178 86 176 80 q 184 96 180 92 m 180 1 l 180 12 q 167 22 174 18 q 152 31 160 27 q 134 24 140 24 q 122 7 127 24 q 119 -5 119 -1 q 125 -20 119 -12 q 136 -22 132 -19 q 146 -27 140 -24 l 172 -22 q 178 -11 175 -16 q 180 1 180 -5 "},"\"":{"ha":444,"x_min":92,"x_max":354,"o":"m 351 986 q 339 1015 351 1000 q 329 1016 334 1015 q 319 1017 324 1017 q 301 1005 307 1017 q 293 983 296 993 q 297 973 294 978 q 302 962 300 968 q 316 956 309 959 q 331 952 323 954 l 351 958 q 351 967 351 963 q 350 977 350 971 q 351 986 351 979 m 353 884 q 350 897 353 894 q 340 907 347 901 q 328 913 334 910 q 316 917 323 916 q 300 905 307 914 q 293 884 293 895 q 298 864 293 878 q 311 854 304 859 q 327 850 319 850 q 347 860 335 850 q 350 872 347 867 q 353 884 353 878 m 350 789 q 324 815 350 810 l 300 808 q 296 793 300 796 q 293 781 293 791 q 296 770 293 776 q 304 765 300 768 q 313 760 309 762 q 324 753 319 755 q 336 761 331 755 q 354 781 349 770 q 351 785 353 784 q 350 789 350 787 m 149 985 q 145 1001 149 994 q 136 1015 141 1008 q 127 1016 130 1015 q 118 1017 123 1017 q 99 1006 103 1017 q 92 983 95 994 q 96 973 94 978 q 102 963 99 968 q 112 957 109 959 q 123 955 115 955 q 136 956 130 955 q 148 958 141 956 l 148 977 q 149 985 149 979 m 151 886 q 138 907 151 899 q 115 917 126 914 q 100 905 106 914 q 94 887 94 897 q 100 861 94 872 q 123 850 107 850 q 134 853 129 850 q 144 859 138 856 q 148 872 145 865 q 151 886 151 879 m 351 678 q 349 691 351 685 q 345 704 347 697 q 330 711 338 709 q 315 712 323 712 l 301 700 q 299 692 301 696 q 294 684 297 688 q 302 661 294 671 q 324 650 311 650 q 338 654 335 650 q 349 663 342 658 q 351 678 351 674 m 151 781 q 146 799 144 788 q 140 807 149 810 q 122 815 132 814 l 99 808 q 96 794 99 799 q 92 783 92 789 q 95 770 92 779 q 103 764 98 768 q 113 758 109 761 q 122 751 118 754 q 134 760 129 754 q 151 781 144 766 m 148 675 q 146 690 149 684 q 141 704 144 697 q 114 712 129 712 q 100 699 106 705 q 94 681 94 693 q 102 660 94 670 q 122 650 110 650 q 136 654 132 650 q 148 663 141 658 l 148 675 "},"#":{"ha":734,"x_min":56,"x_max":678,"o":"m 595 864 q 587 881 593 875 q 572 894 582 887 q 561 890 567 894 q 552 887 555 887 l 541 887 l 541 876 q 545 862 541 868 q 553 849 548 856 q 571 845 562 845 q 581 846 578 845 q 589 854 585 852 q 595 864 593 856 m 581 762 q 579 770 581 766 q 576 777 578 773 q 562 783 570 780 q 547 787 555 787 q 534 784 540 787 q 528 773 532 779 q 525 761 525 768 q 532 745 525 751 q 552 739 545 739 q 572 745 563 739 q 581 762 581 751 m 678 659 q 669 675 678 670 q 650 681 661 681 q 625 674 639 681 l 624 635 l 648 632 q 663 633 658 632 q 673 645 667 642 q 678 659 678 648 m 581 650 q 574 662 574 656 q 574 674 574 667 q 562 677 567 675 q 551 680 557 680 q 541 679 545 680 q 530 678 536 678 q 524 669 528 673 q 519 659 519 666 q 523 646 519 652 q 530 633 526 640 q 546 631 538 631 q 562 631 553 631 q 570 641 563 636 q 581 650 576 646 m 312 859 q 305 876 309 867 q 294 892 301 884 l 275 895 q 262 887 267 892 q 251 876 256 882 q 248 867 248 871 q 256 852 248 857 q 270 844 263 848 q 280 844 275 844 q 290 841 285 845 q 301 849 297 844 q 312 859 305 854 m 469 658 l 469 662 q 458 674 464 671 q 442 677 453 677 q 430 673 435 677 q 419 667 425 670 q 418 660 419 663 q 418 652 418 656 q 419 646 418 647 q 437 634 429 635 q 458 632 446 633 q 465 644 460 639 q 469 658 469 650 m 552 551 l 552 560 q 534 571 543 566 q 514 576 525 576 l 507 576 l 488 552 q 493 541 491 547 q 500 530 495 534 q 515 525 505 528 q 532 519 525 522 q 545 534 537 528 q 552 551 552 540 m 293 758 l 285 779 q 275 783 281 783 q 263 788 269 784 q 254 783 258 784 q 248 782 251 783 q 242 779 245 781 q 233 766 239 776 l 236 749 q 248 739 241 743 q 260 735 254 735 q 280 743 269 735 q 293 758 292 750 m 368 656 l 368 663 q 354 677 358 677 q 335 681 350 678 q 326 678 330 680 q 316 677 321 677 q 312 667 313 671 q 311 656 311 663 q 318 640 311 646 q 332 629 326 635 l 336 633 q 346 631 338 633 q 361 640 354 633 q 368 656 368 646 m 533 437 q 530 452 533 448 q 522 463 528 456 q 506 467 514 467 q 491 463 498 467 q 477 457 484 460 q 477 446 479 448 q 472 437 476 444 q 496 422 480 423 q 510 419 500 419 l 521 419 q 526 429 524 426 q 533 437 529 433 m 613 340 q 609 354 613 347 q 585 363 597 363 q 567 359 576 363 q 562 350 564 354 q 556 339 559 346 q 566 319 556 326 q 587 311 576 313 q 604 323 594 315 q 613 340 613 331 m 262 652 q 253 671 262 665 q 236 686 244 678 q 217 674 227 678 q 208 655 208 670 q 218 636 208 642 q 239 625 228 631 q 246 635 241 635 q 259 639 251 636 q 262 652 262 647 m 514 335 q 510 347 514 342 q 505 358 506 351 q 488 359 495 357 q 472 363 480 361 q 468 356 471 358 q 462 353 465 354 q 456 348 458 351 q 454 338 454 345 l 446 334 q 463 319 457 323 q 483 309 468 316 q 492 311 488 309 q 500 316 495 313 q 507 317 506 316 q 514 335 507 317 m 160 658 q 156 667 160 663 q 148 673 152 670 q 134 680 144 680 q 113 674 118 680 q 96 658 107 669 q 104 648 103 651 q 108 644 106 646 q 114 638 110 642 q 130 628 118 635 q 146 633 137 635 q 157 644 155 632 q 160 658 157 654 m 252 541 q 251 555 252 548 q 247 568 250 562 q 222 572 235 572 q 202 567 216 572 q 199 558 202 562 q 197 549 197 555 q 198 540 197 544 q 201 530 199 536 q 214 528 208 530 q 227 525 220 525 q 251 530 237 525 q 252 541 252 534 m 411 338 q 408 351 411 346 q 400 363 404 357 l 389 363 q 378 363 382 363 q 368 366 374 363 q 355 342 355 354 q 364 321 355 330 q 384 307 373 312 q 402 319 393 313 q 411 338 411 326 m 500 227 q 494 244 500 236 q 477 252 488 252 q 460 248 468 252 q 445 237 452 243 q 444 232 444 236 q 444 227 444 229 q 445 221 445 224 l 444 216 q 458 207 450 210 q 475 203 467 203 q 493 210 486 203 q 500 227 500 216 m 237 449 l 225 467 q 216 470 218 469 q 206 475 213 471 q 196 469 201 472 q 186 463 191 467 l 175 439 q 183 422 180 429 q 197 412 186 416 q 211 418 203 415 q 225 425 218 420 q 237 449 229 437 m 316 342 q 301 353 307 346 q 285 361 296 361 q 272 361 278 361 q 259 363 266 362 l 256 343 q 260 326 260 334 q 267 311 260 319 l 279 311 q 316 342 307 311 m 488 125 q 481 136 486 136 q 473 151 476 137 q 469 147 471 148 q 464 145 467 146 q 452 147 458 145 q 439 151 445 149 q 435 138 439 141 q 423 127 430 134 q 431 114 429 121 q 438 100 433 107 q 448 98 445 100 q 457 95 452 95 q 477 104 469 95 q 488 125 484 114 m 216 335 q 206 359 216 349 q 195 361 199 359 q 183 362 190 362 q 172 359 178 359 q 159 357 165 358 l 159 343 q 161 327 159 332 q 180 312 170 317 q 193 305 186 308 q 202 316 197 311 q 210 326 206 320 q 216 335 213 331 m 113 346 q 102 354 106 350 q 90 358 99 358 q 83 357 84 358 q 77 358 81 358 q 65 353 71 358 q 56 345 60 349 q 62 323 56 334 q 80 312 68 312 q 94 315 88 312 q 107 321 100 317 q 111 334 110 328 q 113 346 113 339 m 201 225 l 193 247 q 183 252 184 248 q 171 256 182 255 q 157 249 164 251 q 142 241 149 247 q 141 233 142 237 q 140 225 140 229 l 140 213 q 152 208 146 209 q 164 202 157 206 q 182 211 176 210 q 201 225 189 212 m 180 123 q 171 140 180 134 q 152 146 161 146 q 140 146 145 146 q 127 145 134 145 l 121 125 q 148 100 122 100 q 167 102 160 100 q 176 111 171 106 q 180 123 180 117 "},"$":{"ha":667,"x_min":47,"x_max":604,"o":"m 604 882 q 598 897 604 886 q 590 914 593 909 l 583 909 q 574 911 578 910 q 564 911 570 911 q 554 901 562 902 q 547 886 547 899 q 551 865 547 875 q 562 859 557 861 q 572 856 566 856 q 584 857 579 856 q 594 860 589 859 q 600 871 595 867 q 604 882 604 876 m 495 944 q 484 970 495 963 q 458 981 473 977 l 456 974 q 447 967 450 971 q 441 959 444 963 q 446 945 445 949 q 448 936 446 940 q 454 929 449 932 q 469 921 458 926 q 479 925 475 924 q 488 929 484 926 q 495 944 495 936 m 359 1082 q 353 1095 359 1089 q 339 1101 347 1101 q 320 1097 330 1101 q 301 1090 311 1093 q 309 1063 305 1076 q 332 1050 313 1050 q 354 1059 345 1050 q 358 1071 357 1066 q 359 1082 359 1076 m 363 982 q 343 994 350 991 q 321 1000 336 996 q 311 985 316 991 q 302 971 305 979 q 310 956 308 962 q 320 943 312 949 l 327 945 q 338 943 332 943 q 350 952 346 947 q 361 962 354 958 q 358 977 361 968 l 363 982 m 218 933 q 216 944 218 939 q 212 955 214 949 q 193 960 202 959 q 174 964 183 960 l 155 928 q 162 918 159 922 q 171 907 165 913 q 212 913 194 907 q 216 922 213 918 q 218 933 218 926 m 488 469 l 488 476 q 484 491 490 484 q 472 503 479 498 q 465 500 469 500 q 439 497 448 500 q 430 473 430 494 l 430 463 q 440 452 435 457 q 453 448 445 448 q 474 452 468 448 q 488 469 480 457 m 587 372 q 580 387 581 378 q 568 401 579 396 q 564 401 566 401 q 559 400 562 400 q 548 401 552 400 q 530 383 529 397 q 526 357 532 369 q 537 349 532 353 q 549 346 543 346 q 561 347 556 346 q 572 351 566 349 q 581 360 579 358 q 587 372 583 362 m 148 808 q 140 824 145 817 q 130 838 136 831 q 113 836 121 836 q 95 838 104 837 q 89 823 94 830 q 84 808 84 817 l 84 800 q 96 791 91 796 q 113 785 102 785 q 132 793 123 785 q 148 808 141 802 m 365 547 q 357 558 362 553 q 349 568 353 563 q 334 568 342 568 q 317 567 326 567 q 312 552 315 556 q 309 536 309 548 q 311 528 309 532 q 315 521 312 525 q 328 515 321 518 q 342 511 335 511 q 354 516 350 511 q 363 525 358 521 q 364 536 363 530 q 365 547 365 541 m 252 620 q 245 629 248 624 q 237 639 243 633 q 231 640 235 639 q 225 640 228 640 q 204 632 213 640 q 195 612 195 624 q 198 598 195 605 q 201 583 201 591 q 223 585 214 585 q 238 587 232 585 q 248 596 244 589 q 252 620 251 604 m 175 686 q 170 699 175 696 q 159 707 165 701 l 153 707 q 146 707 148 707 q 138 709 145 707 q 121 698 125 703 q 117 678 117 693 q 124 661 117 669 q 141 652 132 652 q 153 654 148 652 q 165 659 159 656 q 172 672 168 667 q 175 686 175 677 m 600 222 q 583 241 593 237 q 559 248 574 244 q 549 240 555 243 q 538 232 544 237 q 537 223 538 228 q 536 214 536 218 q 544 199 536 208 q 559 190 552 190 q 567 191 563 190 q 576 191 571 191 q 588 206 582 199 q 600 222 594 213 m 503 106 q 500 115 503 111 q 498 125 498 118 q 479 130 487 130 q 469 130 472 130 q 458 133 465 130 q 450 121 454 126 q 439 110 445 117 q 444 96 439 102 q 452 83 449 90 q 465 80 463 80 q 475 81 471 80 q 486 81 480 81 q 496 92 490 88 q 503 106 503 96 m 363 56 q 360 66 359 62 q 357 76 361 71 q 341 85 350 85 q 323 90 332 85 q 309 79 316 84 q 302 64 302 73 q 302 57 302 58 q 298 52 302 56 q 311 39 305 45 q 326 30 316 34 q 338 33 332 31 q 351 37 345 34 q 357 47 354 43 q 363 56 361 50 m 224 91 q 217 111 224 102 q 198 121 210 121 q 186 118 191 121 q 175 115 182 115 q 169 103 172 109 q 165 91 165 98 q 172 73 165 80 q 187 61 179 66 q 213 68 202 64 q 224 91 224 73 m 363 -65 l 361 -33 l 343 -27 q 340 -28 342 -27 q 336 -28 339 -28 q 321 -28 326 -28 q 307 -34 317 -28 q 302 -50 304 -42 q 300 -66 301 -58 q 331 -79 312 -79 l 345 -79 l 363 -65 m 113 171 q 103 187 106 176 l 91 193 l 72 193 q 59 185 65 193 q 47 174 53 178 q 50 171 49 172 q 52 168 50 170 q 49 157 49 160 q 58 141 49 148 q 76 134 68 134 q 92 138 84 134 q 109 142 99 142 q 108 157 106 153 q 113 171 110 160 "},"%":{"ha":833,"x_min":35,"x_max":812,"o":"m 685 879 q 674 907 675 892 q 660 911 667 910 q 646 914 652 913 q 637 909 640 913 q 627 906 633 906 q 622 897 624 902 q 620 887 620 892 q 627 868 620 876 q 644 854 635 860 q 651 859 650 857 q 661 854 655 857 q 673 866 667 861 q 685 879 680 871 m 604 746 q 593 773 604 762 q 583 775 587 773 q 572 777 578 777 q 563 777 567 777 q 553 774 559 776 q 548 763 551 768 q 543 751 545 758 q 550 731 543 736 q 568 719 557 726 q 587 725 579 720 q 604 736 594 730 l 604 746 m 334 845 q 328 850 331 846 q 315 865 324 853 q 303 867 308 865 q 292 869 298 869 q 277 863 283 869 q 266 852 271 857 q 267 842 266 846 q 267 831 267 837 l 267 826 q 275 819 270 821 q 282 811 281 818 q 300 812 292 811 q 317 812 308 812 q 324 825 321 819 q 330 836 327 831 q 334 845 332 841 m 524 614 q 518 625 521 620 q 513 635 515 629 q 486 642 502 642 l 476 642 q 465 627 469 635 q 461 609 461 618 q 465 599 461 604 q 469 589 468 594 q 477 588 473 589 q 484 587 481 587 l 498 587 q 507 589 503 587 q 517 593 511 590 l 524 614 m 800 315 q 796 332 796 323 q 792 349 796 340 q 779 351 781 347 q 768 357 777 354 q 754 345 761 350 q 741 334 747 340 l 741 323 q 753 301 739 305 q 781 297 766 297 l 800 315 m 363 736 q 357 749 361 743 q 349 762 353 755 q 332 765 338 765 q 319 762 327 765 q 307 748 312 754 q 302 731 302 742 l 302 722 q 317 713 313 719 q 332 707 321 707 q 356 718 355 707 q 363 736 357 728 m 201 894 l 193 916 q 180 919 183 917 q 171 925 178 921 q 159 924 164 925 q 148 922 155 924 q 134 894 134 911 q 136 886 134 890 q 137 876 137 882 q 151 871 144 872 q 165 864 159 869 q 185 876 179 872 q 201 894 191 880 m 669 393 q 666 406 669 400 q 663 419 663 412 q 656 422 658 420 q 652 425 654 423 q 647 427 650 426 q 636 429 644 429 q 623 420 629 426 q 610 411 617 415 l 614 406 q 613 399 614 403 q 612 392 612 395 q 623 378 616 384 q 639 372 629 372 l 646 372 q 656 379 650 376 q 669 385 662 382 l 669 393 m 812 205 q 806 222 812 216 q 793 236 800 229 q 776 235 784 236 q 760 233 768 235 q 750 205 750 217 q 751 195 750 199 q 753 186 751 191 q 768 181 764 186 q 783 176 773 176 q 794 180 789 176 q 804 186 799 183 q 812 205 812 194 m 331 612 q 319 633 331 627 q 293 640 308 640 l 281 640 q 275 626 281 632 q 270 612 270 620 q 281 593 270 601 q 301 585 292 585 q 316 591 308 585 q 331 602 324 598 l 331 612 m 445 479 q 441 490 445 486 q 437 499 438 494 q 424 505 430 502 q 411 507 418 507 q 404 507 407 507 q 396 505 400 506 q 387 491 391 498 q 382 473 382 484 l 382 464 l 406 448 q 438 457 422 448 q 441 469 437 467 q 445 479 445 472 m 96 804 q 89 813 92 808 q 81 821 85 818 q 62 823 71 823 q 47 821 52 823 q 39 808 43 814 q 35 795 35 803 q 39 783 35 788 q 45 773 42 779 l 68 765 q 80 774 75 769 q 92 783 85 780 q 94 793 92 789 q 96 804 96 798 m 762 107 q 755 122 762 114 q 742 133 747 130 l 732 133 q 697 119 715 133 q 705 89 701 96 q 732 72 709 81 q 742 78 736 76 q 753 83 747 80 q 759 94 755 90 q 762 107 762 99 m 553 320 l 543 334 q 531 336 533 334 q 522 339 529 339 q 508 335 514 339 q 495 330 502 331 q 496 320 496 324 q 495 311 495 316 q 501 290 495 294 q 518 277 507 286 q 543 292 533 282 q 553 320 553 302 m 217 567 q 206 585 216 576 q 187 594 197 594 q 163 585 176 594 q 151 566 151 576 q 155 551 151 556 q 163 545 159 547 q 171 537 168 544 l 182 537 q 202 541 191 537 q 210 554 205 548 q 217 567 214 560 m 111 665 q 103 669 107 667 q 95 673 99 670 q 93 675 95 674 q 88 680 91 677 q 81 684 84 682 l 50 681 l 45 670 q 39 652 39 659 q 49 634 39 642 q 68 627 58 627 q 87 631 79 627 q 104 639 95 636 q 110 652 110 647 q 111 665 110 661 m 559 174 q 552 193 559 184 q 538 209 545 201 q 536 206 538 208 q 532 205 533 205 q 524 205 528 205 q 517 201 521 205 q 499 182 499 201 q 502 168 499 175 q 507 155 505 161 q 533 151 521 155 q 545 156 540 152 q 556 164 551 160 q 559 174 559 170 m 655 79 q 649 92 652 87 q 640 104 646 98 q 629 111 636 107 q 617 114 621 114 q 595 104 605 114 q 591 92 593 98 q 589 79 590 85 q 600 61 595 68 q 618 54 605 54 q 639 62 629 54 q 655 79 648 71 m 366 340 q 359 357 361 351 q 355 364 357 362 q 347 368 353 366 q 330 376 342 370 q 301 358 320 362 q 304 338 301 346 q 311 320 307 331 q 323 314 319 319 q 335 308 328 309 q 343 314 339 311 q 354 320 347 317 q 362 329 361 324 q 366 340 363 334 m 289 220 q 273 229 279 229 q 259 235 267 229 q 248 234 254 235 q 236 233 243 233 q 224 205 224 221 q 235 180 224 191 q 246 178 241 180 q 256 174 251 176 q 259 179 256 179 l 274 179 q 277 189 274 190 q 286 195 279 189 q 285 204 286 199 q 283 213 283 209 q 289 220 283 217 m 212 85 q 196 95 205 91 q 178 99 187 99 q 152 84 159 99 q 142 54 145 69 q 161 48 157 54 q 175 42 164 42 q 192 48 184 42 q 206 60 199 54 q 207 73 205 66 q 212 85 209 79 "},"&":{"ha":1086,"x_min":76,"x_max":1093,"o":"m 1093 601 q 1082 631 1093 617 q 1063 631 1072 629 q 1044 627 1055 632 q 1042 616 1044 618 q 1035 606 1039 613 q 1038 602 1036 604 q 1039 598 1039 601 q 1038 593 1039 595 q 1035 589 1036 591 q 1053 577 1043 581 q 1073 572 1062 574 l 1092 585 q 1093 593 1092 589 q 1093 601 1093 597 m 732 928 q 715 956 722 939 q 701 949 705 949 q 686 948 697 949 q 676 937 680 943 q 667 924 673 930 q 672 913 670 916 q 674 901 674 910 q 686 899 685 901 q 693 891 686 898 q 714 899 699 891 q 730 913 730 907 q 732 928 730 922 m 650 977 l 650 983 q 646 992 647 986 q 643 1001 644 998 q 633 1006 637 1004 q 621 1008 628 1008 q 606 1004 613 1008 q 593 994 600 1000 q 590 983 590 989 q 599 962 590 972 q 618 951 608 951 q 625 951 621 951 q 631 952 628 952 q 642 964 637 959 q 650 977 646 970 m 998 513 l 998 525 q 992 547 998 537 q 972 556 986 556 q 963 555 964 556 q 954 552 962 553 l 944 541 q 943 532 943 538 q 945 513 943 524 q 962 505 955 510 q 979 496 970 499 q 989 506 985 502 q 998 513 993 510 m 496 1006 q 490 1019 496 1012 q 480 1031 483 1027 q 468 1034 472 1034 q 458 1033 463 1034 q 448 1032 453 1032 q 444 1017 448 1021 q 438 1004 441 1012 q 457 977 445 985 q 474 977 465 978 q 491 977 483 977 q 492 992 488 987 q 496 1006 496 997 m 867 488 q 858 495 857 491 q 852 506 859 499 q 838 508 845 506 q 825 510 831 510 q 812 498 821 502 q 803 483 803 494 q 806 471 803 479 l 802 463 l 834 448 q 855 464 850 454 q 867 488 860 473 m 916 411 q 906 435 916 426 q 884 450 897 445 q 865 441 872 450 q 857 420 857 431 q 859 411 857 415 q 861 404 861 407 q 869 393 861 396 q 883 391 876 391 q 902 395 891 391 q 909 403 906 399 q 916 411 913 407 m 340 974 q 338 987 340 979 q 328 997 330 990 q 316 1004 326 1004 q 300 1001 311 1004 q 285 996 289 998 q 283 985 285 989 q 279 974 281 981 q 281 969 281 971 q 285 964 282 967 l 285 954 q 299 948 292 951 q 315 943 307 945 q 332 955 324 948 q 340 974 340 962 m 948 304 q 947 307 948 305 q 947 312 947 309 q 945 316 945 315 l 930 326 l 921 326 q 917 324 918 326 l 902 321 q 897 316 899 320 q 891 300 891 308 q 893 288 891 293 q 898 278 895 283 q 908 273 902 274 q 920 269 914 271 q 941 281 933 271 q 948 304 948 290 m 765 411 q 760 423 765 419 q 751 438 757 433 q 738 441 741 441 q 716 432 726 441 q 707 411 707 423 q 715 391 707 400 q 735 382 724 382 q 743 383 739 382 q 749 384 746 384 q 760 396 755 391 q 765 411 765 401 m 203 880 q 193 903 203 895 q 170 911 183 911 l 159 911 q 147 892 152 901 q 137 873 142 884 q 150 868 148 873 q 157 856 152 863 q 165 854 161 856 q 175 853 170 853 q 194 860 184 853 q 200 870 197 863 q 203 880 203 878 m 887 161 q 884 175 887 168 q 876 189 880 182 q 869 188 872 187 q 861 189 867 189 q 842 184 852 189 q 835 177 838 182 q 827 168 831 172 l 827 163 q 840 139 827 145 q 865 129 852 133 q 880 143 873 136 q 887 161 887 151 m 703 323 q 698 337 703 331 q 692 350 693 343 l 671 355 q 644 340 655 351 q 642 328 642 332 q 642 318 642 323 q 643 307 643 313 q 655 298 650 304 q 669 293 661 293 q 679 295 674 293 q 689 300 684 297 q 694 307 692 302 q 700 313 697 311 q 703 323 703 321 m 400 552 q 396 564 400 559 q 376 581 389 574 l 351 571 q 342 551 342 563 q 351 530 342 538 q 373 522 361 522 q 395 537 387 522 q 400 552 399 543 m 208 716 q 195 736 199 724 q 176 749 190 749 q 162 743 170 749 q 149 734 155 738 q 146 722 146 726 q 151 705 146 712 q 161 690 156 697 l 186 688 q 200 699 197 692 q 208 716 203 707 m 271 587 q 271 593 271 590 q 270 598 270 595 l 270 606 q 257 614 263 609 q 244 618 251 618 q 227 610 233 618 q 212 598 221 602 q 210 589 210 595 q 216 574 210 582 q 227 562 222 567 q 239 559 235 559 q 247 559 243 559 q 256 560 251 560 q 265 573 259 567 q 271 587 271 579 m 772 56 q 767 71 772 64 q 758 84 762 77 l 747 84 q 725 81 730 84 q 713 62 720 77 l 715 46 q 722 35 718 39 q 731 27 726 31 l 736 27 l 750 27 q 765 39 758 31 q 772 56 772 46 m 255 496 l 255 506 l 241 525 q 231 528 233 528 q 213 519 220 528 q 199 505 206 511 q 201 488 199 494 q 207 478 203 481 q 216 471 210 475 q 228 461 221 468 q 245 476 236 469 q 255 496 255 483 m 628 20 l 618 37 q 597 46 610 46 l 583 46 q 576 34 581 39 q 568 22 571 28 q 576 -3 571 9 q 598 -15 582 -15 l 620 -5 q 624 7 620 5 q 628 20 628 9 m 145 399 l 145 410 q 136 417 140 412 q 129 427 133 422 l 107 429 q 98 417 104 422 q 90 406 92 412 q 90 401 90 403 q 91 396 91 399 l 91 391 q 104 375 95 380 q 122 365 113 370 q 132 376 127 374 q 142 384 137 377 q 144 391 144 388 q 145 399 145 395 m 473 8 l 460 30 l 449 30 q 433 25 439 30 q 419 14 426 20 q 416 3 416 5 q 421 -12 416 -5 q 429 -24 426 -18 q 437 -26 433 -24 q 446 -27 442 -27 q 467 -16 463 -27 q 473 8 472 -4 m 141 247 q 133 253 134 251 q 132 256 132 255 q 132 260 132 258 q 130 267 132 262 q 125 275 127 271 q 121 282 123 278 l 107 282 q 90 277 98 282 q 76 266 83 273 l 76 244 q 89 231 81 239 q 104 224 96 224 q 113 224 109 224 q 121 225 117 225 q 131 237 127 232 q 141 247 134 243 m 323 31 q 320 47 323 39 q 315 61 317 54 q 304 62 309 61 q 296 62 300 62 l 288 62 q 272 52 278 57 q 266 35 266 47 q 267 24 266 28 q 271 12 269 19 q 279 7 275 9 q 289 5 283 5 q 311 14 298 5 q 323 31 323 22 m 183 111 q 180 128 180 121 q 175 144 179 136 q 157 155 167 149 q 133 146 145 152 q 130 136 133 141 q 123 127 126 132 q 127 116 125 119 q 130 102 130 113 q 142 96 137 99 q 155 92 148 92 q 160 93 157 92 q 165 94 163 94 l 171 94 l 183 111 "},"'":{"ha":241,"x_min":92,"x_max":151,"o":"m 149 985 q 145 1001 149 994 q 136 1015 141 1008 q 127 1016 130 1015 q 118 1017 123 1017 q 99 1006 103 1017 q 92 983 95 994 q 96 973 94 978 q 102 963 99 968 q 112 957 109 959 q 123 955 115 955 q 136 956 130 955 q 148 958 141 956 l 148 977 q 149 985 149 979 m 151 886 q 138 907 151 899 q 115 917 126 914 q 100 905 106 914 q 94 887 94 897 q 100 861 94 872 q 123 850 107 850 q 134 853 129 850 q 144 859 138 856 q 148 872 145 865 q 151 886 151 879 m 151 781 q 146 789 146 785 q 145 808 146 802 l 140 807 q 122 815 132 814 l 99 808 q 96 794 99 799 q 92 783 92 789 q 95 770 92 779 q 103 764 98 768 q 113 758 109 761 q 122 751 118 754 q 134 760 129 754 q 151 781 144 766 m 148 675 q 146 690 149 684 q 141 704 144 697 q 114 712 129 712 q 100 699 106 705 q 94 681 94 693 q 102 660 94 670 q 122 650 110 650 q 136 654 132 650 q 148 663 141 658 l 148 675 "},"(":{"ha":354,"x_min":76,"x_max":312,"o":"m 312 1048 q 306 1063 312 1057 q 296 1077 300 1070 q 283 1080 288 1080 q 269 1075 275 1080 q 256 1067 263 1070 q 256 1057 256 1061 q 254 1050 255 1053 q 251 1044 252 1046 q 255 1036 252 1040 q 264 1029 259 1029 q 278 1024 270 1024 q 293 1025 285 1024 q 308 1027 301 1025 q 309 1039 305 1038 q 312 1048 312 1040 m 244 921 q 241 935 244 928 q 236 948 237 941 q 222 947 229 947 q 208 949 214 948 q 195 936 199 939 q 186 918 191 933 q 195 905 191 911 q 209 892 199 899 q 217 893 216 892 q 225 888 218 894 q 238 903 232 895 q 244 921 244 910 m 198 784 q 187 801 193 791 q 171 811 182 811 q 157 812 163 811 q 149 804 153 806 q 137 799 144 803 l 137 791 q 138 787 137 788 q 138 784 138 787 q 136 779 137 781 q 134 773 136 776 q 146 762 144 770 q 158 754 149 755 q 172 750 167 753 q 187 765 180 758 q 198 784 194 772 m 157 644 q 149 665 157 656 q 129 673 140 673 q 112 669 118 673 q 99 658 106 665 q 100 641 100 647 q 102 631 100 635 q 107 623 103 627 q 121 612 111 618 q 145 621 133 612 q 157 644 157 631 m 134 503 q 121 530 134 519 q 111 531 115 530 q 103 532 107 532 l 94 532 q 81 520 85 524 q 76 505 76 517 q 83 484 76 494 q 100 473 90 473 q 117 472 111 473 l 132 491 q 134 503 134 499 m 149 359 q 136 382 142 370 q 115 395 130 395 q 96 387 103 395 q 87 369 90 380 q 90 353 90 358 q 115 332 98 339 q 121 336 118 335 q 125 339 122 338 q 132 338 127 336 q 139 343 134 339 q 149 359 144 347 m 186 227 q 176 247 186 240 q 155 254 165 254 q 136 248 140 254 q 126 231 133 241 l 126 222 q 134 203 126 212 q 152 195 141 195 q 172 200 171 195 q 183 217 174 205 q 186 227 186 222 m 232 68 l 237 92 l 237 96 q 237 100 237 99 q 236 103 236 102 q 217 111 231 106 q 205 117 212 114 q 202 117 205 118 q 195 112 199 115 q 182 102 190 109 q 181 93 182 98 q 180 83 180 88 q 184 71 180 76 q 190 60 187 65 q 208 56 199 56 q 224 61 216 56 q 232 68 228 64 m 307 -42 q 305 -30 307 -35 q 301 -18 304 -24 q 293 -20 296 -20 q 287 -16 292 -18 q 279 -15 282 -15 q 263 -21 267 -15 q 251 -33 259 -27 q 250 -37 251 -35 q 250 -42 250 -39 q 260 -62 250 -52 q 278 -72 270 -72 q 307 -42 307 -72 "},")":{"ha":354,"x_min":42,"x_max":278,"o":"m 90 1029 q 96 1028 94 1025 q 99 1039 99 1031 q 96 1067 99 1047 q 85 1074 91 1070 q 73 1078 80 1078 q 62 1077 66 1078 q 50 1073 57 1076 q 46 1061 50 1066 q 42 1048 42 1055 q 44 1040 42 1044 q 47 1034 46 1036 l 47 1025 q 64 1023 56 1025 q 80 1021 72 1021 q 83 1024 81 1023 q 87 1027 85 1025 l 90 1029 m 164 924 l 164 935 q 155 942 160 939 q 146 949 151 945 q 138 948 142 949 q 129 947 133 947 l 118 947 q 113 934 117 940 q 110 921 110 928 q 116 903 110 910 q 129 888 122 895 l 136 892 q 146 893 142 892 q 156 897 149 894 q 164 924 164 906 m 217 789 l 217 798 q 206 804 212 803 q 197 811 201 806 q 184 811 190 810 q 171 808 178 812 q 163 796 165 802 q 157 784 160 791 q 171 762 163 768 q 194 753 179 755 q 206 762 203 760 q 216 776 209 765 q 216 783 216 779 q 217 789 217 787 m 255 658 q 242 669 248 665 q 227 673 236 673 q 206 665 214 673 q 198 644 198 656 q 210 621 198 631 q 233 612 221 612 l 239 617 q 248 623 244 618 q 255 631 251 627 l 255 637 l 255 658 m 278 500 q 274 519 278 515 q 260 532 270 522 l 252 532 q 246 531 250 532 q 239 530 243 530 l 233 530 q 220 503 220 519 q 222 487 220 498 q 231 481 228 487 q 237 473 235 476 q 257 475 251 475 q 275 486 263 475 q 278 500 278 496 m 264 368 l 264 382 q 236 395 252 395 q 214 379 221 395 q 202 353 208 363 l 210 353 q 214 344 212 347 q 218 335 216 340 q 224 338 221 336 q 229 339 227 339 q 239 332 233 338 q 262 358 258 339 q 264 368 264 361 m 228 220 q 225 233 228 222 q 222 245 227 240 q 212 254 217 250 l 201 254 q 178 248 189 254 q 168 228 168 241 q 172 213 168 220 q 182 199 176 206 q 198 195 190 195 q 218 202 208 195 q 228 220 228 209 m 174 83 q 171 103 174 90 q 163 109 164 107 q 157 117 161 110 l 149 117 q 132 113 140 117 q 117 103 125 109 l 117 92 q 111 90 113 92 q 115 75 107 83 q 125 59 117 64 q 142 54 134 54 q 154 56 149 54 q 164 60 159 57 q 170 71 167 66 q 174 83 174 76 m 104 -47 q 104 -41 104 -45 q 103 -33 103 -37 q 94 -22 95 -27 q 79 -16 92 -16 q 66 -18 72 -16 q 53 -22 60 -19 q 47 -41 47 -28 q 68 -72 47 -61 l 75 -72 q 91 -67 84 -73 q 104 -54 98 -61 l 104 -47 "},"*":{"ha":736,"x_min":76,"x_max":661,"o":"m 661 819 q 655 827 656 823 q 651 836 654 831 q 632 845 644 845 q 619 843 625 845 q 606 838 613 841 l 598 819 q 602 814 600 819 q 605 807 604 808 q 606 800 605 803 l 606 795 q 618 790 613 793 q 629 783 624 787 q 643 793 636 792 q 655 807 650 793 q 661 819 658 811 m 414 986 q 408 996 411 991 q 400 1005 404 1001 q 392 1008 396 1006 q 385 1009 388 1009 q 365 1005 374 1009 q 357 993 359 998 q 354 978 355 987 q 363 967 359 972 q 369 955 366 962 q 379 954 374 955 q 388 954 384 954 l 397 954 q 414 986 410 966 m 578 788 q 576 796 578 792 q 574 804 574 800 l 574 811 q 549 818 563 818 l 537 818 q 528 810 533 811 q 518 800 524 808 q 524 783 518 793 q 528 772 526 777 l 553 757 q 566 768 560 762 q 574 779 570 773 q 578 788 578 784 m 415 895 q 410 902 412 899 q 406 907 408 905 l 408 914 q 389 921 399 921 q 375 920 382 921 q 361 916 368 918 q 356 901 358 909 q 354 886 354 892 l 354 872 q 370 870 363 872 q 382 864 376 868 q 406 873 397 868 q 415 895 415 879 m 494 755 l 494 766 l 487 768 q 479 776 484 773 q 471 781 475 779 l 449 779 q 439 763 438 772 q 438 743 439 754 q 448 732 442 736 q 460 724 453 728 q 472 727 467 726 q 480 735 477 728 q 494 755 494 742 m 410 817 l 399 831 q 392 834 396 833 q 381 838 384 837 q 371 833 376 833 q 361 830 366 833 q 357 818 358 823 q 355 806 355 812 q 369 779 355 789 q 373 780 372 780 q 377 781 374 780 q 382 779 380 780 q 388 777 385 777 q 403 786 397 777 q 415 800 408 795 q 411 810 414 802 q 410 817 410 814 m 567 571 q 559 583 562 576 q 553 594 557 589 q 542 602 548 600 q 530 612 536 605 l 526 604 q 515 601 521 602 q 505 598 510 600 q 503 584 505 591 q 500 570 500 576 q 511 557 507 563 q 522 545 515 552 q 530 547 526 545 q 537 548 533 548 l 543 548 q 553 561 552 557 q 567 571 555 564 m 414 716 q 410 731 414 723 q 403 746 406 739 q 392 750 399 750 q 384 749 388 750 q 376 749 380 749 l 358 736 q 355 724 355 730 q 354 711 355 718 q 366 696 359 703 q 384 690 373 690 q 406 696 392 690 q 414 716 414 704 m 629 522 q 616 527 617 522 q 605 532 616 532 q 592 529 598 532 q 579 526 586 526 q 574 512 578 522 q 570 499 570 502 q 571 494 570 496 q 574 484 572 491 q 585 475 576 477 q 601 472 594 473 q 610 477 606 475 q 620 481 614 479 q 623 489 621 486 q 627 496 624 492 q 629 508 629 499 q 629 522 628 517 m 486 648 q 483 669 486 655 q 463 678 472 674 q 444 685 454 682 q 435 671 441 674 q 423 661 430 669 q 430 649 429 655 q 433 637 431 643 q 439 629 434 632 q 456 627 444 627 q 459 627 458 627 q 476 635 460 627 l 480 639 q 486 648 486 644 m 319 780 l 305 796 q 302 795 304 795 q 298 793 301 795 q 291 796 294 795 q 282 798 288 798 q 273 788 277 793 q 263 779 269 783 l 263 755 l 282 739 q 309 743 294 739 q 314 751 312 746 q 319 760 316 755 l 319 765 q 318 771 319 768 q 319 780 317 774 m 214 783 q 225 783 218 784 q 222 792 232 783 q 225 799 224 795 q 228 807 227 803 l 231 815 l 216 830 q 208 831 212 830 q 195 834 199 834 q 174 819 179 834 q 167 791 168 804 q 181 779 174 784 q 199 773 189 773 l 206 773 q 214 783 212 779 m 347 648 q 345 656 347 652 q 340 665 343 661 q 342 669 342 667 q 343 674 342 671 q 326 678 335 678 q 304 673 317 678 q 290 658 290 667 q 294 633 290 642 q 311 614 298 625 q 322 621 316 618 q 334 627 328 624 q 343 634 339 629 q 347 648 347 639 m 134 822 l 123 852 q 109 856 117 856 q 96 854 102 856 q 84 849 91 852 q 76 829 76 841 q 90 802 76 815 q 98 801 94 802 q 107 800 103 800 l 117 800 q 128 808 123 807 q 134 822 133 810 m 285 571 l 281 575 l 281 593 q 240 608 266 608 q 230 598 235 602 q 221 587 225 594 q 232 555 224 570 q 245 552 239 555 q 259 549 252 549 q 271 552 263 549 q 277 563 274 559 q 285 571 281 567 m 212 513 q 186 538 212 538 q 159 534 172 538 q 158 524 159 529 q 157 514 157 519 q 167 491 157 503 q 187 479 176 479 l 198 479 q 206 495 201 488 q 212 513 212 502 "},"+":{"ha":651,"x_min":62,"x_max":591,"o":"m 591 480 q 587 486 587 484 q 586 499 587 495 q 579 506 582 502 q 574 514 576 510 l 547 517 q 537 511 541 515 q 531 503 534 509 q 528 490 528 498 l 528 477 q 535 469 533 471 q 537 458 537 468 q 553 457 545 458 q 570 456 562 456 q 580 469 574 464 q 591 480 586 473 m 351 720 q 351 733 351 727 q 349 746 350 739 l 340 743 q 334 747 338 745 q 327 749 331 749 q 312 745 319 749 q 298 736 305 741 q 296 722 296 726 q 301 705 296 711 q 313 693 307 700 q 326 690 321 690 q 345 700 338 690 q 351 720 351 709 m 469 487 q 466 502 469 495 q 458 515 463 509 q 450 516 454 515 q 444 517 446 517 q 422 510 433 517 q 411 491 411 503 q 420 469 411 480 q 442 458 430 458 q 462 467 454 458 q 469 487 469 476 m 355 597 q 351 610 354 604 q 345 625 347 617 q 333 629 338 625 q 321 632 328 632 q 309 628 313 632 q 297 618 304 624 q 294 606 294 610 q 295 595 294 601 q 296 585 296 590 q 309 581 307 585 q 320 574 311 576 q 340 580 331 576 q 355 597 350 583 m 351 487 q 336 515 351 503 q 321 518 328 518 l 308 518 q 302 509 304 514 q 296 500 301 503 q 296 488 297 494 q 297 475 294 481 l 316 457 l 338 457 q 349 470 346 464 q 351 487 351 476 m 357 382 l 340 400 q 327 400 334 400 q 313 403 320 400 q 302 389 308 395 q 293 376 297 384 q 297 366 297 370 q 298 355 297 362 q 308 349 305 349 q 313 339 311 349 q 323 343 319 342 q 330 340 328 340 q 342 348 336 345 q 351 355 347 351 q 354 368 354 363 q 354 375 354 373 q 357 382 354 377 m 236 490 q 233 501 236 496 q 228 511 231 506 q 218 514 222 513 q 208 515 213 515 q 193 511 194 515 q 182 505 191 507 q 180 495 180 499 q 179 486 179 491 l 179 475 l 197 458 l 205 458 q 216 459 212 458 q 228 460 221 460 q 233 475 231 468 q 236 490 236 481 m 358 243 q 351 261 354 252 q 345 278 349 270 q 315 285 327 283 q 298 273 308 277 q 297 265 298 269 q 296 258 296 262 q 298 245 296 251 q 304 233 301 240 q 317 230 312 233 q 328 227 321 227 q 343 233 336 227 q 358 243 350 240 m 121 491 q 120 498 121 495 q 118 506 119 502 q 106 513 111 509 q 92 517 100 517 q 77 513 84 517 q 62 505 69 509 q 64 484 62 494 q 73 464 66 473 q 86 461 80 464 q 99 456 92 458 q 115 471 109 463 q 121 491 121 479 "},",":{"ha":187,"x_min":-20,"x_max":151,"o":"m 151 77 q 146 98 151 90 q 129 107 137 103 q 110 111 121 111 q 97 97 102 103 q 92 79 92 91 q 96 67 92 72 q 103 58 99 62 q 121 54 111 54 q 146 61 133 54 q 149 69 146 65 q 151 77 151 73 m 121 -14 q 115 1 121 -5 q 103 12 109 7 q 90 15 95 15 q 60 -4 72 15 q 61 -13 61 -11 q 57 -22 61 -15 q 75 -39 69 -38 q 82 -41 77 -41 q 98 -43 87 -41 q 111 -35 106 -41 q 121 -23 115 -28 l 121 -14 m 81 -127 q 81 -113 80 -121 q 81 -98 81 -104 q 74 -92 76 -94 q 69 -83 72 -90 l 56 -83 q 23 -99 37 -83 q 26 -119 24 -110 q 35 -136 28 -129 q 57 -140 45 -140 q 81 -127 75 -140 m 39 -231 q 37 -209 39 -222 q 11 -195 26 -195 q -5 -199 1 -195 q -19 -209 -12 -203 q -18 -212 -18 -210 q -16 -216 -18 -213 q -20 -229 -19 -224 q -14 -243 -19 -237 q -3 -254 -9 -248 l 19 -254 q 32 -244 24 -248 q 39 -231 39 -240 "},"-":{"ha":495,"x_min":62,"x_max":431,"o":"m 431 487 q 427 499 431 495 q 418 510 423 503 q 404 513 410 513 q 377 506 391 513 q 371 492 373 499 q 366 477 369 484 q 380 465 374 469 q 397 456 387 461 q 421 464 411 456 q 431 487 431 472 m 334 486 q 317 500 324 492 q 300 515 311 509 q 286 509 297 511 q 269 503 275 507 q 267 493 267 498 q 266 483 267 488 l 275 461 q 288 458 282 461 q 300 454 293 454 q 311 457 305 454 q 316 463 313 461 q 321 466 319 464 q 327 472 324 468 q 334 486 330 476 m 231 487 q 228 498 231 494 q 222 509 225 503 q 209 511 216 509 q 195 514 202 514 q 183 511 186 514 q 174 502 180 509 q 168 490 171 495 q 165 477 165 484 q 176 461 165 468 q 194 454 186 454 q 205 456 201 454 q 217 460 210 457 q 227 472 222 465 q 231 487 231 479 m 129 491 q 125 503 126 498 q 123 513 125 507 q 114 512 118 513 q 104 511 110 511 q 95 513 102 513 q 66 498 77 513 q 64 488 66 491 q 62 479 62 486 q 76 462 62 468 q 99 454 90 456 q 109 458 106 456 q 119 464 113 461 q 125 477 122 471 q 129 491 129 483 "},".":{"ha":189,"x_min":62,"x_max":129,"o":"m 129 96 q 117 108 122 103 q 104 117 111 113 q 86 115 95 117 q 68 109 77 114 q 64 99 65 103 q 62 90 62 95 q 64 78 62 83 q 68 68 65 73 q 84 65 71 68 q 100 61 98 62 q 113 65 109 61 q 119 75 117 69 q 123 86 121 80 q 129 96 125 92 m 125 0 q 122 12 125 4 q 95 31 111 23 q 85 26 90 27 q 79 24 81 24 q 73 20 76 23 q 66 7 69 16 q 64 -5 64 -1 q 69 -20 64 -12 q 80 -22 76 -19 q 91 -27 84 -24 l 117 -22 q 125 0 125 -11 "},"/":{"ha":568,"x_min":37,"x_max":533,"o":"m 533 998 q 524 1013 528 1008 q 510 1023 521 1019 q 486 1009 495 1019 q 469 987 477 1000 q 478 977 473 981 q 486 966 483 972 q 496 966 494 966 q 506 963 499 966 q 533 998 530 971 m 468 848 q 453 879 468 867 l 445 879 q 424 873 431 879 q 410 859 416 868 l 410 849 q 410 840 410 844 q 411 830 411 836 q 427 822 419 822 q 437 825 431 822 q 445 822 442 822 q 462 830 456 822 q 468 848 468 838 m 404 719 q 397 726 396 722 q 391 738 397 731 q 384 739 388 738 q 377 739 380 739 q 342 726 358 739 q 339 713 339 718 q 346 695 339 703 q 359 681 353 688 l 366 681 q 392 692 387 681 q 404 719 397 704 m 349 568 q 339 589 349 582 q 317 597 330 597 q 283 581 300 597 q 285 566 283 574 q 288 552 286 559 q 299 545 296 549 q 311 540 302 540 q 335 548 321 540 q 349 568 349 556 m 286 433 q 255 454 281 454 q 221 441 235 454 q 222 427 221 434 q 225 412 224 419 q 252 399 239 399 q 273 410 263 399 q 286 433 283 422 m 222 274 l 222 289 q 221 302 222 298 q 193 315 209 315 q 180 313 186 315 q 167 309 174 312 q 160 286 160 298 q 163 270 160 275 q 168 266 165 267 q 172 264 170 264 l 187 258 l 195 258 q 208 262 203 258 q 214 269 212 266 q 222 274 217 271 m 164 134 q 158 150 157 142 q 153 164 159 157 q 145 170 151 168 q 136 175 140 171 l 106 163 q 99 144 99 153 q 103 127 99 134 q 114 114 107 121 l 129 114 q 148 121 138 114 q 164 134 157 129 m 99 1 q 96 12 99 4 l 96 18 q 87 23 92 20 q 77 30 81 26 l 72 30 q 66 29 69 30 q 61 28 64 28 l 53 28 q 38 18 49 20 q 37 3 37 14 q 41 -22 37 -9 q 62 -26 50 -26 q 79 -24 75 -26 q 86 -20 84 -23 q 90 -14 88 -18 q 99 -7 92 -11 l 99 1 "},":":{"ha":244,"x_min":88,"x_max":157,"o":"m 153 673 q 142 689 153 681 q 123 697 130 697 q 102 690 111 697 q 96 679 98 684 q 88 669 94 674 q 101 656 96 663 q 111 642 106 650 l 118 642 q 134 644 126 642 q 149 650 141 647 q 146 655 148 652 q 145 661 145 658 l 153 673 m 155 586 l 137 605 q 123 610 130 608 q 109 613 117 612 q 98 604 102 606 q 94 597 95 601 q 93 590 94 594 q 90 578 92 586 q 98 568 94 572 q 107 557 103 564 q 117 555 113 555 q 132 558 125 555 q 148 563 140 562 q 150 574 145 574 q 155 586 155 575 m 157 98 q 144 108 151 103 q 132 117 138 113 q 114 114 122 117 q 96 109 106 111 q 92 90 92 100 q 95 68 92 81 q 106 66 104 68 q 114 60 107 65 q 119 60 117 60 q 123 61 121 61 q 127 60 126 61 q 132 60 129 60 q 149 76 149 66 q 157 98 148 85 m 155 0 q 152 12 155 4 q 138 22 145 18 q 122 31 130 27 q 110 22 115 24 q 100 18 104 20 q 94 12 96 16 q 92 -5 92 7 q 98 -20 92 -12 q 107 -22 103 -19 q 118 -27 111 -24 l 144 -23 q 155 0 155 -12 "},";":{"ha":274,"x_min":-7,"x_max":184,"o":"m 184 654 q 169 670 178 666 q 149 681 160 674 q 125 666 133 681 q 123 656 126 662 q 121 646 121 651 q 130 638 126 643 q 137 628 133 633 q 146 625 142 625 q 171 632 167 625 q 184 654 175 639 m 183 579 q 173 596 183 590 q 153 602 163 602 q 140 601 146 602 q 127 597 134 600 q 123 587 126 594 q 121 576 121 579 q 123 564 121 570 q 125 552 125 559 q 136 546 130 549 q 148 543 141 543 q 165 548 157 543 q 180 560 174 553 q 182 569 180 564 q 183 579 183 574 m 164 77 q 161 98 164 87 q 143 107 151 103 q 123 111 136 111 q 111 97 115 103 q 106 80 106 91 q 109 68 106 73 q 117 58 113 62 q 134 54 125 54 q 161 61 148 54 q 163 69 161 65 q 164 77 164 73 m 134 -14 q 128 1 134 -5 q 117 12 122 7 q 103 15 109 15 q 73 -4 83 15 l 73 -18 q 72 -23 73 -20 q 76 -30 73 -27 q 87 -38 80 -35 q 99 -41 94 -41 q 111 -43 104 -42 q 124 -35 119 -41 q 134 -23 129 -28 l 134 -14 m 96 -127 q 96 -111 95 -119 q 96 -96 96 -103 q 83 -83 84 -92 l 69 -83 q 37 -99 50 -83 q 40 -119 38 -110 q 49 -136 42 -129 q 72 -140 58 -140 q 96 -127 88 -140 m 53 -231 q 50 -209 53 -222 q 24 -195 41 -195 q 8 -201 16 -195 l 0 -205 q -1 -209 -1 -206 q -3 -216 -3 -212 q -4 -222 -3 -218 q -7 -229 -5 -225 q -1 -243 -5 -237 q 11 -254 4 -248 l 34 -254 q 47 -243 41 -247 q 53 -231 53 -240 "},"<":{"ha":732,"x_min":49,"x_max":656,"o":"m 656 662 q 618 685 646 682 q 600 656 600 673 l 600 647 l 612 632 q 643 635 631 621 q 653 646 652 637 q 656 662 654 655 m 522 601 l 513 604 q 507 615 511 610 q 499 624 503 620 q 488 627 491 627 q 475 624 481 627 q 461 621 468 621 q 460 610 461 614 q 458 600 458 605 q 466 576 458 581 q 488 566 473 572 q 493 571 491 568 q 498 574 495 574 l 506 574 q 513 588 509 583 q 522 601 517 593 m 377 543 q 368 562 377 552 q 349 572 358 572 q 331 566 338 572 q 319 552 324 559 q 323 534 320 543 q 328 517 326 526 q 340 515 336 517 q 350 509 343 513 l 365 521 q 376 534 368 526 q 376 538 376 537 q 377 543 377 540 m 654 190 q 651 198 654 193 q 648 214 651 209 q 639 227 646 218 q 621 222 629 220 q 602 214 613 224 q 600 199 602 206 q 597 183 597 191 q 606 173 601 176 q 617 164 612 170 q 623 163 620 164 q 629 163 627 163 q 639 166 635 163 q 648 172 643 170 q 652 181 650 178 q 654 190 654 184 m 507 240 q 505 256 507 248 q 500 270 503 263 q 488 275 494 271 q 476 278 483 278 q 465 268 469 273 q 453 260 460 263 l 464 218 q 479 218 471 218 q 494 216 487 217 q 499 227 496 225 q 507 235 502 228 l 507 240 m 244 481 l 239 488 q 236 499 239 494 q 235 505 235 502 l 222 513 q 217 514 220 513 q 212 515 214 515 q 208 517 210 515 q 190 507 202 510 q 186 500 187 503 q 184 492 184 496 q 186 480 184 486 q 189 468 187 475 q 203 459 195 461 q 220 456 212 457 q 232 469 227 463 q 244 481 237 475 m 370 304 q 366 315 370 307 q 359 327 362 324 q 347 327 353 327 q 335 328 342 327 q 321 317 328 321 q 315 302 315 313 q 317 290 315 296 q 321 277 320 283 q 332 272 327 274 q 345 270 338 270 q 359 275 351 270 q 366 289 362 282 q 370 304 370 296 m 232 342 l 232 353 q 228 368 232 361 q 217 388 224 380 q 199 385 206 388 q 183 374 193 381 q 179 354 179 363 q 185 336 179 343 q 202 328 191 328 q 222 335 213 328 q 232 342 228 338 m 103 427 q 98 438 103 437 q 76 454 94 454 q 64 451 69 454 q 52 445 58 448 q 49 429 49 434 q 55 407 49 416 q 75 397 61 397 q 90 404 83 397 q 102 415 96 410 q 102 421 102 418 q 103 427 103 425 "},"=":{"ha":602,"x_min":62,"x_max":541,"o":"m 537 581 q 536 592 537 587 q 534 602 536 597 q 521 603 528 602 q 507 604 514 604 q 490 600 498 604 q 476 590 483 595 q 475 581 476 585 q 473 572 473 578 q 486 553 473 557 q 509 547 498 549 q 519 551 515 548 q 530 556 524 553 q 535 568 533 563 q 537 581 537 574 m 431 578 q 426 591 431 586 q 418 602 420 595 l 406 602 q 377 595 393 602 q 371 583 373 589 q 366 570 369 576 l 381 553 q 389 551 385 553 q 397 547 393 549 q 420 555 410 547 q 431 578 431 564 m 334 578 q 317 592 324 585 q 300 605 311 600 q 288 600 296 601 q 274 594 279 598 q 266 576 269 586 l 275 553 q 288 549 283 553 q 298 545 292 545 q 320 557 309 545 q 334 578 331 568 m 530 328 q 536 343 532 332 q 538 357 541 354 q 531 368 532 363 q 515 374 530 373 q 507 376 513 376 q 490 372 498 376 q 476 362 483 368 q 475 353 476 357 q 473 345 473 350 q 486 326 473 330 q 509 319 498 323 q 519 323 515 320 q 530 328 524 326 m 231 578 q 228 588 231 583 q 222 598 225 593 q 208 602 216 600 q 194 605 201 605 q 174 593 183 605 q 165 570 165 581 q 174 553 165 560 q 193 547 183 547 q 219 554 208 547 q 231 578 231 562 m 431 350 q 427 363 431 358 q 418 374 422 368 l 406 374 q 377 368 391 374 q 371 355 373 361 q 366 342 369 349 l 381 326 q 391 323 387 326 q 400 320 395 320 q 422 329 412 320 q 431 350 431 338 m 127 578 q 126 590 127 585 q 123 602 125 595 q 110 603 117 602 q 96 604 103 604 q 66 590 80 604 q 64 581 66 583 q 62 571 62 578 q 75 553 62 557 q 99 547 88 548 q 109 551 106 548 q 118 556 113 553 q 125 566 122 563 q 127 578 127 570 m 334 350 q 317 364 324 357 q 300 377 311 372 q 292 373 296 373 q 279 373 286 373 q 274 366 271 373 q 266 349 267 358 l 275 326 q 288 322 283 326 q 300 319 293 319 q 311 321 305 319 q 317 328 315 327 q 323 331 320 330 q 328 336 326 332 q 334 350 330 339 m 231 350 q 228 361 231 357 q 222 370 225 365 q 208 374 216 372 q 194 377 201 377 q 182 373 187 377 q 174 365 178 369 q 168 354 171 358 q 165 342 165 350 q 176 326 165 334 q 193 319 186 319 q 205 320 199 319 q 217 324 210 321 q 227 336 222 330 q 231 350 231 342 m 129 354 q 125 360 129 357 q 121 368 122 363 q 115 370 118 365 q 104 374 111 374 q 96 376 102 376 q 66 362 77 376 q 64 353 66 355 q 62 343 62 350 q 76 326 62 332 q 99 319 90 320 q 109 323 104 320 q 118 328 113 326 q 125 340 122 335 q 129 354 129 346 "},">":{"ha":732,"x_min":75,"x_max":684,"o":"m 684 426 q 681 445 684 434 q 668 451 674 448 q 655 454 662 454 q 644 452 652 454 q 635 438 636 444 q 631 428 631 434 q 629 416 632 422 q 642 404 635 411 q 656 397 650 397 q 677 406 670 397 q 684 426 684 414 m 547 492 q 545 500 547 496 q 541 507 544 503 q 525 517 530 510 q 517 514 521 515 q 510 513 514 513 l 496 505 q 496 497 498 495 q 494 488 494 499 l 495 469 q 500 465 496 468 q 507 460 503 463 q 513 456 510 458 q 545 480 534 457 q 546 486 545 483 q 547 492 547 490 m 415 552 q 404 565 410 559 q 389 571 399 571 q 368 564 381 571 q 355 547 355 556 q 366 526 355 536 q 384 509 376 515 q 398 518 391 514 q 412 529 406 522 q 412 541 412 536 q 415 552 412 545 m 553 353 q 552 364 553 359 q 548 374 551 369 q 532 385 537 381 q 513 388 526 388 q 504 366 509 376 q 496 343 499 355 q 513 334 507 340 q 530 328 519 328 q 547 335 541 328 q 553 353 553 342 m 275 598 q 269 621 275 608 q 258 623 263 621 q 248 625 254 625 q 235 623 241 625 q 222 617 229 620 q 216 597 221 610 q 229 581 221 587 q 243 566 236 574 q 255 570 251 568 q 262 573 259 571 q 268 579 264 575 q 275 590 271 583 l 275 598 m 133 647 q 114 685 133 674 q 75 663 92 684 q 79 650 79 655 q 81 641 80 644 q 87 633 83 637 q 99 623 91 629 q 118 631 110 623 q 133 647 126 640 m 416 304 q 414 316 416 312 q 405 321 408 320 q 397 328 401 323 q 382 325 391 327 q 366 316 374 323 q 364 306 366 311 q 359 297 362 301 q 364 284 359 289 q 374 274 369 279 q 389 270 380 270 q 401 272 396 270 q 414 277 407 274 q 415 290 414 283 q 416 304 416 297 m 278 232 l 278 260 q 266 268 271 263 q 255 278 260 273 q 241 273 244 278 q 232 262 239 269 q 229 254 233 260 q 227 247 225 248 q 226 241 227 244 q 225 235 225 237 q 232 227 229 229 q 237 217 235 224 l 259 216 q 268 224 263 220 q 278 232 273 229 m 134 180 l 134 197 q 127 211 134 203 q 114 222 119 218 q 102 221 107 221 q 90 220 96 221 q 81 198 81 212 q 79 190 79 193 q 81 180 79 184 q 84 172 83 176 q 94 166 90 170 q 103 163 98 163 q 121 168 114 163 q 134 180 127 174 "},"?":{"ha":745,"x_min":49,"x_max":690,"o":"m 629 920 q 623 935 625 926 q 616 948 621 943 q 598 951 609 951 q 579 946 591 951 q 567 932 567 941 q 571 916 567 925 q 578 901 575 907 q 586 901 582 902 q 595 901 590 901 l 608 901 q 610 907 608 906 q 614 909 612 909 q 621 911 617 910 q 629 920 625 913 m 484 1009 q 479 1022 484 1016 q 471 1035 475 1028 l 464 1035 q 453 1034 458 1035 q 442 1034 448 1034 q 436 1027 438 1029 q 427 1024 434 1024 q 425 1009 425 1016 q 429 994 425 1001 q 438 981 434 987 q 448 980 444 981 q 457 979 452 979 l 469 979 q 480 993 476 989 q 484 1009 484 997 m 690 793 q 678 802 684 798 q 666 811 673 806 q 662 812 663 811 q 658 812 661 812 q 641 806 648 812 q 627 793 633 800 q 631 774 631 781 q 643 757 632 768 l 659 757 q 675 762 673 757 q 686 777 678 766 q 686 785 686 784 q 690 793 685 787 m 331 1015 q 328 1028 331 1017 q 316 1035 317 1032 q 301 1038 315 1038 q 283 1034 288 1038 q 270 1021 279 1029 l 275 996 q 311 985 293 985 q 324 997 317 990 q 331 1015 331 1004 m 690 613 q 688 620 688 618 q 689 631 688 627 q 686 642 690 635 q 673 647 680 644 q 659 650 666 650 q 637 646 650 650 q 630 635 631 640 q 627 621 629 629 q 635 611 633 617 q 642 598 637 605 q 654 597 648 598 q 665 597 659 597 l 678 597 l 690 613 m 201 974 l 189 982 q 187 988 189 986 q 175 990 186 990 q 159 989 164 990 q 147 978 155 982 q 140 964 140 974 q 142 954 140 958 q 148 943 145 949 q 158 937 153 940 q 170 935 163 935 q 192 947 189 935 q 201 974 195 960 m 635 471 q 630 492 635 488 q 614 506 625 495 q 602 505 608 506 q 590 507 597 505 q 581 492 585 496 q 576 473 576 487 l 576 461 l 594 450 q 608 452 601 450 q 623 453 616 453 q 629 462 627 457 q 635 471 632 467 m 109 872 q 107 885 109 879 q 103 898 106 891 q 92 901 95 901 q 65 893 81 901 q 49 873 49 886 q 50 861 49 867 q 52 849 52 856 q 67 845 60 846 q 83 844 75 844 q 107 854 96 844 q 108 864 107 860 q 109 872 109 868 m 521 391 q 494 419 521 419 l 469 419 q 465 404 469 411 q 458 388 461 396 q 469 378 465 384 q 477 366 473 373 l 483 366 q 489 367 486 366 q 495 368 492 368 l 500 362 l 506 368 q 518 376 513 374 q 520 383 519 380 q 521 391 521 387 m 389 350 q 374 368 387 361 q 351 376 362 376 q 342 374 346 376 q 332 370 338 373 q 330 356 331 363 q 328 342 328 349 q 334 331 328 336 q 345 321 340 326 q 351 321 347 321 q 357 320 354 320 q 378 330 370 320 q 389 350 385 339 m 389 228 q 385 240 389 235 q 378 252 381 245 q 367 254 372 252 q 355 255 362 255 q 339 251 347 255 q 330 235 334 237 q 327 217 327 233 q 345 206 336 214 q 362 193 353 198 q 368 201 363 198 q 378 208 373 205 q 386 216 382 212 q 389 228 389 220 m 385 84 q 380 107 385 94 l 355 123 q 339 111 349 121 q 330 94 330 100 q 331 82 330 87 q 335 72 332 77 l 355 58 q 361 62 358 61 q 373 65 366 65 q 385 84 385 72 m 387 -4 q 381 10 385 4 q 370 23 377 16 l 362 23 q 351 22 355 23 q 339 20 346 20 q 334 9 338 14 q 331 -3 331 4 q 335 -18 331 -12 q 346 -28 339 -23 l 354 -28 q 368 -26 361 -28 q 382 -23 376 -24 q 382 -13 381 -16 q 387 -4 384 -9 "},"@":{"ha":1210,"x_min":76,"x_max":1133,"o":"m 975 859 q 970 875 975 868 q 954 882 964 882 q 935 876 944 882 q 925 859 925 869 q 929 848 925 856 q 935 837 933 840 q 954 830 944 830 q 962 831 958 830 q 970 831 966 831 q 974 845 972 838 q 975 859 975 852 m 864 940 l 863 958 l 848 972 l 827 975 q 816 966 822 970 q 810 951 810 962 q 812 937 810 944 q 817 922 815 929 q 832 922 825 924 q 848 920 840 920 q 854 932 850 930 q 864 940 857 933 m 1063 738 q 1061 754 1061 747 q 1053 768 1062 761 q 1044 767 1046 765 q 1035 769 1042 769 q 1019 754 1024 769 q 1012 732 1015 739 q 1022 723 1020 730 q 1034 716 1024 716 q 1050 722 1039 716 l 1063 738 m 1120 613 q 1116 625 1120 620 q 1108 635 1111 629 l 1101 635 q 1090 634 1095 635 q 1080 632 1085 633 q 1069 604 1069 621 q 1073 587 1069 595 q 1084 585 1080 587 q 1095 581 1088 582 l 1118 594 l 1115 600 q 1118 606 1118 602 q 1120 613 1118 610 m 705 989 q 702 1003 705 997 q 694 1016 699 1009 l 671 1016 q 659 1004 667 1012 q 650 990 650 997 q 659 976 650 983 q 674 968 667 968 q 684 970 680 968 q 696 972 689 971 q 705 989 705 979 m 1133 481 q 1127 496 1133 490 q 1119 510 1122 503 l 1107 510 q 1092 507 1099 510 q 1077 500 1085 503 l 1077 488 q 1085 465 1077 469 q 1109 458 1093 461 q 1121 469 1115 461 q 1133 481 1127 477 m 856 700 q 848 713 850 707 q 840 726 845 719 q 829 728 834 728 q 819 727 823 728 q 810 726 815 726 q 798 692 802 711 q 818 680 814 681 q 841 678 822 678 q 845 692 845 689 q 856 700 845 694 m 536 996 q 529 1006 536 1002 q 515 1010 522 1010 q 495 1008 509 1010 l 483 991 l 486 985 q 495 963 486 975 q 505 962 500 963 q 514 960 509 960 l 524 960 q 533 977 530 972 q 536 996 536 981 m 1109 358 q 1100 380 1109 368 q 1088 382 1092 382 q 1078 382 1082 382 q 1067 381 1073 381 l 1063 372 q 1057 361 1058 368 q 1057 350 1057 355 q 1067 337 1057 343 q 1084 331 1077 331 q 1101 340 1092 331 q 1109 358 1109 350 m 734 704 q 726 724 734 715 q 708 732 719 732 q 695 729 701 732 q 684 722 689 726 q 678 708 678 713 q 686 691 678 700 q 703 682 694 682 q 720 690 713 682 q 734 704 727 697 m 799 642 q 791 659 799 652 q 772 665 783 665 q 755 652 760 655 q 743 635 751 650 q 751 622 746 628 q 765 616 757 616 q 781 622 772 616 q 796 632 791 628 q 799 642 799 637 m 842 568 q 836 573 834 570 q 831 583 837 576 q 817 586 827 586 q 804 585 810 586 q 791 581 798 583 q 787 559 787 570 q 791 538 787 548 q 827 533 807 533 q 835 550 830 543 q 842 568 840 557 m 624 731 q 617 754 624 743 q 604 756 610 754 q 591 761 598 758 q 579 751 585 758 q 568 736 574 745 q 572 724 568 730 q 576 712 575 719 q 590 710 583 712 q 604 705 597 708 q 612 714 606 711 q 624 720 618 718 l 624 731 m 387 933 q 379 947 387 941 q 365 956 372 952 q 343 946 354 956 q 332 925 332 936 l 332 914 q 351 905 342 905 q 366 907 359 905 q 380 913 373 910 q 384 923 381 916 q 387 933 387 930 m 1043 233 q 1038 258 1040 244 q 1020 271 1035 271 q 999 262 1005 271 q 989 240 993 254 q 1004 218 991 229 q 1008 218 1006 218 q 1012 217 1009 217 q 1029 224 1023 217 q 1043 233 1035 231 m 840 422 q 839 435 840 429 q 838 448 838 441 q 815 458 827 458 l 804 458 q 794 441 796 450 q 789 422 792 433 q 798 410 793 415 q 812 406 803 406 q 831 408 821 406 l 840 422 m 510 712 l 495 731 q 484 728 490 728 q 471 726 477 727 q 461 720 465 724 q 457 708 457 716 q 460 694 457 700 q 467 681 464 688 q 499 685 483 681 q 505 699 502 692 q 510 712 507 705 m 852 301 q 849 313 852 305 q 827 323 841 323 l 802 312 l 807 307 q 798 296 803 304 q 808 280 804 283 q 826 274 811 277 q 844 283 837 277 q 852 301 852 290 m 921 222 q 903 229 911 225 q 883 233 894 233 q 878 224 880 227 q 871 214 875 221 q 868 203 868 209 q 868 191 868 198 q 881 186 875 189 q 894 183 887 183 l 910 183 q 913 195 910 190 q 918 206 916 199 q 920 214 920 210 q 921 222 920 218 m 765 357 q 754 362 758 358 q 743 366 750 366 q 733 361 735 366 q 722 357 731 357 q 716 336 716 343 q 719 320 716 331 q 730 315 724 317 q 742 313 735 313 q 754 316 746 313 q 765 357 765 334 m 262 823 q 258 837 262 830 q 251 849 255 844 q 239 846 243 846 q 234 844 236 845 q 229 842 232 844 q 217 834 225 840 q 209 821 209 827 q 210 812 209 817 q 210 804 210 808 q 228 799 221 799 q 243 800 235 799 q 258 803 251 802 q 260 813 258 808 q 262 823 262 818 m 441 627 q 429 631 430 627 q 425 642 427 635 q 414 642 419 642 q 403 643 410 643 l 385 628 q 384 618 384 624 l 384 598 q 397 595 391 598 q 411 590 404 591 q 429 604 425 600 q 441 627 434 608 m 704 288 q 691 297 696 290 q 678 304 686 304 q 666 300 671 304 q 655 294 661 297 q 650 279 650 288 q 648 264 650 271 q 659 257 654 260 q 670 254 663 254 q 686 257 678 254 q 700 263 693 260 l 697 269 q 704 288 703 278 m 397 519 q 391 536 397 530 q 374 543 384 543 q 357 537 361 543 q 346 522 353 532 q 345 506 345 517 l 345 498 q 357 495 353 495 q 365 496 362 495 q 374 494 370 494 q 391 502 385 494 q 397 519 397 510 m 156 673 l 164 685 q 167 693 167 690 q 163 704 167 700 q 157 713 160 708 l 148 713 l 134 713 q 121 703 126 708 q 117 688 117 699 q 117 681 117 685 q 118 673 118 677 q 134 667 123 667 q 144 669 142 667 q 156 673 146 670 m 597 254 q 587 265 591 260 q 572 270 582 270 l 564 270 q 557 262 560 266 q 549 252 553 258 l 549 245 q 553 232 549 239 q 562 218 557 225 q 594 227 578 218 l 597 254 m 403 391 l 395 410 q 381 412 384 412 q 354 403 368 412 q 353 394 354 399 q 353 385 353 389 q 363 361 353 372 q 373 361 369 361 q 382 362 377 362 l 389 362 q 403 391 400 373 m 490 290 q 489 302 490 297 q 487 312 488 307 q 466 311 476 311 q 445 308 456 311 q 441 298 444 302 q 438 286 438 293 q 443 273 438 279 q 453 263 448 267 l 458 263 q 471 266 465 263 q 483 271 477 269 q 490 290 490 278 m 732 20 q 724 33 732 27 q 711 42 715 38 l 697 35 q 687 26 690 26 q 680 15 684 26 q 684 6 682 15 q 688 -4 686 -3 q 694 -15 689 -9 l 716 -15 q 729 0 726 -4 q 732 20 732 4 m 130 541 q 127 553 130 548 q 119 564 123 559 l 107 564 q 87 555 98 564 q 76 536 76 545 q 77 529 76 533 q 77 522 77 525 q 87 517 83 519 q 98 515 92 515 q 112 517 104 515 q 126 521 119 518 q 128 531 126 526 q 130 541 130 536 m 586 11 l 582 15 q 573 26 579 22 q 562 33 567 30 q 548 24 555 28 q 534 16 541 19 q 532 3 532 8 q 544 -23 532 -8 l 555 -23 q 578 -14 570 -23 q 586 11 586 -4 m 148 400 l 136 414 q 123 416 127 416 q 109 412 115 416 q 95 400 102 407 l 95 392 l 95 378 q 113 368 102 369 q 134 366 123 366 q 140 384 134 376 q 148 400 145 392 m 439 34 q 429 48 433 41 q 419 62 426 56 q 410 63 414 62 q 401 64 407 64 q 391 53 392 64 l 382 41 q 389 23 382 33 q 400 7 395 14 q 412 12 407 14 q 422 15 416 11 q 430 24 427 19 q 439 34 433 30 m 199 239 q 199 249 198 244 q 199 258 199 254 q 184 271 189 269 q 165 274 180 274 l 152 258 q 149 248 149 251 q 145 239 149 245 q 176 221 156 221 l 189 221 l 199 239 m 305 123 q 304 132 305 127 q 304 140 304 136 q 296 146 298 142 q 292 152 294 149 q 287 156 290 155 q 275 157 283 157 q 264 146 267 149 q 250 137 260 142 q 252 134 251 136 q 254 129 252 132 q 250 117 250 125 q 265 106 256 109 q 285 104 274 104 q 305 123 305 104 "},"A":{"ha":968,"x_min":47,"x_max":920,"o":"m 529 993 q 521 998 522 996 q 517 1006 519 1001 q 500 1009 506 1009 q 477 997 486 1009 q 476 988 477 993 q 475 978 475 983 q 481 964 475 966 q 496 958 488 963 l 518 958 q 525 975 521 968 q 529 993 529 982 m 605 861 q 593 881 602 876 q 571 886 585 886 q 553 873 556 886 q 547 849 549 860 q 563 838 556 842 q 581 834 570 834 l 587 837 q 595 848 589 841 q 605 861 602 856 m 667 686 q 648 713 659 703 q 613 700 627 713 q 610 690 610 692 q 612 681 610 685 q 614 673 613 677 q 627 667 621 670 q 640 665 633 665 q 651 667 643 665 l 667 686 m 464 836 q 459 850 464 844 q 452 863 454 856 q 437 863 445 863 q 422 864 429 864 q 412 854 416 857 q 407 842 407 850 q 409 825 407 834 q 412 808 411 817 q 418 810 415 810 q 423 812 420 811 q 434 810 429 810 q 454 817 445 810 q 464 836 464 825 m 731 541 q 724 559 731 551 q 708 567 718 567 q 689 559 697 567 q 674 544 681 552 q 677 538 675 541 q 678 532 678 534 q 677 527 678 529 q 675 522 675 525 q 689 516 682 521 q 703 511 696 511 q 715 515 709 511 q 727 519 720 518 q 729 530 727 525 q 731 541 731 536 m 773 389 q 768 410 773 401 q 750 418 764 418 q 730 414 739 418 q 713 407 722 411 q 718 393 716 400 q 720 378 719 385 q 730 369 724 372 q 741 361 735 366 q 763 370 753 368 q 773 389 773 372 m 831 281 q 818 300 827 290 q 805 301 811 301 q 792 304 799 301 l 779 288 q 778 281 779 285 q 777 274 777 278 q 800 251 777 251 q 814 253 807 251 q 827 258 821 255 q 831 281 831 270 m 392 685 q 387 697 388 692 q 384 711 387 703 q 376 712 380 711 q 366 713 372 713 q 357 718 362 718 q 345 714 350 718 q 335 708 340 711 q 334 700 335 704 q 332 692 332 696 q 336 671 332 681 q 351 663 345 663 q 374 670 363 663 q 392 685 384 677 m 640 362 q 637 371 640 368 q 635 378 635 374 l 635 385 l 614 396 q 607 391 610 392 q 600 390 604 391 q 593 385 597 389 q 582 369 589 381 q 583 357 582 362 q 581 347 583 353 l 602 332 q 628 340 617 339 q 640 362 640 349 m 872 134 l 867 141 q 865 151 865 144 q 849 156 857 155 q 833 160 841 157 q 825 152 827 156 q 815 145 822 148 q 814 134 815 138 q 811 123 812 129 q 823 112 817 117 q 836 100 829 107 q 859 112 850 104 q 872 134 868 119 m 920 -3 q 918 13 918 5 q 914 27 917 20 q 891 31 902 31 q 873 26 883 31 q 864 12 864 20 q 866 -1 864 5 q 869 -15 868 -8 q 884 -16 876 -16 q 903 -19 892 -16 q 912 -12 907 -16 q 920 -3 917 -8 m 522 370 q 515 380 518 374 q 510 391 513 385 l 500 391 q 468 376 483 391 q 471 355 471 362 q 481 336 471 347 q 514 342 499 336 l 521 346 q 522 358 521 353 q 522 370 522 363 m 320 515 q 317 532 317 524 q 311 548 317 541 l 305 551 q 284 549 290 549 q 263 540 278 549 l 266 532 q 273 514 266 519 q 290 502 279 509 q 306 507 298 502 q 320 515 313 511 m 404 358 q 399 372 400 365 q 396 387 399 380 q 382 388 389 388 q 369 391 376 388 q 354 376 359 382 q 346 358 349 370 q 354 351 353 355 q 358 340 355 346 q 368 338 363 339 q 378 336 373 336 q 389 339 384 336 l 404 358 m 262 381 q 257 393 258 388 q 251 404 256 399 q 239 408 244 406 q 228 411 235 411 q 212 401 218 411 q 205 382 205 391 q 215 365 205 373 q 235 357 225 357 q 251 365 245 357 q 262 381 256 373 m 202 251 l 201 251 q 197 260 198 256 q 193 270 195 264 q 159 275 178 275 q 149 264 155 271 q 144 251 144 258 q 145 242 144 245 q 146 233 146 239 q 170 221 160 229 q 191 231 180 224 q 202 251 202 239 m 145 113 q 140 133 145 119 q 129 138 134 136 q 117 140 123 140 l 104 140 q 100 131 103 133 q 92 125 96 129 l 92 115 q 98 103 92 109 q 110 95 103 98 q 121 90 115 90 q 137 97 129 90 q 145 113 145 104 m 106 7 q 105 16 106 11 q 104 26 104 20 q 96 32 100 28 q 85 35 92 35 q 81 35 83 35 q 77 34 80 34 q 71 35 75 34 q 64 38 66 37 q 47 8 47 24 q 56 -9 47 -3 q 76 -16 65 -16 l 91 -16 q 95 -9 91 -9 q 103 -5 99 -9 q 106 7 106 3 "},"B":{"ha":907,"x_min":118,"x_max":845,"o":"m 738 918 q 729 938 738 930 q 709 948 720 945 q 696 941 703 944 q 685 929 689 937 l 685 921 q 711 895 685 895 q 727 903 722 895 q 738 918 732 911 m 789 848 q 781 849 785 848 q 773 850 777 849 q 762 852 769 850 q 749 840 758 841 q 747 826 747 836 q 751 803 747 815 q 764 800 758 803 q 776 798 769 798 q 790 804 787 803 q 800 817 793 806 q 796 827 800 823 q 796 833 798 830 q 793 840 795 837 q 789 848 791 844 m 642 975 q 627 984 635 979 q 612 989 620 989 q 589 964 589 989 q 593 943 589 952 q 609 936 600 936 q 626 940 618 936 q 640 949 633 944 q 637 959 637 955 l 642 975 m 800 728 l 788 738 q 777 742 784 742 q 754 736 768 742 l 742 715 q 754 700 749 707 q 770 693 760 693 q 798 703 783 693 q 800 719 800 713 l 800 728 m 526 991 q 515 1000 518 997 q 510 1006 513 1004 q 503 1010 507 1009 q 484 1012 498 1012 q 475 998 476 1000 q 473 986 473 997 q 492 963 473 972 q 503 960 498 960 q 515 959 509 959 q 522 972 518 970 q 526 991 526 975 m 396 989 q 392 997 393 996 q 391 1006 391 998 q 377 1012 384 1009 q 363 1015 370 1015 q 343 994 343 1015 q 351 977 343 986 q 365 963 359 968 q 368 966 366 963 q 370 968 369 968 l 381 968 q 396 989 395 975 m 758 608 l 758 617 q 749 628 751 624 q 736 632 747 632 q 717 623 726 632 q 708 604 708 613 q 718 585 708 594 q 736 576 728 576 q 751 589 745 576 q 758 608 758 601 m 288 991 l 288 1000 l 279 1008 q 267 1010 273 1008 q 255 1012 262 1012 q 248 1006 251 1008 q 243 1002 245 1004 q 239 998 241 1001 q 235 989 237 996 q 241 975 235 982 q 250 962 247 968 q 266 964 258 962 q 282 966 274 966 q 286 979 283 972 q 288 991 288 985 m 674 548 q 672 558 674 553 q 667 568 670 563 q 648 576 661 576 q 625 566 633 576 q 623 553 623 557 q 635 525 623 540 q 656 522 650 525 q 674 540 666 530 l 674 548 m 793 414 q 784 431 793 425 q 765 437 774 437 q 753 433 758 437 q 742 425 747 429 q 739 415 739 419 q 748 391 739 397 q 772 384 757 385 q 787 395 779 392 q 793 414 793 404 m 697 498 q 686 509 690 506 q 671 518 682 513 q 654 505 662 513 q 646 487 646 498 q 650 475 646 480 q 661 464 655 469 q 696 476 684 464 q 695 483 696 479 q 694 490 694 487 q 697 498 694 492 m 189 985 q 177 989 182 986 q 165 993 172 993 q 150 991 155 993 q 142 985 145 989 q 138 977 140 982 q 132 964 136 971 q 140 955 137 958 q 146 943 144 952 q 155 942 151 943 q 163 941 159 941 q 178 951 170 941 q 187 968 187 962 q 189 985 187 979 m 845 301 q 811 320 836 320 l 798 320 q 791 294 791 307 l 791 281 q 806 274 800 278 q 821 269 811 270 q 830 273 825 273 q 840 279 836 274 q 840 291 841 286 q 845 301 840 296 m 547 522 q 545 530 547 526 q 543 536 544 533 q 522 543 532 543 q 494 536 510 543 q 494 526 495 530 q 492 515 492 521 q 503 498 492 505 q 524 492 513 492 q 536 498 530 492 q 545 507 541 503 q 546 514 545 510 q 547 522 547 518 m 189 864 l 165 884 l 160 879 q 142 875 151 880 q 134 859 134 869 q 138 852 134 853 q 140 845 141 850 l 140 838 q 149 830 144 834 q 160 826 153 826 q 179 840 172 826 q 189 864 186 853 m 831 172 q 823 191 831 183 q 806 199 815 199 q 795 197 800 199 q 785 194 791 195 q 782 184 784 189 q 780 172 780 179 q 784 160 780 163 q 788 149 788 157 q 802 146 796 146 q 822 154 812 146 q 831 172 831 161 m 429 511 q 428 524 429 518 q 427 534 427 529 l 415 534 l 407 538 q 380 529 391 536 q 377 518 377 524 q 380 506 377 511 q 385 494 382 500 q 394 486 389 490 q 406 483 399 483 q 418 490 411 483 q 429 503 426 498 l 429 511 m 186 730 q 176 747 186 741 q 159 758 167 754 q 144 755 151 757 q 130 750 137 753 l 134 742 q 132 730 132 734 q 134 717 132 722 q 142 707 137 712 q 155 703 149 704 q 168 699 161 701 q 180 713 175 705 q 186 730 186 720 m 781 65 q 779 77 781 69 q 761 88 765 85 q 741 92 757 91 q 734 80 738 81 q 723 64 730 79 q 736 42 730 49 q 754 35 742 35 q 764 38 758 35 q 781 65 781 47 m 308 507 q 307 515 308 511 q 307 522 307 519 q 294 529 301 528 q 281 533 288 530 q 264 525 274 532 q 254 510 254 518 q 256 501 254 505 q 258 494 258 498 q 267 484 262 490 q 279 477 273 477 q 298 488 289 477 q 308 507 308 499 m 184 606 l 174 628 q 169 627 171 627 q 164 625 167 627 q 158 628 161 627 q 151 629 155 629 q 137 625 142 629 q 126 614 132 620 q 125 609 126 612 q 125 604 125 606 q 130 589 125 597 q 137 575 134 582 l 148 575 q 172 585 163 575 q 184 606 180 594 m 661 26 l 661 37 q 650 45 656 41 q 637 50 643 50 q 614 41 627 50 q 612 26 612 33 q 623 -3 612 11 q 635 -3 629 -3 q 648 -4 642 -4 l 655 9 q 660 17 659 12 q 661 26 661 22 m 189 503 q 171 516 179 510 q 152 526 163 522 q 138 511 145 519 q 132 492 132 503 l 132 486 q 155 467 142 475 q 173 472 161 467 q 184 487 184 477 q 184 496 184 495 q 189 503 183 496 m 540 8 q 537 30 540 16 q 528 37 532 33 q 517 41 524 41 q 496 33 506 41 q 487 12 487 24 q 495 -6 487 1 q 514 -14 503 -14 q 528 -11 519 -14 q 534 -2 530 -7 q 540 8 537 3 m 171 363 q 169 380 170 372 q 165 396 168 388 q 154 401 160 400 q 141 403 148 401 q 132 397 137 399 q 122 391 126 395 q 118 374 118 382 q 120 363 118 368 q 125 353 122 358 q 134 351 130 353 q 144 349 138 349 l 151 349 q 161 357 156 354 q 171 363 165 361 m 175 258 q 170 275 175 269 q 149 281 159 281 q 132 278 142 281 q 125 267 129 271 q 122 254 122 262 q 125 241 122 247 q 133 229 129 235 l 141 229 q 152 230 146 229 q 163 231 157 231 q 175 258 175 243 m 419 16 q 411 38 419 30 q 404 35 410 38 q 395 39 400 39 q 371 28 376 39 q 362 1 366 16 q 375 -3 373 1 q 384 -14 377 -8 q 391 -14 388 -14 q 399 -15 395 -15 q 414 -5 410 -15 q 419 16 419 4 m 176 149 q 168 162 176 159 q 153 168 160 165 q 133 159 141 168 q 125 138 125 151 q 127 125 125 133 q 139 121 134 123 q 151 115 144 118 q 162 118 157 115 q 174 125 167 121 q 176 137 175 132 q 176 149 176 142 m 288 3 q 286 14 288 9 q 282 24 285 19 q 270 28 275 27 q 258 30 264 30 q 235 18 240 30 q 234 12 235 15 q 233 7 233 9 q 241 -12 233 -8 q 260 -22 250 -16 q 275 -16 269 -22 q 288 -4 282 -11 l 288 3 m 178 28 q 173 39 175 34 q 167 50 171 45 q 156 53 161 53 q 145 52 148 53 q 134 54 142 52 q 127 41 130 47 q 123 28 123 35 q 130 9 123 19 q 146 -1 136 -1 q 157 1 152 -1 q 168 5 163 3 q 174 16 174 9 q 178 28 175 22 "},"C":{"ha":963,"x_min":76,"x_max":886,"o":"m 879 864 q 871 880 879 873 q 854 887 864 887 q 833 878 842 887 q 825 857 825 869 q 830 844 825 846 q 838 831 836 841 q 867 838 856 831 q 879 864 879 844 m 802 926 q 796 935 799 935 q 793 945 793 935 l 783 945 q 764 941 772 945 q 749 930 755 937 q 746 922 746 925 q 749 911 746 916 q 755 901 753 906 q 777 890 764 894 q 787 899 783 897 q 800 907 792 902 l 802 926 m 715 989 q 703 1002 708 996 q 689 1008 699 1008 q 680 1008 682 1008 q 670 1006 677 1008 l 666 994 q 661 975 663 989 q 667 966 665 971 q 673 955 669 960 l 697 955 q 709 970 708 962 q 715 989 711 978 m 601 1009 q 598 1021 601 1016 q 593 1031 595 1025 l 583 1031 q 560 1023 572 1031 q 548 1004 548 1016 q 555 987 548 993 q 574 981 563 981 q 593 989 586 981 q 601 1009 601 997 m 480 1005 q 471 1013 473 1012 q 469 1025 469 1015 q 439 1019 456 1024 q 423 996 423 1013 q 427 982 423 985 q 435 971 431 979 q 450 968 442 967 q 465 967 458 970 q 473 979 468 974 q 477 991 477 983 q 477 999 477 998 q 480 1005 476 1000 m 350 944 q 345 956 346 948 q 343 970 345 963 q 327 974 335 970 q 311 979 319 978 q 308 971 311 971 q 300 967 305 971 q 294 957 297 964 q 290 947 292 949 q 294 935 290 940 q 300 925 297 930 q 311 921 302 924 q 323 918 320 918 q 339 928 331 918 q 350 944 347 937 m 251 857 q 213 884 236 876 q 200 872 208 876 q 193 857 193 868 q 198 837 193 850 q 210 830 203 831 q 222 826 216 829 q 239 838 233 830 q 251 857 245 846 m 886 138 q 884 151 886 145 q 883 163 883 156 q 866 166 872 167 q 850 167 860 165 q 835 156 841 160 q 829 138 829 152 q 837 118 829 127 q 856 109 845 109 q 869 113 864 109 q 882 122 875 118 q 886 138 886 130 m 190 746 q 180 767 190 761 q 156 773 170 773 l 142 773 q 138 758 140 766 q 136 743 136 750 q 160 719 136 719 q 181 726 172 719 q 190 746 190 734 m 798 56 q 787 73 798 66 q 765 80 776 80 q 748 72 754 80 q 742 53 742 64 q 748 35 742 42 q 765 28 754 28 q 777 30 772 28 q 788 31 781 31 q 794 43 791 38 q 798 56 798 49 m 134 633 l 121 655 q 115 656 118 655 q 109 656 111 656 q 92 647 102 656 q 77 633 81 637 q 83 615 77 623 q 92 597 88 608 q 109 602 100 601 q 123 606 117 604 q 134 633 134 620 m 689 3 q 688 15 689 9 q 686 27 688 20 q 671 31 678 27 q 658 38 665 35 q 649 29 651 31 q 639 24 647 27 q 638 13 642 14 q 635 1 635 12 q 647 -15 640 -8 q 665 -22 654 -22 q 677 -18 671 -22 q 689 -9 684 -14 l 689 3 m 132 492 q 123 509 132 503 q 103 515 114 515 q 83 505 90 515 q 76 483 76 495 q 99 460 76 460 q 115 463 110 460 q 129 472 121 465 q 132 492 132 486 m 551 -20 q 553 -19 552 -20 q 556 -5 556 -16 q 559 5 556 -3 q 544 23 551 12 q 532 24 537 23 q 521 24 528 24 q 509 9 514 18 q 502 -8 505 1 q 511 -20 507 -15 q 521 -31 515 -26 q 528 -31 525 -31 q 536 -30 532 -30 l 544 -30 l 551 -20 m 156 363 q 143 374 153 366 q 130 382 133 382 q 117 379 125 382 q 102 373 109 376 q 99 362 99 368 q 96 347 99 354 q 109 334 102 340 q 126 327 117 327 q 136 328 132 327 q 145 332 140 330 q 153 347 149 342 q 156 363 156 353 m 427 16 q 417 26 420 23 q 410 38 414 30 l 401 38 q 395 37 397 38 q 389 39 392 37 q 373 26 381 37 q 365 7 365 15 q 373 -9 365 -3 q 391 -16 381 -16 q 407 -12 399 -16 q 422 -4 415 -8 q 422 6 420 3 q 427 16 425 9 m 201 213 q 193 221 195 217 q 187 231 190 225 q 175 233 179 233 q 148 224 161 233 q 145 218 146 221 q 144 210 144 214 q 146 201 144 209 q 152 191 148 195 q 159 180 156 186 l 170 180 q 191 190 184 180 q 201 213 198 199 m 313 81 q 304 98 309 90 q 289 106 300 106 q 276 102 282 106 q 263 95 270 99 q 258 79 258 87 q 269 63 258 68 q 289 56 281 58 q 304 66 300 60 q 313 81 309 72 "},"D":{"ha":1077,"x_min":126,"x_max":1000,"o":"m 845 910 q 830 920 837 914 q 814 926 823 926 q 793 918 799 926 q 787 895 787 909 q 789 879 787 890 q 812 869 802 869 q 827 878 819 872 q 841 887 834 883 q 841 899 841 895 q 845 910 841 903 m 936 795 q 929 814 936 806 q 913 827 922 822 q 891 815 897 827 q 879 791 886 803 q 910 770 890 770 q 920 772 916 770 q 928 774 924 773 q 929 780 929 777 q 928 785 929 784 q 936 795 930 789 m 718 952 q 708 972 718 963 q 688 981 699 981 q 675 976 677 981 q 667 968 674 971 q 665 955 665 960 q 670 935 665 945 q 690 926 678 926 q 715 939 703 926 q 718 952 718 949 m 971 694 q 960 702 966 699 q 952 712 955 705 q 937 709 941 712 q 922 701 932 707 q 920 692 921 696 q 918 682 918 688 q 921 665 918 670 q 932 657 924 661 q 948 654 941 654 q 958 655 954 654 q 968 658 963 656 l 971 694 m 591 975 q 589 985 591 981 q 587 994 587 989 q 576 998 581 996 q 564 1001 571 1001 q 552 998 560 1001 q 545 992 549 996 q 536 985 540 989 l 536 978 q 545 955 536 963 q 570 947 555 947 q 580 955 575 949 q 589 964 585 960 q 591 975 591 972 m 1000 556 q 997 568 1000 560 q 974 575 986 575 q 960 572 971 575 q 949 548 949 562 q 956 529 949 537 q 972 521 962 521 q 985 524 979 521 q 996 532 991 528 q 998 544 996 538 q 1000 556 1000 549 m 461 986 q 453 1000 457 994 q 438 1006 449 1006 q 422 1004 430 1006 q 408 998 415 1001 q 406 986 406 990 q 413 966 406 972 q 431 955 420 960 q 451 966 448 956 q 461 986 454 975 m 998 414 l 993 430 q 983 436 986 433 q 977 445 979 439 l 947 433 q 941 408 941 427 q 949 399 944 403 q 958 392 954 396 q 966 388 959 388 q 975 389 971 388 q 985 391 979 389 q 998 414 997 403 m 338 981 q 326 996 338 990 q 307 1001 315 1001 q 287 995 297 1001 q 277 978 277 989 q 283 958 277 970 q 300 947 290 947 q 308 948 304 947 q 316 949 312 949 q 328 958 326 954 q 336 967 330 963 q 337 973 336 970 q 338 981 338 977 m 978 300 q 975 315 978 307 q 959 321 970 316 l 963 327 q 941 319 951 321 q 921 307 930 316 q 922 296 922 300 q 918 286 921 293 q 927 281 922 283 q 933 273 932 278 q 948 267 941 267 q 970 277 962 267 q 978 300 978 288 m 193 970 q 185 988 193 981 q 167 996 178 996 q 145 988 156 996 q 134 970 134 981 q 146 955 134 960 q 159 946 152 948 q 175 943 167 944 q 186 954 180 948 q 193 970 193 960 m 929 171 l 907 195 l 902 195 q 884 190 895 195 q 876 187 882 190 q 872 183 873 186 q 871 176 872 180 q 868 161 868 168 q 880 145 873 153 q 897 137 886 137 q 917 149 909 137 q 929 171 925 160 m 195 841 l 195 848 q 185 857 191 853 q 172 861 179 861 q 151 855 160 861 q 141 837 141 849 q 148 817 141 826 q 165 808 155 808 q 180 814 174 808 q 195 822 187 819 q 195 831 194 827 q 195 841 195 836 m 815 80 q 807 89 811 84 q 798 96 803 94 q 785 99 789 99 q 768 89 770 99 q 758 72 766 79 q 762 50 758 60 q 772 45 766 47 q 781 41 777 43 q 790 42 787 41 q 799 45 793 43 q 804 43 803 45 q 810 62 808 53 q 815 80 812 71 m 190 707 q 177 717 183 713 q 164 726 171 720 q 150 723 155 726 q 137 719 145 720 q 132 708 133 713 q 126 697 130 703 q 140 678 132 686 q 159 670 148 670 q 172 678 165 674 q 186 686 179 682 q 188 696 189 692 q 190 707 187 701 m 199 575 l 199 586 q 186 595 194 589 q 171 601 178 601 q 152 591 159 601 q 145 571 145 582 q 151 553 145 564 q 165 543 156 543 q 178 545 170 543 q 193 549 186 548 q 197 562 194 557 q 199 575 199 566 m 670 27 q 662 31 662 30 q 661 39 662 33 q 639 49 651 49 q 609 34 621 49 l 618 -4 q 627 -5 623 -4 q 636 -5 632 -5 q 658 -1 647 -5 l 670 27 m 179 454 q 169 458 171 457 q 160 461 167 460 q 134 450 148 460 q 130 430 130 442 q 137 408 130 416 q 157 403 151 403 q 171 406 163 403 q 180 418 175 411 q 186 431 186 425 q 183 442 186 434 l 179 454 m 488 18 q 482 31 484 24 q 472 42 480 37 l 461 42 q 443 34 453 42 q 433 16 433 26 q 439 -3 433 8 q 454 -15 446 -15 q 467 -11 458 -15 q 483 -5 476 -7 q 484 7 480 5 q 488 18 487 8 m 199 282 q 190 300 197 292 q 172 309 183 309 q 159 304 165 309 q 146 296 152 300 q 146 286 146 290 q 145 277 145 282 q 154 261 145 266 q 170 250 163 256 q 189 263 180 255 q 199 282 197 271 m 354 22 q 337 38 345 34 q 315 45 330 42 q 302 31 309 37 q 296 15 296 26 q 303 -7 296 3 q 324 -16 311 -16 q 333 -14 330 -16 q 345 -11 336 -11 q 350 5 346 -3 q 354 22 354 12 m 197 151 q 196 159 197 155 q 195 165 195 163 q 172 179 187 179 q 152 175 161 179 l 136 156 l 149 129 q 163 123 157 123 q 176 127 170 123 q 186 137 182 132 q 197 151 197 140 m 195 16 q 188 33 195 27 q 174 45 180 38 l 167 45 q 153 41 157 45 q 142 33 146 38 q 134 23 137 28 q 138 13 138 16 q 141 3 138 9 q 148 -3 145 -1 q 153 -11 151 -4 q 164 -14 161 -14 q 171 -12 167 -14 q 178 -9 175 -11 l 184 -9 q 191 3 186 -3 q 195 16 195 9 "},"E":{"ha":878,"x_min":118,"x_max":795,"o":"m 795 989 q 792 1002 795 991 q 774 1016 785 1005 q 738 1005 758 1015 q 740 995 741 997 q 736 985 739 993 q 745 972 741 978 q 754 959 749 966 l 762 959 q 784 968 773 959 q 795 989 795 978 m 677 987 q 673 1000 677 994 q 666 1010 669 1005 q 656 1010 659 1008 q 647 1015 654 1013 q 631 1003 640 1010 q 623 986 623 996 q 625 976 623 981 q 627 964 627 971 q 636 963 632 964 q 644 962 640 962 q 656 963 651 962 q 666 966 661 964 q 677 979 667 975 l 677 987 m 564 986 l 555 1004 q 544 1009 548 1005 q 533 1017 540 1013 q 520 1012 526 1015 q 509 1004 514 1009 q 505 997 506 1000 q 503 989 503 994 l 503 978 q 514 965 510 968 q 522 961 518 962 q 532 960 526 960 q 545 959 537 960 l 564 986 m 431 998 q 418 1010 425 1005 q 403 1015 412 1015 q 389 1010 391 1015 q 378 998 387 1005 l 378 987 q 388 962 378 975 l 400 962 q 424 972 416 962 q 431 998 431 983 m 311 989 q 308 998 311 994 q 304 1008 305 1002 q 296 1008 300 1008 q 290 1009 293 1009 q 269 1002 279 1009 q 259 983 259 996 q 260 976 259 979 q 263 970 262 972 q 275 962 270 966 q 288 959 281 959 q 307 967 302 959 q 311 989 311 975 m 667 519 q 663 532 667 526 q 656 544 659 537 q 646 547 648 547 q 637 545 642 547 q 631 541 633 543 l 623 541 l 610 517 q 618 505 617 511 q 627 494 620 499 q 648 497 642 495 q 665 510 654 499 q 667 519 667 515 m 199 982 q 187 990 194 987 q 178 1000 180 993 q 164 1002 170 1002 q 145 995 153 1002 q 137 975 137 987 q 151 954 137 960 q 176 945 165 948 q 180 951 179 948 q 183 958 180 955 l 191 958 q 194 970 191 966 q 199 982 197 975 m 549 518 q 543 536 549 529 q 529 547 537 543 q 509 544 515 544 q 498 522 498 536 q 504 503 498 511 q 521 495 510 495 q 524 496 524 495 q 528 496 525 496 l 533 494 q 545 504 540 498 q 549 518 549 510 m 176 878 q 166 895 176 890 q 146 902 156 901 q 134 890 141 895 q 119 879 126 884 q 149 848 127 857 q 160 854 156 854 l 172 854 q 175 865 174 860 q 176 878 176 871 m 193 765 q 189 774 190 769 q 184 784 187 779 q 172 791 178 788 q 157 796 167 795 q 145 788 152 791 q 133 780 138 785 q 130 769 130 772 q 134 757 130 762 q 141 745 138 751 q 156 741 146 741 q 169 742 163 741 q 182 742 175 743 q 193 765 186 755 m 415 525 q 404 536 410 532 q 392 547 397 541 l 378 545 l 361 532 q 358 525 359 528 q 357 518 357 522 q 361 500 357 509 q 371 495 365 496 q 382 491 377 494 q 405 502 399 491 q 415 525 411 513 m 198 644 l 183 650 q 167 659 176 659 q 149 653 156 659 q 136 640 141 647 q 138 633 138 635 q 136 625 137 628 q 136 616 136 621 q 146 611 144 613 q 156 604 149 609 q 159 606 156 605 q 163 606 161 606 q 174 606 168 606 q 186 605 179 605 q 190 625 184 617 q 198 644 195 633 m 285 511 q 282 524 282 518 q 279 536 282 529 q 259 542 269 538 q 239 545 250 545 q 235 534 239 538 q 229 522 232 529 l 229 515 q 232 505 229 509 q 236 495 235 500 q 252 492 247 492 q 285 511 273 492 m 781 1 q 779 9 779 4 q 779 21 779 18 q 774 33 780 24 q 765 39 768 34 q 751 43 762 43 q 732 33 742 43 q 723 15 723 23 q 742 -16 723 -4 q 762 -10 753 -12 q 781 1 772 -8 m 191 521 l 168 541 l 160 541 q 155 541 157 541 q 151 540 153 540 l 145 540 q 136 528 140 534 q 132 515 132 522 q 137 500 132 503 q 142 488 142 498 q 156 489 149 488 q 170 490 163 490 q 182 504 178 495 q 191 521 187 513 m 667 7 q 665 15 667 12 q 659 22 662 18 q 645 36 651 34 q 625 43 639 38 q 623 33 624 37 q 613 28 621 28 q 612 16 613 22 q 610 3 610 9 q 618 -8 614 -3 q 627 -19 621 -14 q 659 -12 646 -19 q 665 -3 662 -7 q 667 7 667 1 m 183 406 q 170 411 175 408 q 159 419 165 414 l 129 401 q 127 392 127 399 q 131 374 127 377 q 137 359 134 370 l 151 359 q 164 362 157 359 q 178 368 171 365 q 180 386 178 377 q 183 406 183 395 m 552 15 q 539 33 541 28 q 517 37 537 37 l 513 33 q 506 25 510 28 q 499 19 502 22 q 496 9 496 14 q 504 -9 496 -1 q 522 -18 511 -18 q 541 -14 530 -18 q 547 0 547 -7 q 552 15 548 7 m 189 269 q 182 277 184 273 q 178 288 180 282 q 165 289 171 288 q 152 290 159 290 q 127 271 137 290 l 127 263 q 132 250 127 255 q 138 237 136 244 q 146 237 142 237 q 155 236 151 236 q 168 239 161 236 q 182 244 175 241 q 183 256 180 254 q 189 269 186 259 m 427 8 q 426 18 427 15 q 410 28 419 26 q 391 33 401 31 q 378 21 384 26 q 373 5 373 16 q 382 -14 373 -7 q 401 -22 391 -22 q 420 -12 414 -22 q 427 8 427 -3 m 186 152 q 179 160 183 159 q 176 170 176 165 q 164 176 170 176 q 152 182 159 175 q 129 152 136 165 q 135 132 130 141 q 153 123 140 123 q 175 129 161 123 q 182 139 180 133 q 186 152 184 145 m 308 -7 q 305 -1 307 -4 q 304 4 304 1 q 306 10 304 7 q 308 18 308 14 q 304 26 308 24 q 298 38 300 28 q 286 39 294 39 q 271 35 277 39 q 258 26 264 30 q 254 18 256 22 q 252 8 252 14 q 256 -3 252 1 q 262 -12 259 -7 q 277 -18 267 -18 q 292 -14 288 -18 q 308 -7 297 -9 m 175 24 q 163 37 165 31 q 149 49 161 43 q 135 41 142 43 q 121 34 127 38 q 119 26 121 30 q 118 16 118 22 l 118 7 q 127 -1 123 4 q 134 -11 130 -7 q 153 -14 145 -8 q 175 24 174 0 "},"F":{"ha":846,"x_min":115,"x_max":784,"o":"m 784 975 q 777 992 777 986 q 765 1009 776 998 l 743 1010 q 730 1000 738 1001 q 722 983 722 998 q 723 972 722 977 q 724 960 724 967 q 738 954 731 958 q 751 951 745 951 q 770 960 762 951 q 784 975 777 968 m 671 990 q 661 1006 671 1000 q 644 1016 651 1012 q 633 1008 639 1010 q 620 1001 627 1006 l 612 983 q 618 970 612 977 q 628 958 625 963 l 640 958 q 656 964 650 958 q 666 979 662 971 q 671 990 671 985 m 562 982 q 560 989 562 986 q 556 994 559 991 q 560 1001 559 1000 q 547 1008 553 1004 q 533 1012 540 1012 q 515 1001 522 1012 q 506 983 509 990 q 509 970 506 974 q 515 959 511 967 q 528 959 522 959 q 541 958 534 959 q 555 968 548 963 q 562 982 562 972 m 444 986 q 431 999 438 994 q 418 1013 423 1004 l 395 1005 q 385 978 385 990 l 385 966 q 398 959 392 962 q 411 954 404 956 q 438 963 423 954 q 440 975 438 970 q 444 986 442 979 m 311 990 q 300 1006 304 1001 q 282 1012 296 1012 q 269 1009 275 1012 q 254 1006 262 1006 q 253 991 255 998 q 251 978 251 985 q 263 962 251 970 q 282 955 275 955 q 298 958 288 955 q 306 973 302 966 q 311 990 309 981 m 187 993 q 175 1001 182 998 q 164 1009 168 1004 q 151 1012 156 1012 q 132 1004 140 1012 q 125 986 125 997 q 131 967 125 977 q 148 958 137 958 q 163 962 153 958 q 180 968 174 966 q 187 993 180 979 m 655 510 q 650 523 655 517 q 643 536 646 529 l 635 536 q 623 533 628 536 q 616 530 618 530 l 609 530 q 603 517 606 524 q 598 505 600 511 q 606 493 605 498 q 614 481 606 488 q 636 485 631 484 q 652 499 642 486 q 655 510 655 507 m 175 880 q 163 895 171 891 q 144 901 155 899 q 130 887 137 892 q 115 875 123 882 q 148 846 126 856 q 160 853 155 853 q 172 852 168 853 q 174 866 172 859 q 175 880 175 873 m 537 507 q 530 524 537 514 q 515 534 524 534 q 494 529 505 534 q 483 511 483 524 q 491 492 483 503 q 507 481 499 481 q 511 482 510 481 q 515 483 513 483 q 521 479 517 483 q 532 492 528 486 q 537 507 537 498 m 183 762 q 176 783 178 776 q 163 790 168 787 q 148 796 157 793 q 136 787 142 789 q 123 779 129 784 q 121 768 121 770 q 124 755 121 761 q 130 745 127 750 q 146 739 137 739 q 159 741 153 739 q 171 743 164 742 q 178 753 175 747 q 183 762 180 758 m 414 514 q 402 526 408 521 q 391 536 396 530 q 373 530 376 533 q 359 521 370 528 q 357 515 358 518 q 355 507 355 511 q 363 484 355 494 q 374 482 369 484 q 382 477 378 480 q 404 490 397 477 q 414 514 410 502 m 186 621 q 185 642 186 639 q 176 648 184 646 q 160 658 170 658 q 141 651 149 658 q 127 636 133 644 l 130 631 l 126 614 q 138 610 136 612 q 148 602 141 608 q 155 605 151 605 l 172 605 l 179 612 q 184 617 182 614 q 186 621 186 620 m 288 502 q 283 513 283 509 q 281 525 283 518 q 262 532 270 528 q 243 536 254 536 l 231 511 l 231 505 q 233 493 231 498 q 239 483 236 488 q 246 481 243 481 q 254 480 250 480 q 273 487 264 480 q 288 502 281 494 m 184 515 l 161 536 l 153 536 q 148 535 151 536 q 142 534 145 534 l 134 534 q 127 522 132 528 q 123 507 123 515 q 129 494 123 496 q 134 481 134 492 l 148 481 q 172 491 167 481 q 184 515 178 500 m 179 403 q 166 410 172 406 q 153 416 160 414 q 126 410 138 411 q 127 399 126 403 q 125 393 126 396 q 122 388 123 391 q 127 373 123 380 q 133 358 130 366 l 146 358 q 160 361 153 358 q 174 366 167 363 q 176 385 174 376 q 179 403 179 393 m 184 267 q 180 276 182 271 q 175 286 178 281 q 162 288 168 286 q 149 289 156 289 q 125 270 132 289 l 125 262 q 129 249 125 255 q 136 236 133 243 q 148 235 142 236 q 160 232 153 233 q 170 237 165 235 q 180 241 174 240 q 180 255 178 252 q 184 267 183 258 m 184 151 q 179 159 182 156 q 175 170 176 163 q 163 175 168 176 q 151 180 157 174 q 127 151 134 164 q 136 132 130 140 q 155 123 142 123 q 174 127 163 123 q 184 151 182 136 m 175 26 q 165 36 165 31 q 151 47 164 41 q 136 39 144 41 q 121 30 127 37 q 120 22 121 26 q 119 15 119 19 l 119 7 l 136 -14 q 155 -15 146 -9 q 175 26 174 0 "}}}
